<svg width="2170" height="300" viewBox="0 0 2170 300" fill="none" xmlns="http://www.w3.org/2000/svg">
<path d="M20.2699 0C-173.185 371.362 1054 427.649 2170 0H20.2699Z" fill="#4E8679"/>
<path d="M15.5156 0C-143.692 345.606 951.512 371.493 1962 0H15.5156Z" fill="#66BAA7"/>
<path d="M284.489 101.383C281.263 101.383 278.501 100.697 276.202 99.3236C273.903 97.9186 272.131 95.9228 270.886 93.3364C269.672 90.7499 269.065 87.6685 269.065 84.0921C269.065 81.4098 269.401 79.015 270.071 76.9075C270.774 74.768 271.78 72.9639 273.089 71.495C274.43 69.9942 276.059 68.8447 277.974 68.0464C279.922 67.2481 282.094 66.8489 284.489 66.8489C286.596 66.8489 288.56 67.1523 290.38 67.759C292.2 68.3657 293.765 69.2598 295.074 70.4413C295.393 70.7286 295.601 71.032 295.697 71.3513C295.792 71.6706 295.792 71.974 295.697 72.2614C295.633 72.5168 295.489 72.7404 295.266 72.9319C295.042 73.0916 294.771 73.1714 294.451 73.1714C294.164 73.1395 293.845 72.9798 293.493 72.6925C292.28 71.6387 290.923 70.8564 289.422 70.3455C287.953 69.8346 286.325 69.5791 284.536 69.5791C281.886 69.5791 279.635 70.1539 277.783 71.3034C275.963 72.421 274.574 74.0655 273.616 76.2369C272.69 78.4082 272.227 81.0267 272.227 84.0921C272.227 87.1895 272.69 89.8239 273.616 91.9952C274.574 94.1666 275.963 95.827 277.783 96.9766C279.635 98.0942 281.886 98.653 284.536 98.653C286.293 98.653 287.921 98.3976 289.422 97.8866C290.923 97.3438 292.296 96.5455 293.541 95.4918C293.892 95.2044 294.212 95.0607 294.499 95.0607C294.818 95.0607 295.074 95.1565 295.266 95.3481C295.489 95.5077 295.649 95.7313 295.744 96.0186C295.84 96.2741 295.84 96.5455 295.744 96.8329C295.681 97.1203 295.505 97.3917 295.218 97.6472C293.845 98.8925 292.248 99.8345 290.428 100.473C288.64 101.08 286.66 101.383 284.489 101.383ZM309.48 101.383C307.309 101.383 305.425 100.888 303.828 99.8984C302.231 98.9085 300.986 97.5194 300.092 95.7313C299.23 93.9431 298.799 91.8196 298.799 89.3609C298.799 87.5407 299.038 85.8963 299.517 84.4274C300.028 82.9585 300.747 81.6972 301.673 80.6435C302.631 79.5578 303.764 78.7435 305.073 78.2007C306.414 77.6259 307.883 77.3385 309.48 77.3385C311.683 77.3385 313.583 77.8335 315.18 78.8234C316.776 79.8132 318.006 81.2182 318.868 83.0384C319.762 84.8265 320.209 86.934 320.209 89.3609C320.209 91.2129 319.954 92.8734 319.443 94.3422C318.964 95.8111 318.245 97.0724 317.287 98.1261C316.361 99.1799 315.244 99.9941 313.934 100.569C312.625 101.112 311.14 101.383 309.48 101.383ZM309.48 98.9404C311.076 98.9404 312.45 98.5732 313.599 97.8388C314.781 97.0724 315.675 95.9707 316.281 94.5338C316.92 93.0969 317.239 91.3726 317.239 89.3609C317.239 86.3273 316.537 83.9803 315.132 82.3199C313.759 80.6594 311.875 79.8292 309.48 79.8292C307.915 79.8292 306.542 80.2124 305.361 80.9788C304.211 81.7132 303.317 82.7989 302.678 84.2358C302.072 85.6408 301.768 87.3492 301.768 89.3609C301.768 92.4263 302.471 94.7893 303.876 96.4497C305.281 98.1102 307.149 98.9404 309.48 98.9404ZM327.915 101.287C327.436 101.287 327.068 101.16 326.813 100.904C326.557 100.649 326.43 100.282 326.43 99.8026V78.9671C326.43 78.4561 326.557 78.073 326.813 77.8175C327.068 77.5621 327.436 77.4343 327.915 77.4343C328.362 77.4343 328.697 77.5621 328.92 77.8175C329.176 78.073 329.304 78.4561 329.304 78.9671V83.4694L328.777 83.1821C329.415 81.2661 330.501 79.8132 332.034 78.8234C333.598 77.8335 335.387 77.3385 337.398 77.3385C339.25 77.3385 340.783 77.6738 341.996 78.3444C343.242 78.983 344.168 79.9729 344.775 81.314C345.381 82.6552 345.685 84.3316 345.685 86.3433V99.8026C345.685 100.282 345.557 100.649 345.301 100.904C345.046 101.16 344.695 101.287 344.248 101.287C343.769 101.287 343.401 101.16 343.146 100.904C342.891 100.649 342.763 100.282 342.763 99.8026V86.5828C342.763 84.2518 342.3 82.5594 341.374 81.5056C340.448 80.42 338.979 79.8771 336.967 79.8771C334.668 79.8771 332.816 80.5956 331.411 82.0325C330.038 83.4375 329.351 85.3374 329.351 87.7323V99.8026C329.351 100.792 328.872 101.287 327.915 101.287ZM361.38 101.287C360.901 101.287 360.502 101.16 360.183 100.904C359.863 100.649 359.576 100.266 359.32 99.7547L350.699 79.6376C350.539 79.2544 350.475 78.9032 350.507 78.5839C350.571 78.2326 350.715 77.9612 350.938 77.7696C351.194 77.5461 351.545 77.4343 351.992 77.4343C352.407 77.4343 352.711 77.5301 352.902 77.7217C353.126 77.9133 353.317 78.2167 353.477 78.6318L362.003 99.2278H360.805L369.379 78.6318C369.539 78.2167 369.73 77.9133 369.954 77.7217C370.177 77.5301 370.497 77.4343 370.912 77.4343C371.327 77.4343 371.63 77.5461 371.822 77.7696C372.045 77.9612 372.173 78.2167 372.205 78.536C372.237 78.8553 372.173 79.2065 372.013 79.5897L363.392 99.7547C363.2 100.266 362.929 100.649 362.577 100.904C362.226 101.16 361.827 101.287 361.38 101.287ZM387.194 101.383C384.799 101.383 382.739 100.904 381.015 99.9463C379.29 98.9883 377.965 97.6152 377.039 95.827C376.113 94.0389 375.65 91.9154 375.65 89.4567C375.65 87.0298 376.113 84.9223 377.039 83.1342C377.965 81.314 379.243 79.8931 380.871 78.8713C382.532 77.8494 384.431 77.3385 386.571 77.3385C388.136 77.3385 389.509 77.61 390.69 78.1528C391.903 78.6637 392.925 79.4141 393.756 80.404C394.618 81.3619 395.272 82.5434 395.719 83.9484C396.166 85.3215 396.39 86.8861 396.39 88.6424C396.39 89.0894 396.262 89.4247 396.007 89.6482C395.783 89.8718 395.464 89.9835 395.049 89.9835H377.758V87.8281H394.57L393.803 88.4508C393.803 86.5988 393.532 85.0341 392.989 83.7568C392.446 82.4476 391.632 81.4418 390.546 80.7393C389.493 80.0368 388.183 79.6855 386.619 79.6855C384.863 79.6855 383.378 80.1006 382.164 80.9309C380.951 81.7292 380.041 82.8468 379.434 84.2837C378.827 85.6887 378.524 87.3172 378.524 89.1693V89.4088C378.524 92.4742 379.274 94.8372 380.775 96.4976C382.276 98.1261 384.384 98.9404 387.098 98.9404C388.279 98.9404 389.413 98.7807 390.498 98.4614C391.616 98.1421 392.702 97.5993 393.756 96.8329C394.075 96.6094 394.378 96.4976 394.666 96.4976C394.985 96.4976 395.24 96.5774 395.432 96.7371C395.655 96.8968 395.799 97.1043 395.863 97.3598C395.959 97.5833 395.943 97.8388 395.815 98.1261C395.719 98.3816 395.512 98.6211 395.192 98.8446C394.171 99.6748 392.941 100.313 391.504 100.761C390.067 101.176 388.63 101.383 387.194 101.383ZM403.831 101.287C403.352 101.287 402.984 101.16 402.729 100.904C402.473 100.649 402.346 100.282 402.346 99.8026V78.9671C402.346 78.4561 402.473 78.073 402.729 77.8175C402.984 77.5621 403.352 77.4343 403.831 77.4343C404.278 77.4343 404.613 77.5621 404.836 77.8175C405.092 78.073 405.22 78.4561 405.22 78.9671V83.2299H404.741C405.315 81.346 406.337 79.8931 407.806 78.8713C409.307 77.8494 411.095 77.3226 413.171 77.2906C413.554 77.2587 413.873 77.3385 414.129 77.5301C414.384 77.7217 414.512 78.0251 414.512 78.4402C414.544 78.8872 414.448 79.2385 414.224 79.4939C414.001 79.7174 413.634 79.8611 413.123 79.925L412.452 79.9729C410.185 80.1964 408.429 80.9468 407.183 82.2241C405.938 83.5014 405.315 85.2257 405.315 87.3971V99.8026C405.315 100.282 405.188 100.649 404.932 100.904C404.709 101.16 404.341 101.287 403.831 101.287ZM428.745 101.383C427.021 101.383 425.584 101.064 424.434 100.425C423.285 99.7866 422.423 98.8765 421.848 97.6951C421.273 96.4816 420.986 94.9968 420.986 93.2406V80.1166H417.441C417.026 80.1166 416.691 80.0208 416.435 79.8292C416.18 79.6057 416.052 79.3023 416.052 78.9192C416.052 78.5679 416.18 78.2965 416.435 78.1049C416.691 77.8814 417.026 77.7696 417.441 77.7696H420.986V71.7824C420.986 71.2715 421.113 70.9043 421.369 70.6807C421.624 70.4253 421.992 70.2976 422.471 70.2976C422.918 70.2976 423.269 70.4253 423.524 70.6807C423.78 70.9043 423.908 71.2715 423.908 71.7824V77.7696H430.374C430.821 77.7696 431.156 77.8814 431.38 78.1049C431.603 78.2965 431.715 78.5679 431.715 78.9192C431.715 79.3023 431.603 79.6057 431.38 79.8292C431.156 80.0208 430.821 80.1166 430.374 80.1166H423.908V92.8574C423.908 94.8052 424.307 96.2901 425.105 97.3119C425.903 98.3337 427.228 98.8446 429.08 98.8446C429.719 98.8446 430.246 98.7807 430.661 98.653C431.108 98.4934 431.475 98.4135 431.763 98.4135C431.986 98.4135 432.178 98.5093 432.338 98.7009C432.529 98.8925 432.625 99.1959 432.625 99.611C432.625 99.8664 432.561 100.122 432.433 100.377C432.338 100.633 432.146 100.792 431.859 100.856C431.507 100.984 431.028 101.096 430.422 101.192C429.815 101.319 429.256 101.383 428.745 101.383ZM454.797 101.383C452.658 101.383 450.998 100.713 449.816 99.3715C448.667 98.0303 448.092 96.1304 448.092 93.6716V68.4296C448.092 67.9186 448.219 67.5514 448.475 67.3279C448.73 67.0725 449.098 66.9447 449.577 66.9447C450.024 66.9447 450.375 67.0725 450.63 67.3279C450.886 67.5514 451.014 67.9186 451.014 68.4296V93.3364C451.014 95.1884 451.381 96.5774 452.115 97.5035C452.85 98.3976 453.919 98.8446 455.324 98.8446C455.644 98.8446 455.915 98.8286 456.139 98.7967C456.362 98.7648 456.586 98.7488 456.809 98.7488C457.097 98.7169 457.304 98.7807 457.432 98.9404C457.591 99.0681 457.671 99.3555 457.671 99.8026C457.671 100.25 457.56 100.585 457.336 100.808C457.112 101.032 456.745 101.192 456.234 101.287C456.011 101.319 455.771 101.335 455.516 101.335C455.292 101.367 455.053 101.383 454.797 101.383ZM471.623 101.383C469.228 101.383 467.168 100.904 465.444 99.9463C463.719 98.9883 462.394 97.6152 461.468 95.827C460.542 94.0389 460.079 91.9154 460.079 89.4567C460.079 87.0298 460.542 84.9223 461.468 83.1342C462.394 81.314 463.672 79.8931 465.3 78.8713C466.961 77.8494 468.861 77.3385 471 77.3385C472.565 77.3385 473.938 77.61 475.119 78.1528C476.333 78.6637 477.354 79.4141 478.185 80.404C479.047 81.3619 479.701 82.5434 480.148 83.9484C480.595 85.3215 480.819 86.8861 480.819 88.6424C480.819 89.0894 480.691 89.4247 480.436 89.6482C480.212 89.8718 479.893 89.9835 479.478 89.9835H462.187V87.8281H478.999L478.233 88.4508C478.233 86.5988 477.961 85.0341 477.418 83.7568C476.875 82.4476 476.061 81.4418 474.975 80.7393C473.922 80.0368 472.613 79.6855 471.048 79.6855C469.292 79.6855 467.807 80.1006 466.593 80.9309C465.38 81.7292 464.47 82.8468 463.863 84.2837C463.256 85.6887 462.953 87.3172 462.953 89.1693V89.4088C462.953 92.4742 463.704 94.8372 465.204 96.4976C466.705 98.1261 468.813 98.9404 471.527 98.9404C472.708 98.9404 473.842 98.7807 474.928 98.4614C476.045 98.1421 477.131 97.5993 478.185 96.8329C478.504 96.6094 478.807 96.4976 479.095 96.4976C479.414 96.4976 479.669 96.5774 479.861 96.7371C480.085 96.8968 480.228 97.1043 480.292 97.3598C480.388 97.5833 480.372 97.8388 480.244 98.1261C480.148 98.3816 479.941 98.6211 479.622 98.8446C478.6 99.6748 477.37 100.313 475.933 100.761C474.496 101.176 473.06 101.383 471.623 101.383ZM496.259 101.383C493.991 101.383 492.044 100.888 490.415 99.8984C488.786 98.8765 487.525 97.4556 486.631 95.6355C485.769 93.7834 485.338 91.644 485.338 89.2172C485.338 87.3651 485.577 85.7206 486.056 84.2837C486.567 82.8148 487.286 81.5695 488.212 80.5477C489.17 79.5259 490.319 78.7435 491.66 78.2007C493.033 77.6259 494.566 77.3385 496.259 77.3385C497.44 77.3385 498.653 77.5461 499.899 77.9612C501.144 78.3444 502.278 78.999 503.299 79.925C503.523 80.1166 503.667 80.3401 503.731 80.5956C503.794 80.851 503.778 81.1065 503.683 81.3619C503.587 81.5855 503.443 81.7771 503.252 81.9367C503.06 82.0644 502.82 82.1443 502.533 82.1762C502.278 82.1762 502.006 82.0485 501.719 81.793C500.825 81.0586 499.915 80.5636 498.989 80.3082C498.095 80.0208 497.216 79.8771 496.354 79.8771C495.045 79.8771 493.896 80.0847 492.906 80.4998C491.916 80.9149 491.07 81.5216 490.367 82.3199C489.697 83.1182 489.186 84.1081 488.834 85.2896C488.483 86.4391 488.307 87.7643 488.307 89.2651C488.307 92.2667 488.994 94.6296 490.367 96.3539C491.772 98.0463 493.768 98.8925 496.354 98.8925C497.216 98.8925 498.095 98.7648 498.989 98.5093C499.915 98.2219 500.825 97.711 501.719 96.9766C502.006 96.7211 502.278 96.6094 502.533 96.6413C502.82 96.6413 503.06 96.7211 503.252 96.8808C503.443 97.0085 503.571 97.2001 503.635 97.4556C503.731 97.6791 503.747 97.9186 503.683 98.174C503.619 98.4295 503.475 98.653 503.252 98.8446C502.262 99.7706 501.144 100.425 499.899 100.808C498.653 101.192 497.44 101.383 496.259 101.383ZM517.524 101.383C515.8 101.383 514.363 101.064 513.214 100.425C512.064 99.7866 511.202 98.8765 510.627 97.6951C510.052 96.4816 509.765 94.9968 509.765 93.2406V80.1166H506.22C505.805 80.1166 505.47 80.0208 505.215 79.8292C504.959 79.6057 504.831 79.3023 504.831 78.9192C504.831 78.5679 504.959 78.2965 505.215 78.1049C505.47 77.8814 505.805 77.7696 506.22 77.7696H509.765V71.7824C509.765 71.2715 509.893 70.9043 510.148 70.6807C510.404 70.4253 510.771 70.2976 511.25 70.2976C511.697 70.2976 512.048 70.4253 512.303 70.6807C512.559 70.9043 512.687 71.2715 512.687 71.7824V77.7696H519.153C519.6 77.7696 519.935 77.8814 520.159 78.1049C520.382 78.2965 520.494 78.5679 520.494 78.9192C520.494 79.3023 520.382 79.6057 520.159 79.8292C519.935 80.0208 519.6 80.1166 519.153 80.1166H512.687V92.8574C512.687 94.8052 513.086 96.2901 513.884 97.3119C514.682 98.3337 516.008 98.8446 517.86 98.8446C518.498 98.8446 519.025 98.7807 519.44 98.653C519.887 98.4934 520.255 98.4135 520.542 98.4135C520.765 98.4135 520.957 98.5093 521.117 98.7009C521.308 98.8925 521.404 99.1959 521.404 99.611C521.404 99.8664 521.34 100.122 521.212 100.377C521.117 100.633 520.925 100.792 520.638 100.856C520.286 100.984 519.807 101.096 519.201 101.192C518.594 101.319 518.035 101.383 517.524 101.383ZM532.993 101.383C531.141 101.383 529.593 101.048 528.347 100.377C527.134 99.7068 526.224 98.7009 525.617 97.3598C525.01 96.0186 524.707 94.3582 524.707 92.3784V78.9671C524.707 78.4561 524.835 78.073 525.09 77.8175C525.346 77.5621 525.713 77.4343 526.192 77.4343C526.639 77.4343 526.99 77.5621 527.246 77.8175C527.501 78.073 527.629 78.4561 527.629 78.9671V92.2347C527.629 94.4699 528.092 96.1464 529.018 97.264C529.944 98.3497 531.397 98.8925 533.377 98.8925C535.548 98.8925 537.304 98.174 538.645 96.7371C539.986 95.2682 540.657 93.3523 540.657 90.9894V78.9671C540.657 78.4561 540.785 78.073 541.04 77.8175C541.296 77.5621 541.663 77.4343 542.142 77.4343C542.589 77.4343 542.94 77.5621 543.196 77.8175C543.451 78.073 543.579 78.4561 543.579 78.9671V99.8026C543.579 100.792 543.116 101.287 542.19 101.287C541.743 101.287 541.391 101.16 541.136 100.904C540.881 100.649 540.753 100.282 540.753 99.8026V95.0607L541.328 95.396C540.721 97.3438 539.667 98.8286 538.166 99.8505C536.666 100.872 534.941 101.383 532.993 101.383ZM552.762 101.287C552.284 101.287 551.916 101.16 551.661 100.904C551.405 100.649 551.278 100.282 551.278 99.8026V78.9671C551.278 78.4561 551.405 78.073 551.661 77.8175C551.916 77.5621 552.284 77.4343 552.762 77.4343C553.21 77.4343 553.545 77.5621 553.768 77.8175C554.024 78.073 554.152 78.4561 554.152 78.9671V83.2299H553.673C554.247 81.346 555.269 79.8931 556.738 78.8713C558.239 77.8494 560.027 77.3226 562.103 77.2906C562.486 77.2587 562.805 77.3385 563.06 77.5301C563.316 77.7217 563.444 78.0251 563.444 78.4402C563.476 78.8872 563.38 79.2385 563.156 79.4939C562.933 79.7174 562.566 79.8611 562.055 79.925L561.384 79.9729C559.117 80.1964 557.361 80.9468 556.115 82.2241C554.87 83.5014 554.247 85.2257 554.247 87.3971V99.8026C554.247 100.282 554.12 100.649 553.864 100.904C553.641 101.16 553.273 101.287 552.762 101.287ZM577.475 101.383C575.08 101.383 573.02 100.904 571.296 99.9463C569.572 98.9883 568.246 97.6152 567.32 95.827C566.394 94.0389 565.931 91.9154 565.931 89.4567C565.931 87.0298 566.394 84.9223 567.32 83.1342C568.246 81.314 569.524 79.8931 571.152 78.8713C572.813 77.8494 574.713 77.3385 576.852 77.3385C578.417 77.3385 579.79 77.61 580.971 78.1528C582.185 78.6637 583.206 79.4141 584.037 80.404C584.899 81.3619 585.553 82.5434 586 83.9484C586.448 85.3215 586.671 86.8861 586.671 88.6424C586.671 89.0894 586.543 89.4247 586.288 89.6482C586.064 89.8718 585.745 89.9835 585.33 89.9835H568.039V87.8281H584.851L584.085 88.4508C584.085 86.5988 583.813 85.0341 583.27 83.7568C582.727 82.4476 581.913 81.4418 580.828 80.7393C579.774 80.0368 578.465 79.6855 576.9 79.6855C575.144 79.6855 573.659 80.1006 572.445 80.9309C571.232 81.7292 570.322 82.8468 569.715 84.2837C569.109 85.6887 568.805 87.3172 568.805 89.1693V89.4088C568.805 92.4742 569.556 94.8372 571.056 96.4976C572.557 98.1261 574.665 98.9404 577.379 98.9404C578.56 98.9404 579.694 98.7807 580.78 98.4614C581.897 98.1421 582.983 97.5993 584.037 96.8329C584.356 96.6094 584.659 96.4976 584.947 96.4976C585.266 96.4976 585.522 96.5774 585.713 96.7371C585.937 96.8968 586.08 97.1043 586.144 97.3598C586.24 97.5833 586.224 97.8388 586.096 98.1261C586 98.3816 585.793 98.6211 585.474 98.8446C584.452 99.6748 583.222 100.313 581.785 100.761C580.349 101.176 578.912 101.383 577.475 101.383ZM600.195 101.383C598.758 101.383 597.321 101.192 595.884 100.808C594.479 100.425 593.138 99.7706 591.86 98.8446C591.605 98.6849 591.429 98.4934 591.334 98.2698C591.27 98.0144 591.254 97.7589 591.286 97.5035C591.35 97.248 591.461 97.0405 591.621 96.8808C591.813 96.6892 592.036 96.5774 592.292 96.5455C592.547 96.5136 592.818 96.5934 593.106 96.785C594.351 97.6152 595.565 98.19 596.746 98.5093C597.928 98.8286 599.109 98.9883 600.29 98.9883C602.238 98.9883 603.723 98.6211 604.745 97.8866C605.767 97.1522 606.278 96.1623 606.278 94.917C606.278 93.8952 605.942 93.1128 605.272 92.57C604.633 91.9952 603.579 91.5322 602.111 91.181L597.943 90.223C595.932 89.776 594.447 89.0575 593.489 88.0676C592.531 87.0458 592.052 85.7366 592.052 84.14C592.052 82.7669 592.403 81.5695 593.106 80.5477C593.84 79.5259 594.862 78.7435 596.171 78.2007C597.512 77.6259 599.045 77.3385 600.769 77.3385C602.174 77.3385 603.516 77.5461 604.793 77.9612C606.07 78.3763 607.188 79.015 608.146 79.8771C608.401 80.0687 608.561 80.2922 608.625 80.5477C608.72 80.8031 608.72 81.0586 608.625 81.314C608.561 81.5376 608.433 81.7292 608.241 81.8888C608.05 82.0485 607.826 82.1283 607.571 82.1283C607.315 82.1283 607.044 82.0325 606.757 81.8409C605.831 81.1384 604.857 80.6275 603.835 80.3082C602.813 79.9569 601.775 79.7813 600.722 79.7813C598.869 79.7813 597.433 80.1645 596.411 80.9309C595.421 81.6972 594.926 82.735 594.926 84.0442C594.926 85.0341 595.229 85.8324 595.836 86.4391C596.475 87.0458 597.464 87.5088 598.806 87.8281L602.973 88.7861C605.048 89.2651 606.597 89.9835 607.619 90.9415C608.641 91.8675 609.152 93.1288 609.152 94.7254C609.152 96.769 608.337 98.3976 606.709 99.611C605.112 100.792 602.941 101.383 600.195 101.383ZM636.333 101.383C634.609 101.383 633.172 101.064 632.022 100.425C630.873 99.7866 630.011 98.8765 629.436 97.6951C628.861 96.4816 628.574 94.9968 628.574 93.2406V80.1166H625.029C624.614 80.1166 624.279 80.0208 624.023 79.8292C623.768 79.6057 623.64 79.3023 623.64 78.9192C623.64 78.5679 623.768 78.2965 624.023 78.1049C624.279 77.8814 624.614 77.7696 625.029 77.7696H628.574V71.7824C628.574 71.2715 628.701 70.9043 628.957 70.6807C629.212 70.4253 629.58 70.2976 630.059 70.2976C630.506 70.2976 630.857 70.4253 631.112 70.6807C631.368 70.9043 631.495 71.2715 631.495 71.7824V77.7696H637.962C638.409 77.7696 638.744 77.8814 638.967 78.1049C639.191 78.2965 639.303 78.5679 639.303 78.9192C639.303 79.3023 639.191 79.6057 638.967 79.8292C638.744 80.0208 638.409 80.1166 637.962 80.1166H631.495V92.8574C631.495 94.8052 631.895 96.2901 632.693 97.3119C633.491 98.3337 634.816 98.8446 636.668 98.8446C637.307 98.8446 637.834 98.7807 638.249 98.653C638.696 98.4934 639.063 98.4135 639.351 98.4135C639.574 98.4135 639.766 98.5093 639.925 98.7009C640.117 98.8925 640.213 99.1959 640.213 99.611C640.213 99.8664 640.149 100.122 640.021 100.377C639.925 100.633 639.734 100.792 639.446 100.856C639.095 100.984 638.616 101.096 638.01 101.192C637.403 101.319 636.844 101.383 636.333 101.383ZM652.622 101.383C650.451 101.383 648.567 100.888 646.97 99.8984C645.374 98.9085 644.128 97.5194 643.234 95.7313C642.372 93.9431 641.941 91.8196 641.941 89.3609C641.941 87.5407 642.18 85.8963 642.659 84.4274C643.17 82.9585 643.889 81.6972 644.815 80.6435C645.773 79.5578 646.906 78.7435 648.216 78.2007C649.557 77.6259 651.026 77.3385 652.622 77.3385C654.825 77.3385 656.725 77.8335 658.322 78.8234C659.919 79.8132 661.148 81.2182 662.01 83.0384C662.904 84.8265 663.351 86.934 663.351 89.3609C663.351 91.2129 663.096 92.8734 662.585 94.3422C662.106 95.8111 661.387 97.0724 660.429 98.1261C659.503 99.1799 658.386 99.9941 657.077 100.569C655.767 101.112 654.283 101.383 652.622 101.383ZM652.622 98.9404C654.219 98.9404 655.592 98.5732 656.741 97.8388C657.923 97.0724 658.817 95.9707 659.424 94.5338C660.062 93.0969 660.382 91.3726 660.382 89.3609C660.382 86.3273 659.679 83.9803 658.274 82.3199C656.901 80.6594 655.017 79.8292 652.622 79.8292C651.057 79.8292 649.684 80.2124 648.503 80.9788C647.353 81.7132 646.459 82.7989 645.821 84.2358C645.214 85.6408 644.911 87.3492 644.911 89.3609C644.911 92.4263 645.613 94.7893 647.018 96.4497C648.423 98.1102 650.291 98.9404 652.622 98.9404ZM692.704 101.383C690.533 101.383 688.681 100.824 687.148 99.7068C685.615 98.5891 684.578 97.0884 684.035 95.2044L684.562 94.917V99.8026C684.562 100.282 684.434 100.649 684.178 100.904C683.923 101.16 683.572 101.287 683.125 101.287C682.646 101.287 682.278 101.16 682.023 100.904C681.768 100.649 681.64 100.282 681.64 99.8026V68.4296C681.64 67.9186 681.768 67.5514 682.023 67.3279C682.278 67.0725 682.646 66.9447 683.125 66.9447C683.572 66.9447 683.923 67.0725 684.178 67.3279C684.434 67.5514 684.562 67.9186 684.562 68.4296V83.5173H684.035C684.578 81.6334 685.615 80.1326 687.148 79.015C688.681 77.8973 690.533 77.3385 692.704 77.3385C694.812 77.3385 696.632 77.8335 698.165 78.8234C699.697 79.8132 700.879 81.2023 701.709 82.9905C702.571 84.7786 703.002 86.9021 703.002 89.3609C703.002 91.8196 702.571 93.959 701.709 95.7791C700.879 97.5673 699.681 98.9564 698.117 99.9463C696.584 100.904 694.78 101.383 692.704 101.383ZM692.273 98.9404C693.838 98.9404 695.195 98.5732 696.344 97.8388C697.526 97.0724 698.436 95.9707 699.075 94.5338C699.713 93.0969 700.033 91.3726 700.033 89.3609C700.033 86.3273 699.33 83.9803 697.925 82.3199C696.52 80.6594 694.636 79.8292 692.273 79.8292C690.708 79.8292 689.335 80.2124 688.154 80.9788C687.004 81.7132 686.11 82.7989 685.472 84.2358C684.833 85.6408 684.514 87.3492 684.514 89.3609C684.514 92.4263 685.216 94.7893 686.621 96.4497C688.026 98.1102 689.91 98.9404 692.273 98.9404ZM713.795 109.909C713.412 109.909 713.109 109.797 712.885 109.574C712.662 109.382 712.534 109.111 712.502 108.759C712.502 108.44 712.566 108.105 712.694 107.754L715.999 100.234V101.575L706.611 79.6376C706.451 79.2544 706.387 78.9032 706.419 78.5839C706.483 78.2326 706.627 77.9612 706.85 77.7696C707.106 77.5461 707.457 77.4343 707.904 77.4343C708.319 77.4343 708.622 77.5301 708.814 77.7217C709.037 77.9133 709.229 78.2167 709.389 78.6318L717.915 99.2757H716.717L725.243 78.6318C725.434 78.1847 725.642 77.8814 725.866 77.7217C726.089 77.5301 726.408 77.4343 726.824 77.4343C727.239 77.4343 727.542 77.5461 727.734 77.7696C727.957 77.9612 728.085 78.2167 728.117 78.536C728.149 78.8553 728.085 79.2065 727.925 79.5897L715.424 108.759C715.232 109.206 715.009 109.51 714.753 109.669C714.53 109.829 714.21 109.909 713.795 109.909ZM742.372 101.383C740.648 101.383 739.211 101.064 738.061 100.425C736.912 99.7866 736.05 98.8765 735.475 97.6951C734.9 96.4816 734.613 94.9968 734.613 93.2406V80.1166H731.068C730.653 80.1166 730.318 80.0208 730.063 79.8292C729.807 79.6057 729.679 79.3023 729.679 78.9192C729.679 78.5679 729.807 78.2965 730.063 78.1049C730.318 77.8814 730.653 77.7696 731.068 77.7696H734.613V71.7824C734.613 71.2715 734.741 70.9043 734.996 70.6807C735.251 70.4253 735.619 70.2976 736.098 70.2976C736.545 70.2976 736.896 70.4253 737.151 70.6807C737.407 70.9043 737.535 71.2715 737.535 71.7824V77.7696H744.001C744.448 77.7696 744.783 77.8814 745.007 78.1049C745.23 78.2965 745.342 78.5679 745.342 78.9192C745.342 79.3023 745.23 79.6057 745.007 79.8292C744.783 80.0208 744.448 80.1166 744.001 80.1166H737.535V92.8574C737.535 94.8052 737.934 96.2901 738.732 97.3119C739.53 98.3337 740.856 98.8446 742.708 98.8446C743.346 98.8446 743.873 98.7807 744.288 98.653C744.735 98.4934 745.102 98.4135 745.39 98.4135C745.613 98.4135 745.805 98.5093 745.965 98.7009C746.156 98.8925 746.252 99.1959 746.252 99.611C746.252 99.8664 746.188 100.122 746.06 100.377C745.965 100.633 745.773 100.792 745.486 100.856C745.134 100.984 744.655 101.096 744.049 101.192C743.442 101.319 742.883 101.383 742.372 101.383ZM759.523 101.383C757.129 101.383 755.069 100.904 753.345 99.9463C751.62 98.9883 750.295 97.6152 749.369 95.827C748.443 94.0389 747.98 91.9154 747.98 89.4567C747.98 87.0298 748.443 84.9223 749.369 83.1342C750.295 81.314 751.572 79.8931 753.201 78.8713C754.861 77.8494 756.761 77.3385 758.901 77.3385C760.465 77.3385 761.838 77.61 763.02 78.1528C764.233 78.6637 765.255 79.4141 766.085 80.404C766.948 81.3619 767.602 82.5434 768.049 83.9484C768.496 85.3215 768.72 86.8861 768.72 88.6424C768.72 89.0894 768.592 89.4247 768.337 89.6482C768.113 89.8718 767.794 89.9835 767.379 89.9835H750.088V87.8281H766.9L766.133 88.4508C766.133 86.5988 765.862 85.0341 765.319 83.7568C764.776 82.4476 763.962 81.4418 762.876 80.7393C761.822 80.0368 760.513 79.6855 758.949 79.6855C757.192 79.6855 755.708 80.1006 754.494 80.9309C753.281 81.7292 752.371 82.8468 751.764 84.2837C751.157 85.6887 750.854 87.3172 750.854 89.1693V89.4088C750.854 92.4742 751.604 94.8372 753.105 96.4976C754.606 98.1261 756.713 98.9404 759.428 98.9404C760.609 98.9404 761.743 98.7807 762.828 98.4614C763.946 98.1421 765.032 97.5993 766.085 96.8329C766.405 96.6094 766.708 96.4976 766.995 96.4976C767.315 96.4976 767.57 96.5774 767.762 96.7371C767.985 96.8968 768.129 97.1043 768.193 97.3598C768.289 97.5833 768.273 97.8388 768.145 98.1261C768.049 98.3816 767.842 98.6211 767.522 98.8446C766.501 99.6748 765.271 100.313 763.834 100.761C762.397 101.176 760.96 101.383 759.523 101.383ZM775.909 89.5045C775.557 89.5045 775.254 89.3928 774.998 89.1693C774.743 88.9138 774.615 88.6105 774.615 88.2592C774.615 87.908 774.743 87.6206 774.998 87.3971C775.254 87.1416 775.557 87.0139 775.909 87.0139H786.973C787.324 87.0139 787.612 87.1416 787.835 87.3971C788.091 87.6206 788.218 87.908 788.218 88.2592C788.218 88.6105 788.091 88.9138 787.835 89.1693C787.612 89.3928 787.324 89.5045 786.973 89.5045H775.909ZM802.871 101.383C801.434 101.383 799.997 101.192 798.56 100.808C797.155 100.425 795.814 99.7706 794.537 98.8446C794.282 98.6849 794.106 98.4934 794.01 98.2698C793.946 98.0144 793.93 97.7589 793.962 97.5035C794.026 97.248 794.138 97.0405 794.298 96.8808C794.489 96.6892 794.713 96.5774 794.968 96.5455C795.224 96.5136 795.495 96.5934 795.782 96.785C797.028 97.6152 798.241 98.19 799.423 98.5093C800.604 98.8286 801.786 98.9883 802.967 98.9883C804.915 98.9883 806.4 98.6211 807.421 97.8866C808.443 97.1522 808.954 96.1623 808.954 94.917C808.954 93.8952 808.619 93.1128 807.948 92.57C807.31 91.9952 806.256 91.5322 804.787 91.181L800.62 90.223C798.608 89.776 797.123 89.0575 796.166 88.0676C795.208 87.0458 794.729 85.7366 794.729 84.14C794.729 82.7669 795.08 81.5695 795.782 80.5477C796.517 79.5259 797.539 78.7435 798.848 78.2007C800.189 77.6259 801.722 77.3385 803.446 77.3385C804.851 77.3385 806.192 77.5461 807.469 77.9612C808.747 78.3763 809.864 79.015 810.822 79.8771C811.078 80.0687 811.237 80.2922 811.301 80.5477C811.397 80.8031 811.397 81.0586 811.301 81.314C811.237 81.5376 811.11 81.7292 810.918 81.8888C810.726 82.0485 810.503 82.1283 810.247 82.1283C809.992 82.1283 809.721 82.0325 809.433 81.8409C808.507 81.1384 807.533 80.6275 806.511 80.3082C805.49 79.9569 804.452 79.7813 803.398 79.7813C801.546 79.7813 800.109 80.1645 799.087 80.9309C798.097 81.6972 797.602 82.735 797.602 84.0442C797.602 85.0341 797.906 85.8324 798.513 86.4391C799.151 87.0458 800.141 87.5088 801.482 87.8281L805.649 88.7861C807.725 89.2651 809.274 89.9835 810.295 90.9415C811.317 91.8675 811.828 93.1288 811.828 94.7254C811.828 96.769 811.014 98.3976 809.385 99.611C807.789 100.792 805.617 101.383 802.871 101.383ZM819.661 101.192C819.182 101.192 818.815 101.048 818.56 100.761C818.304 100.473 818.176 100.09 818.176 99.611V79.1107C818.176 78.5998 818.304 78.2167 818.56 77.9612C818.815 77.7057 819.182 77.578 819.661 77.578C820.108 77.578 820.46 77.7057 820.715 77.9612C820.97 78.2167 821.098 78.5998 821.098 79.1107V99.611C821.098 100.09 820.97 100.473 820.715 100.761C820.491 101.048 820.14 101.192 819.661 101.192ZM819.661 71.7824C818.991 71.7824 818.464 71.6068 818.081 71.2555C817.729 70.9043 817.554 70.4093 817.554 69.7707C817.554 69.1321 817.729 68.6531 818.081 68.3338C818.464 67.9825 818.991 67.8069 819.661 67.8069C820.332 67.8069 820.843 67.9825 821.194 68.3338C821.577 68.6531 821.769 69.1321 821.769 69.7707C821.769 70.4093 821.577 70.9043 821.194 71.2555C820.843 71.6068 820.332 71.7824 819.661 71.7824ZM828.842 101C828.523 101 828.252 100.936 828.028 100.808C827.836 100.649 827.693 100.457 827.597 100.234C827.533 99.9782 827.533 99.7068 827.597 99.4194C827.693 99.1001 827.868 98.7967 828.124 98.5093L842.158 79.3023V80.1166H828.651C828.236 80.1166 827.916 80.0208 827.693 79.8292C827.501 79.6057 827.405 79.3023 827.405 78.9192C827.405 78.5679 827.501 78.2965 827.693 78.1049C827.916 77.8814 828.236 77.7696 828.651 77.7696H843.595C843.978 77.7696 844.281 77.8494 844.505 78.0091C844.76 78.1368 844.92 78.3125 844.984 78.536C845.08 78.7595 845.096 79.015 845.032 79.3023C844.968 79.5897 844.824 79.8771 844.601 80.1645L830.375 99.5152V98.653H844.505C845.335 98.653 845.75 99.0362 845.75 99.8026C845.75 100.186 845.638 100.489 845.415 100.713C845.191 100.904 844.888 101 844.505 101H828.842ZM860.417 101.383C858.022 101.383 855.963 100.904 854.238 99.9463C852.514 98.9883 851.189 97.6152 850.263 95.827C849.337 94.0389 848.874 91.9154 848.874 89.4567C848.874 87.0298 849.337 84.9223 850.263 83.1342C851.189 81.314 852.466 79.8931 854.095 78.8713C855.755 77.8494 857.655 77.3385 859.795 77.3385C861.359 77.3385 862.732 77.61 863.914 78.1528C865.127 78.6637 866.149 79.4141 866.979 80.404C867.841 81.3619 868.496 82.5434 868.943 83.9484C869.39 85.3215 869.614 86.8861 869.614 88.6424C869.614 89.0894 869.486 89.4247 869.23 89.6482C869.007 89.8718 868.688 89.9835 868.273 89.9835H850.981V87.8281H867.794L867.027 88.4508C867.027 86.5988 866.756 85.0341 866.213 83.7568C865.67 82.4476 864.856 81.4418 863.77 80.7393C862.716 80.0368 861.407 79.6855 859.843 79.6855C858.086 79.6855 856.601 80.1006 855.388 80.9309C854.175 81.7292 853.265 82.8468 852.658 84.2837C852.051 85.6887 851.748 87.3172 851.748 89.1693V89.4088C851.748 92.4742 852.498 94.8372 853.999 96.4976C855.5 98.1261 857.607 98.9404 860.322 98.9404C861.503 98.9404 862.637 98.7807 863.722 98.4614C864.84 98.1421 865.926 97.5993 866.979 96.8329C867.299 96.6094 867.602 96.4976 867.889 96.4976C868.209 96.4976 868.464 96.5774 868.656 96.7371C868.879 96.8968 869.023 97.1043 869.087 97.3598C869.183 97.5833 869.167 97.8388 869.039 98.1261C868.943 98.3816 868.736 98.6211 868.416 98.8446C867.394 99.6748 866.165 100.313 864.728 100.761C863.291 101.176 861.854 101.383 860.417 101.383ZM884.431 101.383C882.355 101.383 880.535 100.904 878.97 99.9463C877.437 98.9564 876.24 97.5673 875.378 95.7791C874.548 93.959 874.132 91.8196 874.132 89.3609C874.132 86.9021 874.548 84.7786 875.378 82.9905C876.208 81.2023 877.39 79.8132 878.922 78.8234C880.487 77.8335 882.323 77.3385 884.431 77.3385C886.602 77.3385 888.454 77.8973 889.987 79.015C891.519 80.1326 892.541 81.6334 893.052 83.5173H892.525V68.4296C892.525 67.9186 892.653 67.5514 892.908 67.3279C893.164 67.0725 893.515 66.9447 893.962 66.9447C894.441 66.9447 894.808 67.0725 895.064 67.3279C895.319 67.5514 895.447 67.9186 895.447 68.4296V99.8026C895.447 100.282 895.319 100.649 895.064 100.904C894.808 101.16 894.457 101.287 894.01 101.287C893.531 101.287 893.164 101.16 892.908 100.904C892.653 100.649 892.525 100.282 892.525 99.8026V94.8691L893.052 95.2044C892.541 97.0884 891.519 98.5891 889.987 99.7068C888.454 100.824 886.602 101.383 884.431 101.383ZM884.814 98.9404C886.41 98.9404 887.783 98.5732 888.933 97.8388C890.114 97.0724 891.008 95.9707 891.615 94.5338C892.254 93.0969 892.573 91.3726 892.573 89.3609C892.573 86.3273 891.871 83.9803 890.466 82.3199C889.093 80.6594 887.209 79.8292 884.814 79.8292C883.249 79.8292 881.876 80.2124 880.694 80.9788C879.545 81.7132 878.651 82.7989 878.012 84.2358C877.406 85.6408 877.102 87.3492 877.102 89.3609C877.102 92.4263 877.805 94.7893 879.21 96.4497C880.615 98.1102 882.483 98.9404 884.814 98.9404ZM904.844 105.311C904.557 105.662 904.27 105.854 903.982 105.886C903.695 105.949 903.439 105.902 903.216 105.742C903.024 105.582 902.912 105.359 902.88 105.071C902.88 104.784 903.024 104.449 903.312 104.065C903.727 103.491 904.03 102.884 904.222 102.245C904.413 101.607 904.509 101.016 904.509 100.473L904.701 101.144C903.998 101.144 903.423 100.936 902.976 100.521C902.561 100.106 902.354 99.579 902.354 98.9404C902.354 98.3018 902.545 97.7749 902.928 97.3598C903.312 96.9447 903.838 96.7371 904.509 96.7371C905.18 96.7371 905.706 96.9766 906.09 97.4556C906.505 97.9026 906.712 98.5891 906.712 99.5152C906.712 100.09 906.648 100.713 906.521 101.383C906.425 102.086 906.233 102.772 905.946 103.443C905.659 104.113 905.291 104.736 904.844 105.311ZM935.772 101.383C933.377 101.383 931.318 100.904 929.593 99.9463C927.869 98.9883 926.544 97.6152 925.618 95.827C924.692 94.0389 924.229 91.9154 924.229 89.4567C924.229 87.0298 924.692 84.9223 925.618 83.1342C926.544 81.314 927.821 79.8931 929.45 78.8713C931.11 77.8494 933.01 77.3385 935.149 77.3385C936.714 77.3385 938.087 77.61 939.269 78.1528C940.482 78.6637 941.504 79.4141 942.334 80.404C943.196 81.3619 943.851 82.5434 944.298 83.9484C944.745 85.3215 944.968 86.8861 944.968 88.6424C944.968 89.0894 944.841 89.4247 944.585 89.6482C944.362 89.8718 944.042 89.9835 943.627 89.9835H926.336V87.8281H943.148L942.382 88.4508C942.382 86.5988 942.11 85.0341 941.568 83.7568C941.025 82.4476 940.211 81.4418 939.125 80.7393C938.071 80.0368 936.762 79.6855 935.197 79.6855C933.441 79.6855 931.956 80.1006 930.743 80.9309C929.529 81.7292 928.619 82.8468 928.013 84.2837C927.406 85.6887 927.103 87.3172 927.103 89.1693V89.4088C927.103 92.4742 927.853 94.8372 929.354 96.4976C930.855 98.1261 932.962 98.9404 935.676 98.9404C936.858 98.9404 937.991 98.7807 939.077 98.4614C940.195 98.1421 941.28 97.5993 942.334 96.8329C942.653 96.6094 942.957 96.4976 943.244 96.4976C943.563 96.4976 943.819 96.5774 944.01 96.7371C944.234 96.8968 944.378 97.1043 944.442 97.3598C944.537 97.5833 944.521 97.8388 944.394 98.1261C944.298 98.3816 944.09 98.6211 943.771 98.8446C942.749 99.6748 941.52 100.313 940.083 100.761C938.646 101.176 937.209 101.383 935.772 101.383ZM958.109 101.383C956.544 101.383 955.139 101.08 953.894 100.473C952.68 99.8664 951.706 99.0362 950.972 97.9824C950.27 96.9287 949.918 95.7472 949.918 94.438C949.918 92.7137 950.349 91.3566 951.212 90.3667C952.074 89.3768 953.527 88.6903 955.57 88.3071C957.614 87.892 960.424 87.6844 964 87.6844H966.06V89.8398H964.048C961.174 89.8398 958.923 89.9676 957.295 90.223C955.698 90.4465 954.58 90.8776 953.942 91.5163C953.303 92.1549 952.984 93.049 952.984 94.1985C952.984 95.6355 953.479 96.801 954.469 97.6951C955.458 98.5891 956.8 99.0362 958.492 99.0362C959.865 99.0362 961.063 98.7169 962.084 98.0782C963.138 97.4077 963.968 96.4976 964.575 95.3481C965.182 94.1985 965.485 92.8893 965.485 91.4205V85.9601C965.485 83.8207 965.054 82.272 964.192 81.314C963.33 80.3242 961.957 79.8292 960.073 79.8292C958.859 79.8292 957.678 79.9889 956.528 80.3082C955.411 80.6275 954.213 81.1384 952.936 81.8409C952.585 82.0325 952.265 82.0964 951.978 82.0325C951.722 81.9686 951.515 81.8409 951.355 81.6493C951.228 81.4577 951.132 81.2342 951.068 80.9788C951.036 80.6914 951.084 80.42 951.212 80.1645C951.339 79.909 951.563 79.7015 951.882 79.5418C953.223 78.8074 954.58 78.2646 955.953 77.9133C957.358 77.5301 958.716 77.3385 960.025 77.3385C961.909 77.3385 963.457 77.6578 964.671 78.2965C965.916 78.9351 966.826 79.8931 967.401 81.1703C968.008 82.4476 968.311 84.0921 968.311 86.1038V99.8026C968.311 100.282 968.199 100.649 967.976 100.904C967.752 101.16 967.417 101.287 966.97 101.287C966.523 101.287 966.172 101.16 965.916 100.904C965.661 100.649 965.533 100.282 965.533 99.8026V95.396H966.012C965.725 96.6413 965.214 97.711 964.479 98.6051C963.745 99.4992 962.835 100.186 961.749 100.665C960.663 101.144 959.45 101.383 958.109 101.383ZM983.517 101.383C982.08 101.383 980.643 101.192 979.206 100.808C977.801 100.425 976.46 99.7706 975.182 98.8446C974.927 98.6849 974.751 98.4934 974.656 98.2698C974.592 98.0144 974.576 97.7589 974.608 97.5035C974.672 97.248 974.783 97.0405 974.943 96.8808C975.135 96.6892 975.358 96.5774 975.614 96.5455C975.869 96.5136 976.14 96.5934 976.428 96.785C977.673 97.6152 978.887 98.19 980.068 98.5093C981.25 98.8286 982.431 98.9883 983.612 98.9883C985.56 98.9883 987.045 98.6211 988.067 97.8866C989.089 97.1522 989.6 96.1623 989.6 94.917C989.6 93.8952 989.264 93.1128 988.594 92.57C987.955 91.9952 986.901 91.5322 985.433 91.181L981.265 90.223C979.254 89.776 977.769 89.0575 976.811 88.0676C975.853 87.0458 975.374 85.7366 975.374 84.14C975.374 82.7669 975.725 81.5695 976.428 80.5477C977.162 79.5259 978.184 78.7435 979.493 78.2007C980.834 77.6259 982.367 77.3385 984.091 77.3385C985.496 77.3385 986.838 77.5461 988.115 77.9612C989.392 78.3763 990.51 79.015 991.468 79.8771C991.723 80.0687 991.883 80.2922 991.947 80.5477C992.042 80.8031 992.042 81.0586 991.947 81.314C991.883 81.5376 991.755 81.7292 991.563 81.8888C991.372 82.0485 991.148 82.1283 990.893 82.1283C990.637 82.1283 990.366 82.0325 990.079 81.8409C989.153 81.1384 988.179 80.6275 987.157 80.3082C986.135 79.9569 985.097 79.7813 984.044 79.7813C982.191 79.7813 980.755 80.1645 979.733 80.9309C978.743 81.6972 978.248 82.735 978.248 84.0442C978.248 85.0341 978.551 85.8324 979.158 86.4391C979.797 87.0458 980.786 87.5088 982.128 87.8281L986.295 88.7861C988.37 89.2651 989.919 89.9835 990.941 90.9415C991.963 91.8675 992.474 93.1288 992.474 94.7254C992.474 96.769 991.659 98.3976 990.031 99.611C988.434 100.792 986.263 101.383 983.517 101.383ZM1003.24 109.909C1002.86 109.909 1002.55 109.797 1002.33 109.574C1002.11 109.382 1001.98 109.111 1001.95 108.759C1001.95 108.44 1002.01 108.105 1002.14 107.754L1005.44 100.234V101.575L996.055 79.6376C995.895 79.2544 995.831 78.9032 995.863 78.5839C995.927 78.2326 996.071 77.9612 996.294 77.7696C996.55 77.5461 996.901 77.4343 997.348 77.4343C997.763 77.4343 998.067 77.5301 998.258 77.7217C998.482 77.9133 998.673 78.2167 998.833 78.6318L1007.36 99.2757H1006.16L1014.69 78.6318C1014.88 78.1847 1015.09 77.8814 1015.31 77.7217C1015.53 77.5301 1015.85 77.4343 1016.27 77.4343C1016.68 77.4343 1016.99 77.5461 1017.18 77.7696C1017.4 77.9612 1017.53 78.2167 1017.56 78.536C1017.59 78.8553 1017.53 79.2065 1017.37 79.5897L1004.87 108.759C1004.68 109.206 1004.45 109.51 1004.2 109.669C1003.97 109.829 1003.65 109.909 1003.24 109.909ZM1043.56 101.383C1041.83 101.383 1040.4 101.064 1039.25 100.425C1038.1 99.7866 1037.23 98.8765 1036.66 97.6951C1036.09 96.4816 1035.8 94.9968 1035.8 93.2406V80.1166H1032.25C1031.84 80.1166 1031.5 80.0208 1031.25 79.8292C1030.99 79.6057 1030.86 79.3023 1030.86 78.9192C1030.86 78.5679 1030.99 78.2965 1031.25 78.1049C1031.5 77.8814 1031.84 77.7696 1032.25 77.7696H1035.8V71.7824C1035.8 71.2715 1035.93 70.9043 1036.18 70.6807C1036.44 70.4253 1036.8 70.2976 1037.28 70.2976C1037.73 70.2976 1038.08 70.4253 1038.34 70.6807C1038.59 70.9043 1038.72 71.2715 1038.72 71.7824V77.7696H1045.19C1045.63 77.7696 1045.97 77.8814 1046.19 78.1049C1046.42 78.2965 1046.53 78.5679 1046.53 78.9192C1046.53 79.3023 1046.42 79.6057 1046.19 79.8292C1045.97 80.0208 1045.63 80.1166 1045.19 80.1166H1038.72V92.8574C1038.72 94.8052 1039.12 96.2901 1039.92 97.3119C1040.72 98.3337 1042.04 98.8446 1043.89 98.8446C1044.53 98.8446 1045.06 98.7807 1045.47 98.653C1045.92 98.4934 1046.29 98.4135 1046.57 98.4135C1046.8 98.4135 1046.99 98.5093 1047.15 98.7009C1047.34 98.8925 1047.44 99.1959 1047.44 99.611C1047.44 99.8664 1047.37 100.122 1047.25 100.377C1047.15 100.633 1046.96 100.792 1046.67 100.856C1046.32 100.984 1045.84 101.096 1045.23 101.192C1044.63 101.319 1044.07 101.383 1043.56 101.383ZM1059.85 101.383C1057.67 101.383 1055.79 100.888 1054.19 99.8984C1052.6 98.9085 1051.35 97.5194 1050.46 95.7313C1049.6 93.9431 1049.16 91.8196 1049.16 89.3609C1049.16 87.5407 1049.4 85.8963 1049.88 84.4274C1050.39 82.9585 1051.11 81.6972 1052.04 80.6435C1053 79.5578 1054.13 78.7435 1055.44 78.2007C1056.78 77.6259 1058.25 77.3385 1059.85 77.3385C1062.05 77.3385 1063.95 77.8335 1065.55 78.8234C1067.14 79.8132 1068.37 81.2182 1069.23 83.0384C1070.13 84.8265 1070.58 86.934 1070.58 89.3609C1070.58 91.2129 1070.32 92.8734 1069.81 94.3422C1069.33 95.8111 1068.61 97.0724 1067.65 98.1261C1066.73 99.1799 1065.61 99.9941 1064.3 100.569C1062.99 101.112 1061.51 101.383 1059.85 101.383ZM1059.85 98.9404C1061.44 98.9404 1062.82 98.5732 1063.97 97.8388C1065.15 97.0724 1066.04 95.9707 1066.65 94.5338C1067.29 93.0969 1067.61 91.3726 1067.61 89.3609C1067.61 86.3273 1066.9 83.9803 1065.5 82.3199C1064.13 80.6594 1062.24 79.8292 1059.85 79.8292C1058.28 79.8292 1056.91 80.2124 1055.73 80.9788C1054.58 81.7132 1053.68 82.7989 1053.04 84.2358C1052.44 85.6408 1052.13 87.3492 1052.13 89.3609C1052.13 92.4263 1052.84 94.7893 1054.24 96.4497C1055.65 98.1102 1057.52 98.9404 1059.85 98.9404ZM1090.35 101.287C1089.87 101.287 1089.5 101.16 1089.25 100.904C1088.99 100.649 1088.86 100.282 1088.86 99.8026V78.9671C1088.86 78.4561 1088.99 78.073 1089.25 77.8175C1089.5 77.5621 1089.87 77.4343 1090.35 77.4343C1090.8 77.4343 1091.13 77.5621 1091.35 77.8175C1091.61 78.073 1091.74 78.4561 1091.74 78.9671V83.2299H1091.26C1091.83 81.346 1092.86 79.8931 1094.32 78.8713C1095.83 77.8494 1097.61 77.3226 1099.69 77.2906C1100.07 77.2587 1100.39 77.3385 1100.65 77.5301C1100.9 77.7217 1101.03 78.0251 1101.03 78.4402C1101.06 78.8872 1100.97 79.2385 1100.74 79.4939C1100.52 79.7174 1100.15 79.8611 1099.64 79.925L1098.97 79.9729C1096.7 80.1964 1094.95 80.9468 1093.7 82.2241C1092.46 83.5014 1091.83 85.2257 1091.83 87.3971V99.8026C1091.83 100.282 1091.71 100.649 1091.45 100.904C1091.23 101.16 1090.86 101.287 1090.35 101.287ZM1115.06 101.383C1112.67 101.383 1110.61 100.904 1108.88 99.9463C1107.16 98.9883 1105.83 97.6152 1104.91 95.827C1103.98 94.0389 1103.52 91.9154 1103.52 89.4567C1103.52 87.0298 1103.98 84.9223 1104.91 83.1342C1105.83 81.314 1107.11 79.8931 1108.74 78.8713C1110.4 77.8494 1112.3 77.3385 1114.44 77.3385C1116 77.3385 1117.38 77.61 1118.56 78.1528C1119.77 78.6637 1120.79 79.4141 1121.62 80.404C1122.49 81.3619 1123.14 82.5434 1123.59 83.9484C1124.03 85.3215 1124.26 86.8861 1124.26 88.6424C1124.26 89.0894 1124.13 89.4247 1123.87 89.6482C1123.65 89.8718 1123.33 89.9835 1122.92 89.9835H1105.63V87.8281H1122.44L1121.67 88.4508C1121.67 86.5988 1121.4 85.0341 1120.86 83.7568C1120.31 82.4476 1119.5 81.4418 1118.41 80.7393C1117.36 80.0368 1116.05 79.6855 1114.49 79.6855C1112.73 79.6855 1111.25 80.1006 1110.03 80.9309C1108.82 81.7292 1107.91 82.8468 1107.3 84.2837C1106.69 85.6887 1106.39 87.3172 1106.39 89.1693V89.4088C1106.39 92.4742 1107.14 94.8372 1108.64 96.4976C1110.14 98.1261 1112.25 98.9404 1114.97 98.9404C1116.15 98.9404 1117.28 98.7807 1118.37 98.4614C1119.48 98.1421 1120.57 97.5993 1121.62 96.8329C1121.94 96.6094 1122.25 96.4976 1122.53 96.4976C1122.85 96.4976 1123.11 96.5774 1123.3 96.7371C1123.52 96.8968 1123.67 97.1043 1123.73 97.3598C1123.83 97.5833 1123.81 97.8388 1123.68 98.1261C1123.59 98.3816 1123.38 98.6211 1123.06 98.8446C1122.04 99.6748 1120.81 100.313 1119.37 100.761C1117.93 101.176 1116.5 101.383 1115.06 101.383ZM1137.4 101.383C1135.83 101.383 1134.43 101.08 1133.18 100.473C1131.97 99.8664 1131 99.0362 1130.26 97.9824C1129.56 96.9287 1129.21 95.7472 1129.21 94.438C1129.21 92.7137 1129.64 91.3566 1130.5 90.3667C1131.36 89.3768 1132.82 88.6903 1134.86 88.3071C1136.9 87.892 1139.71 87.6844 1143.29 87.6844H1145.35V89.8398H1143.34C1140.46 89.8398 1138.21 89.9676 1136.58 90.223C1134.99 90.4465 1133.87 90.8776 1133.23 91.5163C1132.59 92.1549 1132.27 93.049 1132.27 94.1985C1132.27 95.6355 1132.77 96.801 1133.76 97.6951C1134.75 98.5891 1136.09 99.0362 1137.78 99.0362C1139.15 99.0362 1140.35 98.7169 1141.37 98.0782C1142.43 97.4077 1143.26 96.4976 1143.86 95.3481C1144.47 94.1985 1144.77 92.8893 1144.77 91.4205V85.9601C1144.77 83.8207 1144.34 82.272 1143.48 81.314C1142.62 80.3242 1141.25 79.8292 1139.36 79.8292C1138.15 79.8292 1136.97 79.9889 1135.82 80.3082C1134.7 80.6275 1133.5 81.1384 1132.22 81.8409C1131.87 82.0325 1131.55 82.0964 1131.27 82.0325C1131.01 81.9686 1130.8 81.8409 1130.64 81.6493C1130.52 81.4577 1130.42 81.2342 1130.36 80.9788C1130.32 80.6914 1130.37 80.42 1130.5 80.1645C1130.63 79.909 1130.85 79.7015 1131.17 79.5418C1132.51 78.8074 1133.87 78.2646 1135.24 77.9133C1136.65 77.5301 1138 77.3385 1139.31 77.3385C1141.2 77.3385 1142.75 77.6578 1143.96 78.2965C1145.21 78.9351 1146.12 79.8931 1146.69 81.1703C1147.3 82.4476 1147.6 84.0921 1147.6 86.1038V99.8026C1147.6 100.282 1147.49 100.649 1147.26 100.904C1147.04 101.16 1146.71 101.287 1146.26 101.287C1145.81 101.287 1145.46 101.16 1145.21 100.904C1144.95 100.649 1144.82 100.282 1144.82 99.8026V95.396H1145.3C1145.01 96.6413 1144.5 97.711 1143.77 98.6051C1143.03 99.4992 1142.12 100.186 1141.04 100.665C1139.95 101.144 1138.74 101.383 1137.4 101.383ZM1164.1 101.383C1162.02 101.383 1160.2 100.904 1158.64 99.9463C1157.11 98.9564 1155.91 97.5673 1155.05 95.7791C1154.22 93.959 1153.8 91.8196 1153.8 89.3609C1153.8 86.9021 1154.22 84.7786 1155.05 82.9905C1155.88 81.2023 1157.06 79.8132 1158.59 78.8234C1160.16 77.8335 1161.99 77.3385 1164.1 77.3385C1166.27 77.3385 1168.12 77.8973 1169.66 79.015C1171.19 80.1326 1172.21 81.6334 1172.72 83.5173H1172.19V68.4296C1172.19 67.9186 1172.32 67.5514 1172.58 67.3279C1172.83 67.0725 1173.18 66.9447 1173.63 66.9447C1174.11 66.9447 1174.48 67.0725 1174.73 67.3279C1174.99 67.5514 1175.12 67.9186 1175.12 68.4296V99.8026C1175.12 100.282 1174.99 100.649 1174.73 100.904C1174.48 101.16 1174.13 101.287 1173.68 101.287C1173.2 101.287 1172.83 101.16 1172.58 100.904C1172.32 100.649 1172.19 100.282 1172.19 99.8026V94.8691L1172.72 95.2044C1172.21 97.0884 1171.19 98.5891 1169.66 99.7068C1168.12 100.824 1166.27 101.383 1164.1 101.383ZM1164.48 98.9404C1166.08 98.9404 1167.45 98.5732 1168.6 97.8388C1169.78 97.0724 1170.68 95.9707 1171.28 94.5338C1171.92 93.0969 1172.24 91.3726 1172.24 89.3609C1172.24 86.3273 1171.54 83.9803 1170.13 82.3199C1168.76 80.6594 1166.88 79.8292 1164.48 79.8292C1162.92 79.8292 1161.54 80.2124 1160.36 80.9788C1159.21 81.7132 1158.32 82.7989 1157.68 84.2358C1157.07 85.6408 1156.77 87.3492 1156.77 89.3609C1156.77 92.4263 1157.47 94.7893 1158.88 96.4497C1160.28 98.1102 1162.15 98.9404 1164.48 98.9404ZM271.317 166.287C270.838 166.287 270.47 166.16 270.215 165.904C269.96 165.649 269.832 165.282 269.832 164.803V143.967C269.832 143.456 269.96 143.073 270.215 142.818C270.47 142.562 270.838 142.434 271.317 142.434C271.764 142.434 272.099 142.562 272.322 142.818C272.578 143.073 272.706 143.456 272.706 143.967V148.469L272.179 148.182C272.817 146.266 273.903 144.813 275.436 143.823C277.001 142.833 278.789 142.339 280.8 142.339C282.652 142.339 284.185 142.674 285.399 143.344C286.644 143.983 287.57 144.973 288.177 146.314C288.783 147.655 289.087 149.332 289.087 151.343V164.803C289.087 165.282 288.959 165.649 288.704 165.904C288.448 166.16 288.097 166.287 287.65 166.287C287.171 166.287 286.804 166.16 286.548 165.904C286.293 165.649 286.165 165.282 286.165 164.803V151.583C286.165 149.252 285.702 147.559 284.776 146.506C283.85 145.42 282.381 144.877 280.369 144.877C278.07 144.877 276.218 145.596 274.813 147.033C273.44 148.438 272.754 150.337 272.754 152.732V164.803C272.754 165.792 272.275 166.287 271.317 166.287ZM305.878 166.383C303.707 166.383 301.823 165.888 300.226 164.898C298.63 163.908 297.384 162.519 296.49 160.731C295.628 158.943 295.197 156.82 295.197 154.361C295.197 152.541 295.437 150.896 295.915 149.427C296.426 147.959 297.145 146.697 298.071 145.643C299.029 144.558 300.162 143.744 301.472 143.201C302.813 142.626 304.282 142.339 305.878 142.339C308.082 142.339 309.981 142.833 311.578 143.823C313.175 144.813 314.404 146.218 315.266 148.038C316.16 149.827 316.607 151.934 316.607 154.361C316.607 156.213 316.352 157.873 315.841 159.342C315.362 160.811 314.643 162.072 313.686 163.126C312.76 164.18 311.642 164.994 310.333 165.569C309.023 166.112 307.539 166.383 305.878 166.383ZM305.878 163.94C307.475 163.94 308.848 163.573 309.997 162.839C311.179 162.072 312.073 160.971 312.68 159.534C313.318 158.097 313.638 156.373 313.638 154.361C313.638 151.327 312.935 148.98 311.53 147.32C310.157 145.659 308.273 144.829 305.878 144.829C304.314 144.829 302.94 145.212 301.759 145.979C300.609 146.713 299.715 147.799 299.077 149.236C298.47 150.641 298.167 152.349 298.167 154.361C298.167 157.426 298.869 159.789 300.274 161.45C301.679 163.11 303.547 163.94 305.878 163.94ZM331.359 166.383C329.635 166.383 328.198 166.064 327.049 165.425C325.899 164.787 325.037 163.877 324.462 162.695C323.887 161.482 323.6 159.997 323.6 158.241V145.117H320.056C319.64 145.117 319.305 145.021 319.05 144.829C318.794 144.606 318.667 144.302 318.667 143.919C318.667 143.568 318.794 143.296 319.05 143.105C319.305 142.881 319.64 142.77 320.056 142.77H323.6V136.782C323.6 136.271 323.728 135.904 323.983 135.681C324.239 135.425 324.606 135.298 325.085 135.298C325.532 135.298 325.883 135.425 326.139 135.681C326.394 135.904 326.522 136.271 326.522 136.782V142.77H332.988C333.435 142.77 333.77 142.881 333.994 143.105C334.217 143.296 334.329 143.568 334.329 143.919C334.329 144.302 334.217 144.606 333.994 144.829C333.77 145.021 333.435 145.117 332.988 145.117H326.522V157.857C326.522 159.805 326.921 161.29 327.719 162.312C328.517 163.334 329.843 163.845 331.695 163.845C332.333 163.845 332.86 163.781 333.275 163.653C333.722 163.493 334.09 163.414 334.377 163.414C334.6 163.414 334.792 163.509 334.952 163.701C335.143 163.893 335.239 164.196 335.239 164.611C335.239 164.866 335.175 165.122 335.048 165.377C334.952 165.633 334.76 165.792 334.473 165.856C334.122 165.984 333.643 166.096 333.036 166.192C332.429 166.319 331.87 166.383 331.359 166.383ZM348.511 166.383C346.116 166.383 344.056 165.904 342.332 164.946C340.607 163.988 339.282 162.615 338.356 160.827C337.43 159.039 336.967 156.915 336.967 154.457C336.967 152.03 337.43 149.922 338.356 148.134C339.282 146.314 340.56 144.893 342.188 143.871C343.848 142.849 345.748 142.339 347.888 142.339C349.453 142.339 350.826 142.61 352.007 143.153C353.22 143.664 354.242 144.414 355.073 145.404C355.935 146.362 356.589 147.543 357.036 148.948C357.483 150.321 357.707 151.886 357.707 153.642C357.707 154.089 357.579 154.425 357.324 154.648C357.1 154.872 356.781 154.984 356.366 154.984H339.075V152.828H355.887L355.12 153.451C355.12 151.599 354.849 150.034 354.306 148.757C353.763 147.448 352.949 146.442 351.863 145.739C350.81 145.037 349.5 144.686 347.936 144.686C346.18 144.686 344.695 145.101 343.481 145.931C342.268 146.729 341.358 147.847 340.751 149.284C340.144 150.689 339.841 152.317 339.841 154.169V154.409C339.841 157.474 340.591 159.837 342.092 161.498C343.593 163.126 345.701 163.94 348.415 163.94C349.596 163.94 350.73 163.781 351.815 163.461C352.933 163.142 354.019 162.599 355.073 161.833C355.392 161.609 355.695 161.498 355.983 161.498C356.302 161.498 356.557 161.577 356.749 161.737C356.972 161.897 357.116 162.104 357.18 162.36C357.276 162.583 357.26 162.839 357.132 163.126C357.036 163.382 356.829 163.621 356.509 163.845C355.488 164.675 354.258 165.313 352.821 165.761C351.384 166.176 349.947 166.383 348.511 166.383ZM371.231 166.383C369.794 166.383 368.357 166.192 366.92 165.808C365.515 165.425 364.174 164.771 362.896 163.845C362.641 163.685 362.465 163.493 362.369 163.27C362.306 163.014 362.29 162.759 362.322 162.503C362.385 162.248 362.497 162.04 362.657 161.881C362.848 161.689 363.072 161.577 363.327 161.546C363.583 161.514 363.854 161.593 364.142 161.785C365.387 162.615 366.6 163.19 367.782 163.509C368.963 163.829 370.145 163.988 371.326 163.988C373.274 163.988 374.759 163.621 375.781 162.887C376.803 162.152 377.314 161.162 377.314 159.917C377.314 158.895 376.978 158.113 376.308 157.57C375.669 156.995 374.615 156.532 373.146 156.181L368.979 155.223C366.968 154.776 365.483 154.058 364.525 153.068C363.567 152.046 363.088 150.737 363.088 149.14C363.088 147.767 363.439 146.569 364.142 145.548C364.876 144.526 365.898 143.744 367.207 143.201C368.548 142.626 370.081 142.339 371.805 142.339C373.21 142.339 374.551 142.546 375.829 142.961C377.106 143.376 378.224 144.015 379.182 144.877C379.437 145.069 379.597 145.292 379.661 145.548C379.756 145.803 379.756 146.059 379.661 146.314C379.597 146.538 379.469 146.729 379.277 146.889C379.086 147.048 378.862 147.128 378.607 147.128C378.351 147.128 378.08 147.033 377.793 146.841C376.866 146.138 375.893 145.628 374.871 145.308C373.849 144.957 372.811 144.781 371.757 144.781C369.905 144.781 368.468 145.164 367.447 145.931C366.457 146.697 365.962 147.735 365.962 149.044C365.962 150.034 366.265 150.832 366.872 151.439C367.51 152.046 368.5 152.509 369.841 152.828L374.009 153.786C376.084 154.265 377.633 154.984 378.655 155.941C379.676 156.868 380.187 158.129 380.187 159.725C380.187 161.769 379.373 163.398 377.745 164.611C376.148 165.792 373.977 166.383 371.231 166.383ZM387.739 166.144C387.1 166.144 386.573 165.936 386.158 165.521C385.743 165.106 385.535 164.579 385.535 163.94C385.535 163.302 385.743 162.775 386.158 162.36C386.573 161.945 387.1 161.737 387.739 161.737C388.409 161.737 388.936 161.945 389.319 162.36C389.735 162.775 389.942 163.302 389.942 163.94C389.942 164.579 389.735 165.106 389.319 165.521C388.936 165.936 388.409 166.144 387.739 166.144Z" fill="white"/>
</svg>
