<svg width="688" height="110" viewBox="0 0 688 110" fill="none" xmlns="http://www.w3.org/2000/svg">
<path d="M6.4188 0C-54.8418 136.166 333.767 156.805 687.167 0H6.4188Z" fill="#4E8679"/>
<path d="M4.91329 0C-45.5025 126.722 301.312 136.214 621.3 0H4.91329Z" fill="#66BAA7"/>
<path d="M80.3996 38.8377C79.1088 38.8377 78.0034 38.5629 77.0832 38.0134C76.1631 37.4511 75.4538 36.6523 74.9553 35.6171C74.4697 34.5819 74.2269 33.3487 74.2269 31.9173C74.2269 30.8438 74.3611 29.8853 74.6295 29.0418C74.9106 28.1856 75.3132 27.4635 75.8372 26.8756C76.3739 26.2749 77.0257 25.8149 77.7925 25.4954C78.5721 25.1759 79.4411 25.0161 80.3996 25.0161C81.2431 25.0161 82.0291 25.1375 82.7575 25.3803C83.486 25.6232 84.1122 25.981 84.6362 26.4539C84.764 26.5689 84.8471 26.6903 84.8854 26.8181C84.9237 26.9459 84.9237 27.0673 84.8854 27.1823C84.8598 27.2846 84.8023 27.374 84.7129 27.4507C84.6234 27.5146 84.5148 27.5466 84.387 27.5466C84.272 27.5338 84.1442 27.4699 84.0036 27.3549C83.5179 26.9331 82.9748 26.62 82.3741 26.4155C81.7863 26.211 81.1345 26.1088 80.4188 26.1088C79.3581 26.1088 78.4571 26.3388 77.7158 26.7989C76.9874 27.2462 76.4314 27.9044 76.048 28.7734C75.6774 29.6425 75.4921 30.6904 75.4921 31.9173C75.4921 33.157 75.6774 34.2113 76.048 35.0804C76.4314 35.9494 76.9874 36.614 77.7158 37.074C78.4571 37.5213 79.3581 37.745 80.4188 37.745C81.1217 37.745 81.7735 37.6428 82.3741 37.4383C82.9748 37.221 83.5243 36.9015 84.0228 36.4798C84.1633 36.3648 84.2911 36.3072 84.4062 36.3072C84.534 36.3072 84.6362 36.3456 84.7129 36.4223C84.8023 36.4862 84.8662 36.5756 84.9046 36.6906C84.9429 36.7929 84.9429 36.9015 84.9046 37.0165C84.879 37.1316 84.8087 37.2402 84.6937 37.3424C84.1442 37.8408 83.5052 38.2179 82.7767 38.4735C82.061 38.7163 81.2687 38.8377 80.3996 38.8377ZM90.4019 38.8377C89.5328 38.8377 88.7788 38.6396 88.1398 38.2434C87.5008 37.8472 87.0024 37.2913 86.6445 36.5756C86.2995 35.8599 86.127 35.0101 86.127 34.026C86.127 33.2976 86.2228 32.6394 86.4145 32.0515C86.619 31.4636 86.9065 30.9588 87.2772 30.5371C87.6606 30.1026 88.1142 29.7767 88.6382 29.5594C89.175 29.3294 89.7629 29.2143 90.4019 29.2143C91.2837 29.2143 92.0441 29.4124 92.6831 29.8086C93.3221 30.2048 93.8141 30.7671 94.1592 31.4956C94.517 32.2113 94.6959 33.0547 94.6959 34.026C94.6959 34.7673 94.5937 35.4318 94.3892 36.0197C94.1975 36.6076 93.91 37.1124 93.5266 37.5341C93.156 37.9559 92.7087 38.2818 92.1847 38.5118C91.6607 38.7291 91.0664 38.8377 90.4019 38.8377ZM90.4019 37.86C91.0409 37.86 91.5904 37.713 92.0505 37.4191C92.5233 37.1124 92.8812 36.6715 93.124 36.0964C93.3796 35.5213 93.5074 34.8312 93.5074 34.026C93.5074 32.8119 93.2262 31.8726 92.6639 31.208C92.1144 30.5435 91.3604 30.2112 90.4019 30.2112C89.7756 30.2112 89.2261 30.3645 88.7532 30.6713C88.2932 30.9652 87.9353 31.3997 87.6797 31.9748C87.4369 32.5371 87.3155 33.2209 87.3155 34.026C87.3155 35.2529 87.5967 36.1986 88.159 36.8632C88.7213 37.5277 89.4689 37.86 90.4019 37.86ZM97.7799 38.7993C97.5882 38.7993 97.4413 38.7482 97.339 38.646C97.2368 38.5437 97.1857 38.3968 97.1857 38.2051V29.8661C97.1857 29.6616 97.2368 29.5083 97.339 29.406C97.4413 29.3038 97.5882 29.2527 97.7799 29.2527C97.9588 29.2527 98.093 29.3038 98.1825 29.406C98.2847 29.5083 98.3359 29.6616 98.3359 29.8661V31.6681L98.125 31.5531C98.3806 30.7863 98.8151 30.2048 99.4285 29.8086C100.055 29.4124 100.77 29.2143 101.576 29.2143C102.317 29.2143 102.93 29.3485 103.416 29.6169C103.914 29.8725 104.285 30.2687 104.528 30.8055C104.771 31.3422 104.892 32.0132 104.892 32.8183V38.2051C104.892 38.3968 104.841 38.5437 104.739 38.646C104.636 38.7482 104.496 38.7993 104.317 38.7993C104.125 38.7993 103.978 38.7482 103.876 38.646C103.774 38.5437 103.723 38.3968 103.723 38.2051V32.9142C103.723 31.9812 103.537 31.3039 103.167 30.8821C102.796 30.4476 102.208 30.2304 101.403 30.2304C100.483 30.2304 99.7417 30.5179 99.1793 31.093C98.6298 31.6553 98.355 32.4157 98.355 33.3742V38.2051C98.355 38.6013 98.1633 38.7993 97.7799 38.7993ZM111.174 38.7993C110.982 38.7993 110.822 38.7482 110.695 38.646C110.567 38.5437 110.452 38.3904 110.349 38.1859L106.899 30.1345C106.835 29.9811 106.809 29.8406 106.822 29.7128C106.848 29.5722 106.905 29.4636 106.995 29.3869C107.097 29.2974 107.238 29.2527 107.416 29.2527C107.583 29.2527 107.704 29.291 107.781 29.3677C107.87 29.4444 107.947 29.5658 108.011 29.7319L111.423 37.975H110.944L114.375 29.7319C114.439 29.5658 114.516 29.4444 114.605 29.3677C114.695 29.291 114.822 29.2527 114.989 29.2527C115.155 29.2527 115.276 29.2974 115.353 29.3869C115.442 29.4636 115.493 29.5658 115.506 29.6936C115.519 29.8214 115.493 29.962 115.429 30.1153L111.979 38.1859C111.902 38.3904 111.794 38.5437 111.653 38.646C111.512 38.7482 111.353 38.7993 111.174 38.7993ZM121.505 38.8377C120.547 38.8377 119.722 38.646 119.032 38.2626C118.342 37.8792 117.812 37.3296 117.441 36.614C117.07 35.8983 116.885 35.0484 116.885 34.0644C116.885 33.0931 117.07 32.2496 117.441 31.5339C117.812 30.8055 118.323 30.2367 118.975 29.8278C119.639 29.4188 120.4 29.2143 121.256 29.2143C121.882 29.2143 122.432 29.323 122.904 29.5402C123.39 29.7447 123.799 30.045 124.131 30.4412C124.476 30.8246 124.738 31.2975 124.917 31.8598C125.096 32.4093 125.186 33.0356 125.186 33.7385C125.186 33.9174 125.135 34.0516 125.032 34.141C124.943 34.2305 124.815 34.2752 124.649 34.2752H117.729V33.4126H124.457L124.151 33.6618C124.151 32.9205 124.042 32.2943 123.825 31.7831C123.607 31.2591 123.281 30.8566 122.847 30.5754C122.425 30.2943 121.901 30.1537 121.275 30.1537C120.572 30.1537 119.978 30.3198 119.492 30.6521C119.007 30.9716 118.642 31.4189 118.4 31.994C118.157 32.5563 118.035 33.2081 118.035 33.9493V34.0452C118.035 35.2721 118.336 36.2178 118.936 36.8823C119.537 37.5341 120.38 37.86 121.467 37.86C121.94 37.86 122.393 37.7961 122.828 37.6683C123.275 37.5405 123.71 37.3233 124.131 37.0165C124.259 36.9271 124.381 36.8823 124.496 36.8823C124.623 36.8823 124.726 36.9143 124.802 36.9782C124.892 37.0421 124.949 37.1252 124.975 37.2274C125.013 37.3169 125.007 37.4191 124.956 37.5341C124.917 37.6364 124.834 37.7322 124.706 37.8217C124.297 38.154 123.805 38.4096 123.23 38.5885C122.655 38.7546 122.08 38.8377 121.505 38.8377ZM128.164 38.7993C127.972 38.7993 127.825 38.7482 127.723 38.646C127.62 38.5437 127.569 38.3968 127.569 38.2051V29.8661C127.569 29.6616 127.62 29.5083 127.723 29.406C127.825 29.3038 127.972 29.2527 128.164 29.2527C128.343 29.2527 128.477 29.3038 128.566 29.406C128.668 29.5083 128.72 29.6616 128.72 29.8661V31.5723H128.528C128.758 30.8182 129.167 30.2367 129.755 29.8278C130.355 29.4188 131.071 29.208 131.902 29.1952C132.055 29.1824 132.183 29.2143 132.285 29.291C132.387 29.3677 132.439 29.4891 132.439 29.6553C132.451 29.8342 132.413 29.9748 132.324 30.077C132.234 30.1665 132.087 30.224 131.883 30.2495L131.614 30.2687C130.707 30.3582 130.004 30.6585 129.506 31.1697C129.007 31.6809 128.758 32.371 128.758 33.24V38.2051C128.758 38.3968 128.707 38.5437 128.605 38.646C128.515 38.7482 128.368 38.7993 128.164 38.7993ZM138.135 38.8377C137.445 38.8377 136.87 38.7099 136.41 38.4543C135.95 38.1987 135.605 37.8345 135.375 37.3616C135.145 36.876 135.03 36.2817 135.03 35.5788V30.3262H133.611C133.445 30.3262 133.311 30.2879 133.208 30.2112C133.106 30.1217 133.055 30.0003 133.055 29.847C133.055 29.7064 133.106 29.5977 133.208 29.5211C133.311 29.4316 133.445 29.3869 133.611 29.3869H135.03V26.9906C135.03 26.7861 135.081 26.6392 135.183 26.5497C135.285 26.4475 135.432 26.3964 135.624 26.3964C135.803 26.3964 135.943 26.4475 136.046 26.5497C136.148 26.6392 136.199 26.7861 136.199 26.9906V29.3869H138.787C138.966 29.3869 139.1 29.4316 139.19 29.5211C139.279 29.5977 139.324 29.7064 139.324 29.847C139.324 30.0003 139.279 30.1217 139.19 30.2112C139.1 30.2879 138.966 30.3262 138.787 30.3262H136.199V35.4254C136.199 36.205 136.359 36.7993 136.678 37.2082C136.998 37.6172 137.528 37.8217 138.269 37.8217C138.525 37.8217 138.736 37.7961 138.902 37.745C139.081 37.6811 139.228 37.6491 139.343 37.6491C139.432 37.6491 139.509 37.6875 139.573 37.7642C139.65 37.8408 139.688 37.9623 139.688 38.1284C139.688 38.2306 139.662 38.3329 139.611 38.4351C139.573 38.5374 139.496 38.6013 139.381 38.6268C139.241 38.6779 139.049 38.7227 138.806 38.761C138.563 38.8121 138.34 38.8377 138.135 38.8377ZM148.562 38.8377C147.706 38.8377 147.041 38.5693 146.568 38.0325C146.108 37.4958 145.878 36.7354 145.878 35.7513V25.6487C145.878 25.4442 145.929 25.2973 146.032 25.2078C146.134 25.1056 146.281 25.0545 146.472 25.0545C146.651 25.0545 146.792 25.1056 146.894 25.2078C146.996 25.2973 147.048 25.4442 147.048 25.6487V35.6171C147.048 36.3584 147.195 36.9143 147.488 37.2849C147.782 37.6428 148.211 37.8217 148.773 37.8217C148.901 37.8217 149.009 37.8153 149.099 37.8025C149.188 37.7897 149.278 37.7833 149.367 37.7833C149.482 37.7706 149.565 37.7961 149.616 37.86C149.68 37.9111 149.712 38.0262 149.712 38.2051C149.712 38.384 149.667 38.5182 149.578 38.6076C149.489 38.6971 149.342 38.761 149.137 38.7993C149.048 38.8121 148.952 38.8185 148.85 38.8185C148.76 38.8313 148.664 38.8377 148.562 38.8377ZM155.296 38.8377C154.337 38.8377 153.513 38.646 152.823 38.2626C152.133 37.8792 151.602 37.3296 151.232 36.614C150.861 35.8983 150.676 35.0484 150.676 34.0644C150.676 33.0931 150.861 32.2496 151.232 31.5339C151.602 30.8055 152.114 30.2367 152.765 29.8278C153.43 29.4188 154.19 29.2143 155.047 29.2143C155.673 29.2143 156.222 29.323 156.695 29.5402C157.181 29.7447 157.59 30.045 157.922 30.4412C158.267 30.8246 158.529 31.2975 158.708 31.8598C158.887 32.4093 158.977 33.0356 158.977 33.7385C158.977 33.9174 158.925 34.0516 158.823 34.141C158.734 34.2305 158.606 34.2752 158.44 34.2752H151.519V33.4126H158.248L157.941 33.6618C157.941 32.9205 157.833 32.2943 157.615 31.7831C157.398 31.2591 157.072 30.8566 156.638 30.5754C156.216 30.2943 155.692 30.1537 155.066 30.1537C154.363 30.1537 153.769 30.3198 153.283 30.6521C152.797 30.9716 152.433 31.4189 152.19 31.994C151.948 32.5563 151.826 33.2081 151.826 33.9493V34.0452C151.826 35.2721 152.126 36.2178 152.727 36.8823C153.328 37.5341 154.171 37.86 155.258 37.86C155.73 37.86 156.184 37.7961 156.619 37.6683C157.066 37.5405 157.5 37.3233 157.922 37.0165C158.05 36.9271 158.171 36.8823 158.286 36.8823C158.414 36.8823 158.516 36.9143 158.593 36.9782C158.683 37.0421 158.74 37.1252 158.766 37.2274C158.804 37.3169 158.798 37.4191 158.747 37.5341C158.708 37.6364 158.625 37.7322 158.497 37.8217C158.088 38.154 157.596 38.4096 157.021 38.5885C156.446 38.7546 155.871 38.8377 155.296 38.8377ZM165.156 38.8377C164.249 38.8377 163.469 38.6396 162.817 38.2434C162.165 37.8345 161.661 37.2657 161.303 36.5373C160.958 35.796 160.785 34.9398 160.785 33.9685C160.785 33.2273 160.881 32.5691 161.073 31.994C161.277 31.4061 161.565 30.9077 161.935 30.4987C162.319 30.0898 162.779 29.7767 163.316 29.5594C163.865 29.3294 164.479 29.2143 165.156 29.2143C165.629 29.2143 166.114 29.2974 166.613 29.4636C167.111 29.6169 167.565 29.8789 167.974 30.2495C168.063 30.3262 168.121 30.4157 168.146 30.5179C168.172 30.6201 168.166 30.7224 168.127 30.8246C168.089 30.9141 168.031 30.9908 167.955 31.0547C167.878 31.1058 167.782 31.1377 167.667 31.1505C167.565 31.1505 167.456 31.0994 167.341 30.9972C166.983 30.7032 166.619 30.5051 166.249 30.4029C165.891 30.2879 165.539 30.2304 165.194 30.2304C164.67 30.2304 164.21 30.3134 163.814 30.4796C163.418 30.6457 163.079 30.8885 162.798 31.208C162.53 31.5275 162.325 31.9237 162.185 32.3966C162.044 32.8566 161.974 33.387 161.974 33.9877C161.974 35.189 162.248 36.1347 162.798 36.8248C163.36 37.5022 164.159 37.8408 165.194 37.8408C165.539 37.8408 165.891 37.7897 166.249 37.6875C166.619 37.5725 166.983 37.368 167.341 37.074C167.456 36.9718 167.565 36.9271 167.667 36.9399C167.782 36.9399 167.878 36.9718 167.955 37.0357C168.031 37.0868 168.083 37.1635 168.108 37.2657C168.146 37.3552 168.153 37.4511 168.127 37.5533C168.102 37.6555 168.044 37.745 167.955 37.8217C167.559 38.1923 167.111 38.4543 166.613 38.6076C166.114 38.761 165.629 38.8377 165.156 38.8377ZM173.667 38.8377C172.977 38.8377 172.402 38.7099 171.942 38.4543C171.482 38.1987 171.137 37.8345 170.907 37.3616C170.677 36.876 170.562 36.2817 170.562 35.5788V30.3262H169.143C168.977 30.3262 168.843 30.2879 168.74 30.2112C168.638 30.1217 168.587 30.0003 168.587 29.847C168.587 29.7064 168.638 29.5977 168.74 29.5211C168.843 29.4316 168.977 29.3869 169.143 29.3869H170.562V26.9906C170.562 26.7861 170.613 26.6392 170.715 26.5497C170.817 26.4475 170.964 26.3964 171.156 26.3964C171.335 26.3964 171.475 26.4475 171.578 26.5497C171.68 26.6392 171.731 26.7861 171.731 26.9906V29.3869H174.319C174.498 29.3869 174.632 29.4316 174.721 29.5211C174.811 29.5977 174.856 29.7064 174.856 29.847C174.856 30.0003 174.811 30.1217 174.721 30.2112C174.632 30.2879 174.498 30.3262 174.319 30.3262H171.731V35.4254C171.731 36.205 171.891 36.7993 172.21 37.2082C172.53 37.6172 173.06 37.8217 173.801 37.8217C174.057 37.8217 174.268 37.7961 174.434 37.745C174.613 37.6811 174.76 37.6491 174.875 37.6491C174.964 37.6491 175.041 37.6875 175.105 37.7642C175.181 37.8408 175.22 37.9623 175.22 38.1284C175.22 38.2306 175.194 38.3329 175.143 38.4351C175.105 38.5374 175.028 38.6013 174.913 38.6268C174.773 38.6779 174.581 38.7227 174.338 38.761C174.095 38.8121 173.872 38.8377 173.667 38.8377ZM179.858 38.8377C179.117 38.8377 178.497 38.7035 177.999 38.4351C177.513 38.1667 177.149 37.7642 176.906 37.2274C176.663 36.6906 176.542 36.0261 176.542 35.2337V29.8661C176.542 29.6616 176.593 29.5083 176.695 29.406C176.797 29.3038 176.944 29.2527 177.136 29.2527C177.315 29.2527 177.456 29.3038 177.558 29.406C177.66 29.5083 177.711 29.6616 177.711 29.8661V35.1762C177.711 36.0708 177.896 36.7418 178.267 37.1891C178.638 37.6236 179.219 37.8408 180.012 37.8408C180.881 37.8408 181.584 37.5533 182.12 36.9782C182.657 36.3903 182.925 35.6235 182.925 34.6778V29.8661C182.925 29.6616 182.977 29.5083 183.079 29.406C183.181 29.3038 183.328 29.2527 183.52 29.2527C183.699 29.2527 183.839 29.3038 183.941 29.406C184.044 29.5083 184.095 29.6616 184.095 29.8661V38.2051C184.095 38.6013 183.909 38.7993 183.539 38.7993C183.36 38.7993 183.219 38.7482 183.117 38.646C183.015 38.5437 182.964 38.3968 182.964 38.2051V36.3072L183.194 36.4414C182.951 37.221 182.529 37.8153 181.929 38.2242C181.328 38.6332 180.638 38.8377 179.858 38.8377ZM187.77 38.7993C187.579 38.7993 187.432 38.7482 187.329 38.646C187.227 38.5437 187.176 38.3968 187.176 38.2051V29.8661C187.176 29.6616 187.227 29.5083 187.329 29.406C187.432 29.3038 187.579 29.2527 187.77 29.2527C187.949 29.2527 188.083 29.3038 188.173 29.406C188.275 29.5083 188.326 29.6616 188.326 29.8661V31.5723H188.135C188.365 30.8182 188.774 30.2367 189.361 29.8278C189.962 29.4188 190.678 29.208 191.508 29.1952C191.662 29.1824 191.79 29.2143 191.892 29.291C191.994 29.3677 192.045 29.4891 192.045 29.6553C192.058 29.8342 192.02 29.9748 191.93 30.077C191.841 30.1665 191.694 30.224 191.489 30.2495L191.221 30.2687C190.314 30.3582 189.611 30.6585 189.112 31.1697C188.614 31.6809 188.365 32.371 188.365 33.24V38.2051C188.365 38.3968 188.313 38.5437 188.211 38.646C188.122 38.7482 187.975 38.7993 187.77 38.7993ZM197.661 38.8377C196.702 38.8377 195.878 38.646 195.188 38.2626C194.498 37.8792 193.967 37.3296 193.597 36.614C193.226 35.8983 193.041 35.0484 193.041 34.0644C193.041 33.0931 193.226 32.2496 193.597 31.5339C193.967 30.8055 194.479 30.2367 195.13 29.8278C195.795 29.4188 196.555 29.2143 197.412 29.2143C198.038 29.2143 198.587 29.323 199.06 29.5402C199.546 29.7447 199.955 30.045 200.287 30.4412C200.632 30.8246 200.894 31.2975 201.073 31.8598C201.252 32.4093 201.342 33.0356 201.342 33.7385C201.342 33.9174 201.29 34.0516 201.188 34.141C201.099 34.2305 200.971 34.2752 200.805 34.2752H193.884V33.4126H200.613L200.306 33.6618C200.306 32.9205 200.198 32.2943 199.98 31.7831C199.763 31.2591 199.437 30.8566 199.003 30.5754C198.581 30.2943 198.057 30.1537 197.431 30.1537C196.728 30.1537 196.134 30.3198 195.648 30.6521C195.162 30.9716 194.798 31.4189 194.555 31.994C194.312 32.5563 194.191 33.2081 194.191 33.9493V34.0452C194.191 35.2721 194.491 36.2178 195.092 36.8823C195.693 37.5341 196.536 37.86 197.623 37.86C198.095 37.86 198.549 37.7961 198.984 37.6683C199.431 37.5405 199.865 37.3233 200.287 37.0165C200.415 36.9271 200.536 36.8823 200.651 36.8823C200.779 36.8823 200.881 36.9143 200.958 36.9782C201.048 37.0421 201.105 37.1252 201.131 37.2274C201.169 37.3169 201.163 37.4191 201.111 37.5341C201.073 37.6364 200.99 37.7322 200.862 37.8217C200.453 38.154 199.961 38.4096 199.386 38.5885C198.811 38.7546 198.236 38.8377 197.661 38.8377ZM206.754 38.8377C206.179 38.8377 205.604 38.761 205.029 38.6076C204.466 38.4543 203.93 38.1923 203.418 37.8217C203.316 37.7578 203.246 37.6811 203.208 37.5916C203.182 37.4894 203.176 37.3872 203.188 37.2849C203.214 37.1827 203.259 37.0996 203.323 37.0357C203.399 36.959 203.489 36.9143 203.591 36.9015C203.693 36.8887 203.802 36.9207 203.917 36.9974C204.415 37.3296 204.901 37.5597 205.374 37.6875C205.847 37.8153 206.32 37.8792 206.792 37.8792C207.572 37.8792 208.166 37.7322 208.575 37.4383C208.984 37.1443 209.189 36.7482 209.189 36.2497C209.189 35.8408 209.054 35.5277 208.786 35.3104C208.53 35.0804 208.109 34.8951 207.521 34.7545L205.853 34.3711C205.048 34.1922 204.454 33.9046 204.07 33.5084C203.687 33.0995 203.495 32.5755 203.495 31.9365C203.495 31.3869 203.636 30.9077 203.917 30.4987C204.211 30.0898 204.62 29.7767 205.144 29.5594C205.681 29.3294 206.294 29.2143 206.984 29.2143C207.546 29.2143 208.083 29.2974 208.594 29.4636C209.106 29.6297 209.553 29.8853 209.936 30.2304C210.038 30.307 210.102 30.3965 210.128 30.4987C210.166 30.601 210.166 30.7032 210.128 30.8055C210.102 30.8949 210.051 30.9716 209.975 31.0355C209.898 31.0994 209.808 31.1313 209.706 31.1313C209.604 31.1313 209.495 31.093 209.38 31.0163C209.01 30.7352 208.62 30.5307 208.211 30.4029C207.802 30.2623 207.387 30.192 206.965 30.192C206.224 30.192 205.649 30.3454 205.24 30.6521C204.843 30.9588 204.645 31.3742 204.645 31.8981C204.645 32.2943 204.767 32.6138 205.01 32.8566C205.265 33.0995 205.661 33.2848 206.198 33.4126L207.866 33.796C208.697 33.9877 209.316 34.2752 209.725 34.6586C210.134 35.0292 210.339 35.5341 210.339 36.1731C210.339 36.991 210.013 37.6428 209.361 38.1284C208.722 38.6013 207.853 38.8377 206.754 38.8377ZM221.218 38.8377C220.528 38.8377 219.952 38.7099 219.492 38.4543C219.032 38.1987 218.687 37.8345 218.457 37.3616C218.227 36.876 218.112 36.2817 218.112 35.5788V30.3262H216.694C216.527 30.3262 216.393 30.2879 216.291 30.2112C216.189 30.1217 216.138 30.0003 216.138 29.847C216.138 29.7064 216.189 29.5977 216.291 29.5211C216.393 29.4316 216.527 29.3869 216.694 29.3869H218.112V26.9906C218.112 26.7861 218.163 26.6392 218.265 26.5497C218.368 26.4475 218.515 26.3964 218.706 26.3964C218.885 26.3964 219.026 26.4475 219.128 26.5497C219.23 26.6392 219.281 26.7861 219.281 26.9906V29.3869H221.869C222.048 29.3869 222.183 29.4316 222.272 29.5211C222.361 29.5977 222.406 29.7064 222.406 29.847C222.406 30.0003 222.361 30.1217 222.272 30.2112C222.183 30.2879 222.048 30.3262 221.869 30.3262H219.281V35.4254C219.281 36.205 219.441 36.7993 219.761 37.2082C220.08 37.6172 220.611 37.8217 221.352 37.8217C221.607 37.8217 221.818 37.7961 221.984 37.745C222.163 37.6811 222.31 37.6491 222.425 37.6491C222.515 37.6491 222.591 37.6875 222.655 37.7642C222.732 37.8408 222.77 37.9623 222.77 38.1284C222.77 38.2306 222.745 38.3329 222.694 38.4351C222.655 38.5374 222.579 38.6013 222.464 38.6268C222.323 38.6779 222.131 38.7227 221.889 38.761C221.646 38.8121 221.422 38.8377 221.218 38.8377ZM227.737 38.8377C226.868 38.8377 226.114 38.6396 225.475 38.2434C224.836 37.8472 224.337 37.2913 223.98 36.5756C223.635 35.8599 223.462 35.0101 223.462 34.026C223.462 33.2976 223.558 32.6394 223.75 32.0515C223.954 31.4636 224.242 30.9588 224.612 30.5371C224.996 30.1026 225.449 29.7767 225.973 29.5594C226.51 29.3294 227.098 29.2143 227.737 29.2143C228.619 29.2143 229.379 29.4124 230.018 29.8086C230.657 30.2048 231.149 30.7671 231.494 31.4956C231.852 32.2113 232.031 33.0547 232.031 34.026C232.031 34.7673 231.929 35.4318 231.724 36.0197C231.533 36.6076 231.245 37.1124 230.862 37.5341C230.491 37.9559 230.044 38.2818 229.52 38.5118C228.996 38.7291 228.402 38.8377 227.737 38.8377ZM227.737 37.86C228.376 37.86 228.925 37.713 229.386 37.4191C229.858 37.1124 230.216 36.6715 230.459 36.0964C230.715 35.5213 230.842 34.8312 230.842 34.026C230.842 32.8119 230.561 31.8726 229.999 31.208C229.449 30.5435 228.695 30.2112 227.737 30.2112C227.111 30.2112 226.561 30.3645 226.088 30.6713C225.628 30.9652 225.27 31.3997 225.015 31.9748C224.772 32.5371 224.651 33.2209 224.651 34.026C224.651 35.2529 224.932 36.1986 225.494 36.8632C226.056 37.5277 226.804 37.86 227.737 37.86ZM243.779 38.8377C242.91 38.8377 242.169 38.614 241.555 38.1667C240.942 37.7194 240.526 37.1188 240.309 36.3648L240.52 36.2497V38.2051C240.52 38.3968 240.469 38.5437 240.367 38.646C240.264 38.7482 240.124 38.7993 239.945 38.7993C239.753 38.7993 239.606 38.7482 239.504 38.646C239.402 38.5437 239.351 38.3968 239.351 38.2051V25.6487C239.351 25.4442 239.402 25.2973 239.504 25.2078C239.606 25.1056 239.753 25.0545 239.945 25.0545C240.124 25.0545 240.264 25.1056 240.367 25.2078C240.469 25.2973 240.52 25.4442 240.52 25.6487V31.6873H240.309C240.526 30.9333 240.942 30.3326 241.555 29.8853C242.169 29.438 242.91 29.2143 243.779 29.2143C244.622 29.2143 245.351 29.4124 245.964 29.8086C246.578 30.2048 247.051 30.7607 247.383 31.4764C247.728 32.1921 247.9 33.042 247.9 34.026C247.9 35.0101 247.728 35.8663 247.383 36.5948C247.051 37.3105 246.571 37.8664 245.945 38.2626C245.332 38.646 244.61 38.8377 243.779 38.8377ZM243.606 37.86C244.233 37.86 244.776 37.713 245.236 37.4191C245.709 37.1124 246.073 36.6715 246.329 36.0964C246.584 35.5213 246.712 34.8312 246.712 34.026C246.712 32.8119 246.431 31.8726 245.868 31.208C245.306 30.5435 244.552 30.2112 243.606 30.2112C242.98 30.2112 242.431 30.3645 241.958 30.6713C241.498 30.9652 241.14 31.3997 240.884 31.9748C240.629 32.5371 240.501 33.2209 240.501 34.026C240.501 35.2529 240.782 36.1986 241.344 36.8632C241.907 37.5277 242.661 37.86 243.606 37.86ZM252.22 42.2499C252.067 42.2499 251.945 42.2052 251.856 42.1158C251.766 42.0391 251.715 41.9304 251.703 41.7899C251.703 41.6621 251.728 41.5279 251.779 41.3873L253.102 38.3776V38.9144L249.345 30.1345C249.281 29.9811 249.255 29.8406 249.268 29.7128C249.294 29.5722 249.351 29.4636 249.441 29.3869C249.543 29.2974 249.683 29.2527 249.862 29.2527C250.028 29.2527 250.15 29.291 250.226 29.3677C250.316 29.4444 250.393 29.5658 250.457 29.7319L253.869 37.9942H253.39L256.802 29.7319C256.878 29.553 256.962 29.4316 257.051 29.3677C257.14 29.291 257.268 29.2527 257.434 29.2527C257.601 29.2527 257.722 29.2974 257.799 29.3869C257.888 29.4636 257.939 29.5658 257.952 29.6936C257.965 29.8214 257.939 29.962 257.875 30.1153L252.872 41.7899C252.795 41.9688 252.706 42.0902 252.604 42.1541C252.514 42.218 252.386 42.2499 252.22 42.2499ZM263.657 38.8377C262.967 38.8377 262.392 38.7099 261.932 38.4543C261.472 38.1987 261.127 37.8345 260.897 37.3616C260.667 36.876 260.552 36.2817 260.552 35.5788V30.3262H259.133C258.967 30.3262 258.833 30.2879 258.731 30.2112C258.629 30.1217 258.577 30.0003 258.577 29.847C258.577 29.7064 258.629 29.5977 258.731 29.5211C258.833 29.4316 258.967 29.3869 259.133 29.3869H260.552V26.9906C260.552 26.7861 260.603 26.6392 260.705 26.5497C260.808 26.4475 260.955 26.3964 261.146 26.3964C261.325 26.3964 261.466 26.4475 261.568 26.5497C261.67 26.6392 261.721 26.7861 261.721 26.9906V29.3869H264.309C264.488 29.3869 264.622 29.4316 264.712 29.5211C264.801 29.5977 264.846 29.7064 264.846 29.847C264.846 30.0003 264.801 30.1217 264.712 30.2112C264.622 30.2879 264.488 30.3262 264.309 30.3262H261.721V35.4254C261.721 36.205 261.881 36.7993 262.201 37.2082C262.52 37.6172 263.05 37.8217 263.792 37.8217C264.047 37.8217 264.258 37.7961 264.424 37.745C264.603 37.6811 264.75 37.6491 264.865 37.6491C264.955 37.6491 265.031 37.6875 265.095 37.7642C265.172 37.8408 265.21 37.9623 265.21 38.1284C265.21 38.2306 265.185 38.3329 265.134 38.4351C265.095 38.5374 265.019 38.6013 264.904 38.6268C264.763 38.6779 264.571 38.7227 264.328 38.761C264.086 38.8121 263.862 38.8377 263.657 38.8377ZM270.522 38.8377C269.563 38.8377 268.739 38.646 268.049 38.2626C267.359 37.8792 266.828 37.3296 266.458 36.614C266.087 35.8983 265.902 35.0484 265.902 34.0644C265.902 33.0931 266.087 32.2496 266.458 31.5339C266.828 30.8055 267.34 30.2367 267.991 29.8278C268.656 29.4188 269.416 29.2143 270.273 29.2143C270.899 29.2143 271.448 29.323 271.921 29.5402C272.407 29.7447 272.816 30.045 273.148 30.4412C273.493 30.8246 273.755 31.2975 273.934 31.8598C274.113 32.4093 274.202 33.0356 274.202 33.7385C274.202 33.9174 274.151 34.0516 274.049 34.141C273.96 34.2305 273.832 34.2752 273.666 34.2752H266.745V33.4126H273.474L273.167 33.6618C273.167 32.9205 273.059 32.2943 272.841 31.7831C272.624 31.2591 272.298 30.8566 271.864 30.5754C271.442 30.2943 270.918 30.1537 270.292 30.1537C269.589 30.1537 268.995 30.3198 268.509 30.6521C268.023 30.9716 267.659 31.4189 267.416 31.994C267.173 32.5563 267.052 33.2081 267.052 33.9493V34.0452C267.052 35.2721 267.352 36.2178 267.953 36.8823C268.554 37.5341 269.397 37.86 270.484 37.86C270.956 37.86 271.41 37.7961 271.845 37.6683C272.292 37.5405 272.726 37.3233 273.148 37.0165C273.276 36.9271 273.397 36.8823 273.512 36.8823C273.64 36.8823 273.742 36.9143 273.819 36.9782C273.909 37.0421 273.966 37.1252 273.992 37.2274C274.03 37.3169 274.024 37.4191 273.972 37.5341C273.934 37.6364 273.851 37.7322 273.723 37.8217C273.314 38.154 272.822 38.4096 272.247 38.5885C271.672 38.7546 271.097 38.8377 270.522 38.8377ZM277.08 34.0835C276.939 34.0835 276.818 34.0388 276.715 33.9493C276.613 33.8471 276.562 33.7257 276.562 33.5851C276.562 33.4445 276.613 33.3295 276.715 33.24C276.818 33.1378 276.939 33.0867 277.08 33.0867H281.508C281.648 33.0867 281.763 33.1378 281.853 33.24C281.955 33.3295 282.006 33.4445 282.006 33.5851C282.006 33.7257 281.955 33.8471 281.853 33.9493C281.763 34.0388 281.648 34.0835 281.508 34.0835H277.08ZM287.871 38.8377C287.296 38.8377 286.721 38.761 286.146 38.6076C285.583 38.4543 285.046 38.1923 284.535 37.8217C284.433 37.7578 284.363 37.6811 284.324 37.5916C284.299 37.4894 284.292 37.3872 284.305 37.2849C284.331 37.1827 284.376 37.0996 284.439 37.0357C284.516 36.959 284.606 36.9143 284.708 36.9015C284.81 36.8887 284.919 36.9207 285.034 36.9974C285.532 37.3296 286.018 37.5597 286.491 37.6875C286.963 37.8153 287.436 37.8792 287.909 37.8792C288.689 37.8792 289.283 37.7322 289.692 37.4383C290.101 37.1443 290.305 36.7482 290.305 36.2497C290.305 35.8408 290.171 35.5277 289.903 35.3104C289.647 35.0804 289.226 34.8951 288.638 34.7545L286.97 34.3711C286.165 34.1922 285.57 33.9046 285.187 33.5084C284.804 33.0995 284.612 32.5755 284.612 31.9365C284.612 31.3869 284.753 30.9077 285.034 30.4987C285.328 30.0898 285.737 29.7767 286.261 29.5594C286.797 29.3294 287.411 29.2143 288.101 29.2143C288.663 29.2143 289.2 29.2974 289.711 29.4636C290.222 29.6297 290.67 29.8853 291.053 30.2304C291.155 30.307 291.219 30.3965 291.245 30.4987C291.283 30.601 291.283 30.7032 291.245 30.8055C291.219 30.8949 291.168 30.9716 291.091 31.0355C291.015 31.0994 290.925 31.1313 290.823 31.1313C290.721 31.1313 290.612 31.093 290.497 31.0163C290.127 30.7352 289.737 30.5307 289.328 30.4029C288.919 30.2623 288.503 30.192 288.082 30.192C287.34 30.192 286.765 30.3454 286.356 30.6521C285.96 30.9588 285.762 31.3742 285.762 31.8981C285.762 32.2943 285.884 32.6138 286.126 32.8566C286.382 33.0995 286.778 33.2848 287.315 33.4126L288.983 33.796C289.813 33.9877 290.433 34.2752 290.842 34.6586C291.251 35.0292 291.456 35.5341 291.456 36.1731C291.456 36.991 291.13 37.6428 290.478 38.1284C289.839 38.6013 288.97 38.8377 287.871 38.8377ZM294.591 38.761C294.399 38.761 294.252 38.7035 294.15 38.5885C294.048 38.4735 293.996 38.3201 293.996 38.1284V29.9236C293.996 29.7192 294.048 29.5658 294.15 29.4636C294.252 29.3613 294.399 29.3102 294.591 29.3102C294.77 29.3102 294.91 29.3613 295.012 29.4636C295.115 29.5658 295.166 29.7192 295.166 29.9236V38.1284C295.166 38.3201 295.115 38.4735 295.012 38.5885C294.923 38.7035 294.782 38.761 294.591 38.761ZM294.591 26.9906C294.322 26.9906 294.111 26.9203 293.958 26.7798C293.817 26.6392 293.747 26.4411 293.747 26.1855C293.747 25.9299 293.817 25.7382 293.958 25.6104C294.111 25.4698 294.322 25.3995 294.591 25.3995C294.859 25.3995 295.064 25.4698 295.204 25.6104C295.357 25.7382 295.434 25.9299 295.434 26.1855C295.434 26.4411 295.357 26.6392 295.204 26.7798C295.064 26.9203 294.859 26.9906 294.591 26.9906ZM298.265 38.6843C298.137 38.6843 298.029 38.6588 297.939 38.6076C297.863 38.5437 297.805 38.4671 297.767 38.3776C297.741 38.2754 297.741 38.1667 297.767 38.0517C297.805 37.9239 297.875 37.8025 297.978 37.6875L303.594 30.0003V30.3262H298.188C298.022 30.3262 297.895 30.2879 297.805 30.2112C297.728 30.1217 297.69 30.0003 297.69 29.847C297.69 29.7064 297.728 29.5977 297.805 29.5211C297.895 29.4316 298.022 29.3869 298.188 29.3869H304.17C304.323 29.3869 304.444 29.4188 304.534 29.4827C304.636 29.5338 304.7 29.6041 304.725 29.6936C304.764 29.7831 304.77 29.8853 304.745 30.0003C304.719 30.1153 304.662 30.2304 304.572 30.3454L298.879 38.0901V37.745H304.534C304.866 37.745 305.032 37.8984 305.032 38.2051C305.032 38.3584 304.987 38.4798 304.898 38.5693C304.809 38.646 304.687 38.6843 304.534 38.6843H298.265ZM310.902 38.8377C309.944 38.8377 309.12 38.646 308.429 38.2626C307.739 37.8792 307.209 37.3296 306.838 36.614C306.468 35.8983 306.282 35.0484 306.282 34.0644C306.282 33.0931 306.468 32.2496 306.838 31.5339C307.209 30.8055 307.72 30.2367 308.372 29.8278C309.037 29.4188 309.797 29.2143 310.653 29.2143C311.279 29.2143 311.829 29.323 312.302 29.5402C312.787 29.7447 313.196 30.045 313.529 30.4412C313.874 30.8246 314.136 31.2975 314.315 31.8598C314.494 32.4093 314.583 33.0356 314.583 33.7385C314.583 33.9174 314.532 34.0516 314.43 34.141C314.34 34.2305 314.212 34.2752 314.046 34.2752H307.126V33.4126H313.855L313.548 33.6618C313.548 32.9205 313.439 32.2943 313.222 31.7831C313.005 31.2591 312.679 30.8566 312.244 30.5754C311.823 30.2943 311.299 30.1537 310.672 30.1537C309.969 30.1537 309.375 30.3198 308.89 30.6521C308.404 30.9716 308.04 31.4189 307.797 31.994C307.554 32.5563 307.433 33.2081 307.433 33.9493V34.0452C307.433 35.2721 307.733 36.2178 308.334 36.8823C308.934 37.5341 309.778 37.86 310.864 37.86C311.337 37.86 311.791 37.7961 312.225 37.6683C312.672 37.5405 313.107 37.3233 313.529 37.0165C313.656 36.9271 313.778 36.8823 313.893 36.8823C314.021 36.8823 314.123 36.9143 314.2 36.9782C314.289 37.0421 314.347 37.1252 314.372 37.2274C314.411 37.3169 314.404 37.4191 314.353 37.5341C314.315 37.6364 314.232 37.7322 314.104 37.8217C313.695 38.154 313.203 38.4096 312.628 38.5885C312.053 38.7546 311.477 38.8377 310.902 38.8377ZM320.513 38.8377C319.682 38.8377 318.954 38.646 318.328 38.2626C317.714 37.8664 317.235 37.3105 316.89 36.5948C316.558 35.8663 316.392 35.0101 316.392 34.026C316.392 33.042 316.558 32.1921 316.89 31.4764C317.222 30.7607 317.695 30.2048 318.309 29.8086C318.935 29.4124 319.67 29.2143 320.513 29.2143C321.382 29.2143 322.123 29.438 322.737 29.8853C323.35 30.3326 323.759 30.9333 323.964 31.6873H323.753V25.6487C323.753 25.4442 323.804 25.2973 323.906 25.2078C324.008 25.1056 324.149 25.0545 324.328 25.0545C324.52 25.0545 324.667 25.1056 324.769 25.2078C324.871 25.2973 324.922 25.4442 324.922 25.6487V38.2051C324.922 38.3968 324.871 38.5437 324.769 38.646C324.667 38.7482 324.526 38.7993 324.347 38.7993C324.155 38.7993 324.008 38.7482 323.906 38.646C323.804 38.5437 323.753 38.3968 323.753 38.2051V36.2306L323.964 36.3648C323.759 37.1188 323.35 37.7194 322.737 38.1667C322.123 38.614 321.382 38.8377 320.513 38.8377ZM320.667 37.86C321.306 37.86 321.855 37.713 322.315 37.4191C322.788 37.1124 323.146 36.6715 323.389 36.0964C323.644 35.5213 323.772 34.8312 323.772 34.026C323.772 32.8119 323.491 31.8726 322.929 31.208C322.379 30.5435 321.625 30.2112 320.667 30.2112C320.04 30.2112 319.491 30.3645 319.018 30.6713C318.558 30.9652 318.2 31.3997 317.944 31.9748C317.702 32.5371 317.58 33.2209 317.58 34.026C317.58 35.2529 317.861 36.1986 318.424 36.8632C318.986 37.5277 319.734 37.86 320.667 37.86ZM328.683 40.4096C328.568 40.5502 328.453 40.6269 328.338 40.6397C328.223 40.6652 328.121 40.6461 328.032 40.5822C327.955 40.5183 327.91 40.4288 327.897 40.3138C327.897 40.1988 327.955 40.0646 328.07 39.9112C328.236 39.6812 328.357 39.4383 328.434 39.1827C328.511 38.9271 328.549 38.6907 328.549 38.4735L328.626 38.7418C328.345 38.7418 328.115 38.6588 327.936 38.4926C327.77 38.3265 327.686 38.1156 327.686 37.86C327.686 37.6044 327.763 37.3935 327.917 37.2274C328.07 37.0613 328.281 36.9782 328.549 36.9782C328.818 36.9782 329.028 37.074 329.182 37.2657C329.348 37.4447 329.431 37.7194 329.431 38.0901C329.431 38.3201 329.405 38.5693 329.354 38.8377C329.316 39.1188 329.239 39.3936 329.124 39.662C329.009 39.9304 328.862 40.1796 328.683 40.4096ZM341.061 38.8377C340.103 38.8377 339.279 38.646 338.589 38.2626C337.898 37.8792 337.368 37.3296 336.997 36.614C336.627 35.8983 336.441 35.0484 336.441 34.0644C336.441 33.0931 336.627 32.2496 336.997 31.5339C337.368 30.8055 337.879 30.2367 338.531 29.8278C339.196 29.4188 339.956 29.2143 340.812 29.2143C341.438 29.2143 341.988 29.323 342.461 29.5402C342.946 29.7447 343.355 30.045 343.688 30.4412C344.033 30.8246 344.295 31.2975 344.474 31.8598C344.653 32.4093 344.742 33.0356 344.742 33.7385C344.742 33.9174 344.691 34.0516 344.589 34.141C344.499 34.2305 344.371 34.2752 344.205 34.2752H337.285V33.4126H344.014L343.707 33.6618C343.707 32.9205 343.598 32.2943 343.381 31.7831C343.164 31.2591 342.838 30.8566 342.403 30.5754C341.982 30.2943 341.458 30.1537 340.831 30.1537C340.129 30.1537 339.534 30.3198 339.049 30.6521C338.563 30.9716 338.199 31.4189 337.956 31.994C337.713 32.5563 337.592 33.2081 337.592 33.9493V34.0452C337.592 35.2721 337.892 36.2178 338.493 36.8823C339.093 37.5341 339.937 37.86 341.023 37.86C341.496 37.86 341.95 37.7961 342.384 37.6683C342.831 37.5405 343.266 37.3233 343.688 37.0165C343.816 36.9271 343.937 36.8823 344.052 36.8823C344.18 36.8823 344.282 36.9143 344.359 36.9782C344.448 37.0421 344.506 37.1252 344.531 37.2274C344.57 37.3169 344.563 37.4191 344.512 37.5341C344.474 37.6364 344.391 37.7322 344.263 37.8217C343.854 38.154 343.362 38.4096 342.787 38.5885C342.212 38.7546 341.637 38.8377 341.061 38.8377ZM350.001 38.8377C349.375 38.8377 348.813 38.7163 348.314 38.4735C347.829 38.2306 347.439 37.8984 347.145 37.4766C346.864 37.0549 346.723 36.582 346.723 36.058C346.723 35.3679 346.896 34.8248 347.241 34.4286C347.586 34.0324 348.167 33.7576 348.985 33.6043C349.803 33.4381 350.928 33.3551 352.359 33.3551H353.183V34.2177H352.378C351.228 34.2177 350.327 34.2688 349.675 34.3711C349.036 34.4605 348.589 34.6331 348.333 34.8887C348.078 35.1443 347.95 35.5021 347.95 35.9622C347.95 36.5373 348.148 37.0038 348.544 37.3616C348.941 37.7194 349.477 37.8984 350.155 37.8984C350.704 37.8984 351.183 37.7706 351.592 37.515C352.014 37.2466 352.346 36.8823 352.589 36.4223C352.832 35.9622 352.953 35.4382 352.953 34.8503V32.6649C352.953 31.8087 352.781 31.1889 352.436 30.8055C352.091 30.4093 351.541 30.2112 350.787 30.2112C350.302 30.2112 349.829 30.2751 349.369 30.4029C348.921 30.5307 348.442 30.7352 347.931 31.0163C347.79 31.093 347.663 31.1186 347.548 31.093C347.445 31.0674 347.362 31.0163 347.298 30.9396C347.247 30.863 347.209 30.7735 347.183 30.6713C347.17 30.5562 347.19 30.4476 347.241 30.3454C347.292 30.2431 347.381 30.1601 347.509 30.0962C348.046 29.8022 348.589 29.585 349.139 29.4444C349.701 29.291 350.244 29.2143 350.768 29.2143C351.522 29.2143 352.142 29.3421 352.628 29.5977C353.126 29.8533 353.49 30.2367 353.72 30.7479C353.963 31.2591 354.084 31.9173 354.084 32.7225V38.2051C354.084 38.3968 354.04 38.5437 353.95 38.646C353.861 38.7482 353.727 38.7993 353.548 38.7993C353.369 38.7993 353.228 38.7482 353.126 38.646C353.024 38.5437 352.973 38.3968 352.973 38.2051V36.4414H353.164C353.049 36.9399 352.845 37.368 352.551 37.7258C352.257 38.0837 351.893 38.3584 351.458 38.5501C351.024 38.7418 350.538 38.8377 350.001 38.8377ZM360.17 38.8377C359.595 38.8377 359.02 38.761 358.445 38.6076C357.883 38.4543 357.346 38.1923 356.835 37.8217C356.732 37.7578 356.662 37.6811 356.624 37.5916C356.598 37.4894 356.592 37.3872 356.605 37.2849C356.63 37.1827 356.675 37.0996 356.739 37.0357C356.815 36.959 356.905 36.9143 357.007 36.9015C357.109 36.8887 357.218 36.9207 357.333 36.9974C357.831 37.3296 358.317 37.5597 358.79 37.6875C359.263 37.8153 359.736 37.8792 360.209 37.8792C360.988 37.8792 361.582 37.7322 361.991 37.4383C362.4 37.1443 362.605 36.7482 362.605 36.2497C362.605 35.8408 362.471 35.5277 362.202 35.3104C361.947 35.0804 361.525 34.8951 360.937 34.7545L359.269 34.3711C358.464 34.1922 357.87 33.9046 357.486 33.5084C357.103 33.0995 356.911 32.5755 356.911 31.9365C356.911 31.3869 357.052 30.9077 357.333 30.4987C357.627 30.0898 358.036 29.7767 358.56 29.5594C359.097 29.3294 359.71 29.2143 360.4 29.2143C360.963 29.2143 361.499 29.2974 362.011 29.4636C362.522 29.6297 362.969 29.8853 363.352 30.2304C363.455 30.307 363.519 30.3965 363.544 30.4987C363.582 30.601 363.582 30.7032 363.544 30.8055C363.519 30.8949 363.467 30.9716 363.391 31.0355C363.314 31.0994 363.225 31.1313 363.122 31.1313C363.02 31.1313 362.911 31.093 362.796 31.0163C362.426 30.7352 362.036 30.5307 361.627 30.4029C361.218 30.2623 360.803 30.192 360.381 30.192C359.64 30.192 359.065 30.3454 358.656 30.6521C358.26 30.9588 358.061 31.3742 358.061 31.8981C358.061 32.2943 358.183 32.6138 358.426 32.8566C358.681 33.0995 359.077 33.2848 359.614 33.4126L361.282 33.796C362.113 33.9877 362.733 34.2752 363.142 34.6586C363.55 35.0292 363.755 35.5341 363.755 36.1731C363.755 36.991 363.429 37.6428 362.777 38.1284C362.138 38.6013 361.269 38.8377 360.17 38.8377ZM368.064 42.2499C367.911 42.2499 367.789 42.2052 367.7 42.1158C367.61 42.0391 367.559 41.9304 367.546 41.7899C367.546 41.6621 367.572 41.5279 367.623 41.3873L368.946 38.3776V38.9144L365.188 30.1345C365.124 29.9811 365.099 29.8406 365.112 29.7128C365.137 29.5722 365.195 29.4636 365.284 29.3869C365.386 29.2974 365.527 29.2527 365.706 29.2527C365.872 29.2527 365.994 29.291 366.07 29.3677C366.16 29.4444 366.236 29.5658 366.3 29.7319L369.713 37.9942H369.233L372.646 29.7319C372.722 29.553 372.805 29.4316 372.895 29.3677C372.984 29.291 373.112 29.2527 373.278 29.2527C373.444 29.2527 373.566 29.2974 373.642 29.3869C373.732 29.4636 373.783 29.5658 373.796 29.6936C373.809 29.8214 373.783 29.962 373.719 30.1153L368.716 41.7899C368.639 41.9688 368.55 42.0902 368.447 42.1541C368.358 42.218 368.23 42.2499 368.064 42.2499ZM78.0417 64.8377C77.3516 64.8377 76.7765 64.7099 76.3164 64.4543C75.8563 64.1987 75.5113 63.8345 75.2812 63.3616C75.0512 62.876 74.9362 62.2817 74.9362 61.5788V56.3262H73.5176C73.3515 56.3262 73.2173 56.2879 73.115 56.2112C73.0128 56.1217 72.9617 56.0003 72.9617 55.847C72.9617 55.7064 73.0128 55.5977 73.115 55.5211C73.2173 55.4316 73.3515 55.3869 73.5176 55.3869H74.9362V52.9906C74.9362 52.7861 74.9873 52.6392 75.0895 52.5497C75.1918 52.4475 75.3387 52.3964 75.5304 52.3964C75.7094 52.3964 75.8499 52.4475 75.9522 52.5497C76.0544 52.6392 76.1055 52.7861 76.1055 52.9906V55.3869H78.6935C78.8724 55.3869 79.0066 55.4316 79.0961 55.5211C79.1855 55.5977 79.2303 55.7064 79.2303 55.847C79.2303 56.0003 79.1855 56.1217 79.0961 56.2112C79.0066 56.2879 78.8724 56.3262 78.6935 56.3262H76.1055V61.4254C76.1055 62.205 76.2653 62.7993 76.5848 63.2082C76.9043 63.6172 77.4347 63.8217 78.1759 63.8217C78.4315 63.8217 78.6424 63.7961 78.8085 63.745C78.9874 63.6811 79.1344 63.6491 79.2494 63.6491C79.3389 63.6491 79.4156 63.6875 79.4795 63.7642C79.5561 63.8408 79.5945 63.9623 79.5945 64.1284C79.5945 64.2306 79.5689 64.3329 79.5178 64.4351C79.4795 64.5374 79.4028 64.6013 79.2878 64.6268C79.1472 64.6779 78.9555 64.7227 78.7127 64.761C78.4698 64.8121 78.2462 64.8377 78.0417 64.8377ZM84.561 64.8377C83.692 64.8377 82.9379 64.6396 82.2989 64.2434C81.6599 63.8472 81.1615 63.2913 80.8037 62.5756C80.4586 61.8599 80.2861 61.0101 80.2861 60.026C80.2861 59.2976 80.3819 58.6394 80.5736 58.0515C80.7781 57.4636 81.0657 56.9588 81.4363 56.5371C81.8197 56.1026 82.2734 55.7767 82.7974 55.5594C83.3341 55.3294 83.922 55.2143 84.561 55.2143C85.4428 55.2143 86.2032 55.4124 86.8422 55.8086C87.4812 56.2048 87.9733 56.7671 88.3183 57.4956C88.6762 58.2113 88.8551 59.0547 88.8551 60.026C88.8551 60.7673 88.7528 61.4318 88.5484 62.0197C88.3567 62.6076 88.0691 63.1124 87.6857 63.5341C87.3151 63.9559 86.8678 64.2818 86.3438 64.5118C85.8198 64.7291 85.2256 64.8377 84.561 64.8377ZM84.561 63.86C85.2 63.86 85.7495 63.713 86.2096 63.4191C86.6825 63.1124 87.0403 62.6715 87.2831 62.0964C87.5387 61.5213 87.6665 60.8312 87.6665 60.026C87.6665 58.8119 87.3854 57.8726 86.8231 57.208C86.2735 56.5435 85.5195 56.2112 84.561 56.2112C83.9348 56.2112 83.3852 56.3645 82.9124 56.6713C82.4523 56.9652 82.0945 57.3997 81.8389 57.9748C81.596 58.5371 81.4746 59.2209 81.4746 60.026C81.4746 61.2529 81.7558 62.1986 82.3181 62.8632C82.8804 63.5277 83.6281 63.86 84.561 63.86ZM96.769 64.7993C96.5773 64.7993 96.4303 64.7482 96.3281 64.646C96.2259 64.5437 96.1747 64.3968 96.1747 64.2051V55.8661C96.1747 55.6616 96.2259 55.5083 96.3281 55.406C96.4303 55.3038 96.5773 55.2527 96.769 55.2527C96.9479 55.2527 97.0821 55.3038 97.1716 55.406C97.2738 55.5083 97.3249 55.6616 97.3249 55.8661V57.5723H97.1332C97.3633 56.8182 97.7722 56.2367 98.3601 55.8278C98.9608 55.4188 99.6765 55.208 100.507 55.1952C100.661 55.1824 100.788 55.2143 100.891 55.291C100.993 55.3677 101.044 55.4891 101.044 55.6553C101.057 55.8342 101.018 55.9748 100.929 56.077C100.839 56.1665 100.692 56.224 100.488 56.2495L100.22 56.2687C99.3122 56.3582 98.6093 56.6585 98.1109 57.1697C97.6125 57.6809 97.3633 58.371 97.3633 59.24V64.2051C97.3633 64.3968 97.3122 64.5437 97.2099 64.646C97.1205 64.7482 96.9735 64.7993 96.769 64.7993ZM106.66 64.8377C105.701 64.8377 104.877 64.646 104.187 64.2626C103.496 63.8792 102.966 63.3296 102.595 62.614C102.225 61.8983 102.04 61.0484 102.04 60.0644C102.04 59.0931 102.225 58.2496 102.595 57.5339C102.966 56.8055 103.477 56.2367 104.129 55.8278C104.794 55.4188 105.554 55.2143 106.41 55.2143C107.037 55.2143 107.586 55.323 108.059 55.5402C108.545 55.7447 108.954 56.045 109.286 56.4412C109.631 56.8246 109.893 57.2975 110.072 57.8598C110.251 58.4093 110.34 59.0356 110.34 59.7385C110.34 59.9174 110.289 60.0516 110.187 60.141C110.097 60.2305 109.97 60.2752 109.803 60.2752H102.883V59.4126H109.612L109.305 59.6618C109.305 58.9205 109.196 58.2943 108.979 57.7831C108.762 57.2591 108.436 56.8566 108.001 56.5754C107.58 56.2943 107.056 56.1537 106.429 56.1537C105.727 56.1537 105.132 56.3198 104.647 56.6521C104.161 56.9716 103.797 57.4189 103.554 57.994C103.311 58.5563 103.19 59.2081 103.19 59.9493V60.0452C103.19 61.2721 103.49 62.2178 104.091 62.8823C104.691 63.5341 105.535 63.86 106.621 63.86C107.094 63.86 107.548 63.7961 107.982 63.6683C108.43 63.5405 108.864 63.3233 109.286 63.0165C109.414 62.9271 109.535 62.8823 109.65 62.8823C109.778 62.8823 109.88 62.9143 109.957 62.9782C110.046 63.0421 110.104 63.1252 110.129 63.2274C110.168 63.3169 110.161 63.4191 110.11 63.5341C110.072 63.6364 109.989 63.7322 109.861 63.8217C109.452 64.154 108.96 64.4096 108.385 64.5885C107.81 64.7546 107.235 64.8377 106.66 64.8377ZM115.599 64.8377C114.973 64.8377 114.411 64.7163 113.912 64.4735C113.427 64.2306 113.037 63.8984 112.743 63.4766C112.462 63.0549 112.321 62.582 112.321 62.058C112.321 61.3679 112.494 60.8248 112.839 60.4286C113.184 60.0324 113.765 59.7576 114.583 59.6043C115.401 59.4381 116.526 59.3551 117.957 59.3551H118.782V60.2177H117.976C116.826 60.2177 115.925 60.2688 115.273 60.3711C114.634 60.4605 114.187 60.6331 113.932 60.8887C113.676 61.1443 113.548 61.5021 113.548 61.9622C113.548 62.5373 113.746 63.0038 114.142 63.3616C114.539 63.7194 115.075 63.8984 115.753 63.8984C116.302 63.8984 116.781 63.7706 117.19 63.515C117.612 63.2466 117.944 62.8823 118.187 62.4223C118.43 61.9622 118.552 61.4382 118.552 60.8503V58.6649C118.552 57.8087 118.379 57.1889 118.034 56.8055C117.689 56.4093 117.139 56.2112 116.385 56.2112C115.9 56.2112 115.427 56.2751 114.967 56.4029C114.519 56.5307 114.04 56.7352 113.529 57.0163C113.388 57.093 113.261 57.1186 113.146 57.093C113.043 57.0674 112.96 57.0163 112.896 56.9396C112.845 56.863 112.807 56.7735 112.781 56.6713C112.769 56.5562 112.788 56.4476 112.839 56.3454C112.89 56.2431 112.979 56.1601 113.107 56.0962C113.644 55.8022 114.187 55.585 114.737 55.4444C115.299 55.291 115.842 55.2143 116.366 55.2143C117.12 55.2143 117.74 55.3421 118.226 55.5977C118.724 55.8533 119.088 56.2367 119.318 56.7479C119.561 57.2591 119.683 57.9173 119.683 58.7225V64.2051C119.683 64.3968 119.638 64.5437 119.548 64.646C119.459 64.7482 119.325 64.7993 119.146 64.7993C118.967 64.7993 118.826 64.7482 118.724 64.646C118.622 64.5437 118.571 64.3968 118.571 64.2051V62.4414H118.762C118.647 62.9399 118.443 63.368 118.149 63.7258C117.855 64.0837 117.491 64.3584 117.056 64.5501C116.622 64.7418 116.136 64.8377 115.599 64.8377ZM126.286 64.8377C125.455 64.8377 124.727 64.646 124.1 64.2626C123.487 63.8664 123.008 63.3105 122.663 62.5948C122.33 61.8663 122.164 61.0101 122.164 60.026C122.164 59.042 122.33 58.1921 122.663 57.4764C122.995 56.7607 123.468 56.2048 124.081 55.8086C124.708 55.4124 125.442 55.2143 126.286 55.2143C127.155 55.2143 127.896 55.438 128.51 55.8853C129.123 56.3326 129.532 56.9333 129.736 57.6873H129.526V51.6487C129.526 51.4442 129.577 51.2973 129.679 51.2078C129.781 51.1056 129.922 51.0545 130.101 51.0545C130.292 51.0545 130.439 51.1056 130.542 51.2078C130.644 51.2973 130.695 51.4442 130.695 51.6487V64.2051C130.695 64.3968 130.644 64.5437 130.542 64.646C130.439 64.7482 130.299 64.7993 130.12 64.7993C129.928 64.7993 129.781 64.7482 129.679 64.646C129.577 64.5437 129.526 64.3968 129.526 64.2051V62.2306L129.736 62.3648C129.532 63.1188 129.123 63.7194 128.51 64.1667C127.896 64.614 127.155 64.8377 126.286 64.8377ZM126.439 63.86C127.078 63.86 127.628 63.713 128.088 63.4191C128.561 63.1124 128.919 62.6715 129.161 62.0964C129.417 61.5213 129.545 60.8312 129.545 60.026C129.545 58.8119 129.264 57.8726 128.701 57.208C128.152 56.5435 127.398 56.2112 126.439 56.2112C125.813 56.2112 125.263 56.3645 124.791 56.6713C124.331 56.9652 123.973 57.3997 123.717 57.9748C123.474 58.5371 123.353 59.2209 123.353 60.026C123.353 61.2529 123.634 62.1986 124.196 62.8632C124.759 63.5277 125.506 63.86 126.439 63.86ZM139.19 64.7993C138.998 64.7993 138.851 64.7482 138.749 64.646C138.647 64.5437 138.596 64.3968 138.596 64.2051V55.8661C138.596 55.6616 138.647 55.5083 138.749 55.406C138.851 55.3038 138.998 55.2527 139.19 55.2527C139.369 55.2527 139.503 55.3038 139.593 55.406C139.695 55.5083 139.746 55.6616 139.746 55.8661V57.6681L139.535 57.5531C139.791 56.7863 140.225 56.2048 140.839 55.8086C141.465 55.4124 142.181 55.2143 142.986 55.2143C143.727 55.2143 144.34 55.3485 144.826 55.6169C145.325 55.8725 145.695 56.2687 145.938 56.8055C146.181 57.3422 146.302 58.0132 146.302 58.8183V64.2051C146.302 64.3968 146.251 64.5437 146.149 64.646C146.047 64.7482 145.906 64.7993 145.727 64.7993C145.535 64.7993 145.388 64.7482 145.286 64.646C145.184 64.5437 145.133 64.3968 145.133 64.2051V58.9142C145.133 57.9812 144.948 57.3039 144.577 56.8821C144.206 56.4476 143.618 56.2304 142.813 56.2304C141.893 56.2304 141.152 56.5179 140.59 57.093C140.04 57.6553 139.765 58.4157 139.765 59.3742V64.2051C139.765 64.6013 139.574 64.7993 139.19 64.7993ZM153.023 64.8377C152.154 64.8377 151.4 64.6396 150.761 64.2434C150.122 63.8472 149.623 63.2913 149.265 62.5756C148.92 61.8599 148.748 61.0101 148.748 60.026C148.748 59.2976 148.844 58.6394 149.035 58.0515C149.24 57.4636 149.527 56.9588 149.898 56.5371C150.281 56.1026 150.735 55.7767 151.259 55.5594C151.796 55.3294 152.384 55.2143 153.023 55.2143C153.904 55.2143 154.665 55.4124 155.304 55.8086C155.943 56.2048 156.435 56.7671 156.78 57.4956C157.138 58.2113 157.317 59.0547 157.317 60.026C157.317 60.7673 157.214 61.4318 157.01 62.0197C156.818 62.6076 156.531 63.1124 156.147 63.5341C155.777 63.9559 155.329 64.2818 154.805 64.5118C154.281 64.7291 153.687 64.8377 153.023 64.8377ZM153.023 63.86C153.662 63.86 154.211 63.713 154.671 63.4191C155.144 63.1124 155.502 62.6715 155.745 62.0964C156 61.5213 156.128 60.8312 156.128 60.026C156.128 58.8119 155.847 57.8726 155.285 57.208C154.735 56.5435 153.981 56.2112 153.023 56.2112C152.396 56.2112 151.847 56.3645 151.374 56.6713C150.914 56.9652 150.556 57.3997 150.3 57.9748C150.058 58.5371 149.936 59.2209 149.936 60.026C149.936 61.2529 150.217 62.1986 150.78 62.8632C151.342 63.5277 152.09 63.86 153.023 63.86ZM163.221 64.8377C162.531 64.8377 161.956 64.7099 161.496 64.4543C161.036 64.1987 160.69 63.8345 160.46 63.3616C160.23 62.876 160.115 62.2817 160.115 61.5788V56.3262H158.697C158.531 56.3262 158.396 56.2879 158.294 56.2112C158.192 56.1217 158.141 56.0003 158.141 55.847C158.141 55.7064 158.192 55.5977 158.294 55.5211C158.396 55.4316 158.531 55.3869 158.697 55.3869H160.115V52.9906C160.115 52.7861 160.166 52.6392 160.269 52.5497C160.371 52.4475 160.518 52.3964 160.71 52.3964C160.889 52.3964 161.029 52.4475 161.131 52.5497C161.234 52.6392 161.285 52.7861 161.285 52.9906V55.3869H163.873C164.052 55.3869 164.186 55.4316 164.275 55.5211C164.365 55.5977 164.409 55.7064 164.409 55.847C164.409 56.0003 164.365 56.1217 164.275 56.2112C164.186 56.2879 164.052 56.3262 163.873 56.3262H161.285V61.4254C161.285 62.205 161.444 62.7993 161.764 63.2082C162.083 63.6172 162.614 63.8217 163.355 63.8217C163.611 63.8217 163.822 63.7961 163.988 63.745C164.167 63.6811 164.314 63.6491 164.429 63.6491C164.518 63.6491 164.595 63.6875 164.659 63.7642C164.735 63.8408 164.774 63.9623 164.774 64.1284C164.774 64.2306 164.748 64.3329 164.697 64.4351C164.659 64.5374 164.582 64.6013 164.467 64.6268C164.326 64.6779 164.135 64.7227 163.892 64.761C163.649 64.8121 163.425 64.8377 163.221 64.8377ZM170.085 64.8377C169.127 64.8377 168.302 64.646 167.612 64.2626C166.922 63.8792 166.392 63.3296 166.021 62.614C165.651 61.8983 165.465 61.0484 165.465 60.0644C165.465 59.0931 165.651 58.2496 166.021 57.5339C166.392 56.8055 166.903 56.2367 167.555 55.8278C168.219 55.4188 168.98 55.2143 169.836 55.2143C170.462 55.2143 171.012 55.323 171.485 55.5402C171.97 55.7447 172.379 56.045 172.712 56.4412C173.057 56.8246 173.319 57.2975 173.498 57.8598C173.676 58.4093 173.766 59.0356 173.766 59.7385C173.766 59.9174 173.715 60.0516 173.613 60.141C173.523 60.2305 173.395 60.2752 173.229 60.2752H166.309V59.4126H173.037L172.731 59.6618C172.731 58.9205 172.622 58.2943 172.405 57.7831C172.188 57.2591 171.862 56.8566 171.427 56.5754C171.005 56.2943 170.481 56.1537 169.855 56.1537C169.152 56.1537 168.558 56.3198 168.072 56.6521C167.587 56.9716 167.223 57.4189 166.98 57.994C166.737 58.5563 166.615 59.2081 166.615 59.9493V60.0452C166.615 61.2721 166.916 62.2178 167.516 62.8823C168.117 63.5341 168.961 63.86 170.047 63.86C170.52 63.86 170.973 63.7961 171.408 63.6683C171.855 63.5405 172.29 63.3233 172.712 63.0165C172.839 62.9271 172.961 62.8823 173.076 62.8823C173.204 62.8823 173.306 62.9143 173.383 62.9782C173.472 63.0421 173.529 63.1252 173.555 63.2274C173.593 63.3169 173.587 63.4191 173.536 63.5341C173.498 63.6364 173.414 63.7322 173.287 63.8217C172.878 64.154 172.386 64.4096 171.811 64.5885C171.235 64.7546 170.66 64.8377 170.085 64.8377ZM179.178 64.8377C178.603 64.8377 178.028 64.761 177.453 64.6076C176.891 64.4543 176.354 64.1923 175.843 63.8217C175.741 63.7578 175.67 63.6811 175.632 63.5916C175.606 63.4894 175.6 63.3872 175.613 63.2849C175.638 63.1827 175.683 63.0996 175.747 63.0357C175.824 62.959 175.913 62.9143 176.015 62.9015C176.118 62.8887 176.226 62.9207 176.341 62.9974C176.84 63.3296 177.325 63.5597 177.798 63.6875C178.271 63.8153 178.744 63.8792 179.217 63.8792C179.996 63.8792 180.591 63.7322 181 63.4383C181.409 63.1443 181.613 62.7482 181.613 62.2497C181.613 61.8408 181.479 61.5277 181.21 61.3104C180.955 61.0804 180.533 60.8951 179.945 60.7545L178.277 60.3711C177.472 60.1922 176.878 59.9046 176.495 59.5084C176.111 59.0995 175.92 58.5755 175.92 57.9365C175.92 57.3869 176.06 56.9077 176.341 56.4987C176.635 56.0898 177.044 55.7767 177.568 55.5594C178.105 55.3294 178.718 55.2143 179.408 55.2143C179.971 55.2143 180.508 55.2974 181.019 55.4636C181.53 55.6297 181.977 55.8853 182.361 56.2304C182.463 56.307 182.527 56.3965 182.552 56.4987C182.591 56.601 182.591 56.7032 182.552 56.8055C182.527 56.8949 182.476 56.9716 182.399 57.0355C182.322 57.0994 182.233 57.1313 182.131 57.1313C182.028 57.1313 181.92 57.093 181.805 57.0163C181.434 56.7352 181.044 56.5307 180.635 56.4029C180.226 56.2623 179.811 56.192 179.389 56.192C178.648 56.192 178.073 56.3454 177.664 56.6521C177.268 56.9588 177.07 57.3742 177.07 57.8981C177.07 58.2943 177.191 58.6138 177.434 58.8566C177.69 59.0995 178.086 59.2848 178.623 59.4126L180.29 59.796C181.121 59.9877 181.741 60.2752 182.15 60.6586C182.559 61.0292 182.763 61.5341 182.763 62.1731C182.763 62.991 182.437 63.6428 181.786 64.1284C181.147 64.6013 180.278 64.8377 179.178 64.8377ZM185.785 64.7418C185.53 64.7418 185.319 64.6588 185.153 64.4926C184.987 64.3265 184.904 64.1156 184.904 63.86C184.904 63.6044 184.987 63.3935 185.153 63.2274C185.319 63.0613 185.53 62.9782 185.785 62.9782C186.054 62.9782 186.265 63.0613 186.418 63.2274C186.584 63.3935 186.667 63.6044 186.667 63.86C186.667 64.1156 186.584 64.3265 186.418 64.4926C186.265 64.6588 186.054 64.7418 185.785 64.7418Z" fill="white"/>
</svg>
