<svg width="1920" height="300" viewBox="0 0 1920 300" fill="none" xmlns="http://www.w3.org/2000/svg">
<path d="M29.0114 0C-141.159 371.362 938.322 427.649 1920 0H29.0114Z" fill="#4E8679"/>
<path d="M13.8591 0C-128.35 345.911 849.922 371.821 1752.52 0H13.8591Z" fill="#66BAA7"/>
<path d="M348.489 102.383C345.263 102.383 342.501 101.697 340.202 100.324C337.903 98.9186 336.131 96.9228 334.886 94.3364C333.672 91.7499 333.065 88.6685 333.065 85.0921C333.065 82.4098 333.401 80.015 334.071 77.9075C334.774 75.768 335.78 73.9639 337.089 72.495C338.43 70.9942 340.059 69.8447 341.974 69.0464C343.922 68.2481 346.094 67.8489 348.489 67.8489C350.596 67.8489 352.56 68.1523 354.38 68.759C356.2 69.3657 357.765 70.2598 359.074 71.4413C359.393 71.7286 359.601 72.032 359.697 72.3513C359.792 72.6706 359.792 72.974 359.697 73.2614C359.633 73.5168 359.489 73.7404 359.266 73.9319C359.042 74.0916 358.771 74.1714 358.451 74.1714C358.164 74.1395 357.845 73.9798 357.493 73.6925C356.28 72.6387 354.923 71.8564 353.422 71.3455C351.953 70.8346 350.325 70.5791 348.536 70.5791C345.886 70.5791 343.635 71.1539 341.783 72.3034C339.963 73.421 338.574 75.0655 337.616 77.2369C336.69 79.4082 336.227 82.0267 336.227 85.0921C336.227 88.1895 336.69 90.8239 337.616 92.9952C338.574 95.1666 339.963 96.827 341.783 97.9766C343.635 99.0942 345.886 99.653 348.536 99.653C350.293 99.653 351.921 99.3976 353.422 98.8866C354.923 98.3438 356.296 97.5455 357.541 96.4918C357.892 96.2044 358.212 96.0607 358.499 96.0607C358.818 96.0607 359.074 96.1565 359.266 96.3481C359.489 96.5077 359.649 96.7313 359.744 97.0186C359.84 97.2741 359.84 97.5455 359.744 97.8329C359.681 98.1203 359.505 98.3917 359.218 98.6472C357.845 99.8925 356.248 100.834 354.428 101.473C352.64 102.08 350.66 102.383 348.489 102.383ZM373.48 102.383C371.309 102.383 369.425 101.888 367.828 100.898C366.231 99.9085 364.986 98.5194 364.092 96.7313C363.23 94.9431 362.799 92.8196 362.799 90.3609C362.799 88.5407 363.038 86.8963 363.517 85.4274C364.028 83.9585 364.747 82.6972 365.673 81.6435C366.631 80.5578 367.764 79.7435 369.073 79.2007C370.414 78.6259 371.883 78.3385 373.48 78.3385C375.683 78.3385 377.583 78.8335 379.18 79.8234C380.776 80.8132 382.006 82.2182 382.868 84.0384C383.762 85.8265 384.209 87.934 384.209 90.3609C384.209 92.2129 383.954 93.8734 383.443 95.3422C382.964 96.8111 382.245 98.0724 381.287 99.1261C380.361 100.18 379.244 100.994 377.934 101.569C376.625 102.112 375.14 102.383 373.48 102.383ZM373.48 99.9404C375.076 99.9404 376.45 99.5732 377.599 98.8388C378.781 98.0724 379.675 96.9707 380.281 95.5338C380.92 94.0969 381.239 92.3726 381.239 90.3609C381.239 87.3273 380.537 84.9803 379.132 83.3199C377.759 81.6594 375.875 80.8292 373.48 80.8292C371.915 80.8292 370.542 81.2124 369.361 81.9788C368.211 82.7132 367.317 83.7989 366.678 85.2358C366.072 86.6408 365.768 88.3492 365.768 90.3609C365.768 93.4263 366.471 95.7893 367.876 97.4497C369.281 99.1102 371.149 99.9404 373.48 99.9404ZM391.915 102.287C391.436 102.287 391.068 102.16 390.813 101.904C390.557 101.649 390.43 101.282 390.43 100.803V79.9671C390.43 79.4561 390.557 79.073 390.813 78.8175C391.068 78.5621 391.436 78.4343 391.915 78.4343C392.362 78.4343 392.697 78.5621 392.92 78.8175C393.176 79.073 393.304 79.4561 393.304 79.9671V84.4694L392.777 84.1821C393.415 82.2661 394.501 80.8132 396.034 79.8234C397.598 78.8335 399.387 78.3385 401.398 78.3385C403.25 78.3385 404.783 78.6738 405.996 79.3444C407.242 79.983 408.168 80.9729 408.775 82.314C409.381 83.6552 409.685 85.3316 409.685 87.3433V100.803C409.685 101.282 409.557 101.649 409.301 101.904C409.046 102.16 408.695 102.287 408.248 102.287C407.769 102.287 407.401 102.16 407.146 101.904C406.891 101.649 406.763 101.282 406.763 100.803V87.5828C406.763 85.2518 406.3 83.5594 405.374 82.5056C404.448 81.42 402.979 80.8771 400.967 80.8771C398.668 80.8771 396.816 81.5956 395.411 83.0325C394.038 84.4375 393.351 86.3374 393.351 88.7323V100.803C393.351 101.792 392.872 102.287 391.915 102.287ZM425.38 102.287C424.901 102.287 424.502 102.16 424.183 101.904C423.863 101.649 423.576 101.266 423.32 100.755L414.699 80.6376C414.539 80.2544 414.475 79.9032 414.507 79.5839C414.571 79.2326 414.715 78.9612 414.938 78.7696C415.194 78.5461 415.545 78.4343 415.992 78.4343C416.407 78.4343 416.711 78.5301 416.902 78.7217C417.126 78.9133 417.317 79.2167 417.477 79.6318L426.003 100.228H424.805L433.379 79.6318C433.539 79.2167 433.73 78.9133 433.954 78.7217C434.177 78.5301 434.497 78.4343 434.912 78.4343C435.327 78.4343 435.63 78.5461 435.822 78.7696C436.045 78.9612 436.173 79.2167 436.205 79.536C436.237 79.8553 436.173 80.2065 436.013 80.5897L427.392 100.755C427.2 101.266 426.929 101.649 426.577 101.904C426.226 102.16 425.827 102.287 425.38 102.287ZM451.194 102.383C448.799 102.383 446.739 101.904 445.015 100.946C443.29 99.9883 441.965 98.6152 441.039 96.827C440.113 95.0389 439.65 92.9154 439.65 90.4567C439.65 88.0298 440.113 85.9223 441.039 84.1342C441.965 82.314 443.243 80.8931 444.871 79.8713C446.532 78.8494 448.431 78.3385 450.571 78.3385C452.136 78.3385 453.509 78.61 454.69 79.1528C455.903 79.6637 456.925 80.4141 457.756 81.404C458.618 82.3619 459.272 83.5434 459.719 84.9484C460.166 86.3215 460.39 87.8861 460.39 89.6424C460.39 90.0894 460.262 90.4247 460.007 90.6482C459.783 90.8718 459.464 90.9835 459.049 90.9835H441.758V88.8281H458.57L457.803 89.4508C457.803 87.5988 457.532 86.0341 456.989 84.7568C456.446 83.4476 455.632 82.4418 454.546 81.7393C453.493 81.0368 452.183 80.6855 450.619 80.6855C448.863 80.6855 447.378 81.1006 446.164 81.9309C444.951 82.7292 444.041 83.8468 443.434 85.2837C442.827 86.6887 442.524 88.3172 442.524 90.1693V90.4088C442.524 93.4742 443.274 95.8372 444.775 97.4976C446.276 99.1261 448.384 99.9404 451.098 99.9404C452.279 99.9404 453.413 99.7807 454.498 99.4614C455.616 99.1421 456.702 98.5993 457.756 97.8329C458.075 97.6094 458.378 97.4976 458.666 97.4976C458.985 97.4976 459.24 97.5774 459.432 97.7371C459.655 97.8968 459.799 98.1043 459.863 98.3598C459.959 98.5833 459.943 98.8388 459.815 99.1261C459.719 99.3816 459.512 99.6211 459.192 99.8446C458.171 100.675 456.941 101.313 455.504 101.761C454.067 102.176 452.63 102.383 451.194 102.383ZM467.831 102.287C467.352 102.287 466.984 102.16 466.729 101.904C466.473 101.649 466.346 101.282 466.346 100.803V79.9671C466.346 79.4561 466.473 79.073 466.729 78.8175C466.984 78.5621 467.352 78.4343 467.831 78.4343C468.278 78.4343 468.613 78.5621 468.836 78.8175C469.092 79.073 469.22 79.4561 469.22 79.9671V84.2299H468.741C469.315 82.346 470.337 80.8931 471.806 79.8713C473.307 78.8494 475.095 78.3226 477.171 78.2906C477.554 78.2587 477.873 78.3385 478.129 78.5301C478.384 78.7217 478.512 79.0251 478.512 79.4402C478.544 79.8872 478.448 80.2385 478.224 80.4939C478.001 80.7174 477.634 80.8611 477.123 80.925L476.452 80.9729C474.185 81.1964 472.429 81.9468 471.183 83.2241C469.938 84.5014 469.315 86.2257 469.315 88.3971V100.803C469.315 101.282 469.188 101.649 468.932 101.904C468.709 102.16 468.341 102.287 467.831 102.287ZM492.745 102.383C491.021 102.383 489.584 102.064 488.434 101.425C487.285 100.787 486.423 99.8765 485.848 98.6951C485.273 97.4816 484.986 95.9968 484.986 94.2406V81.1166H481.441C481.026 81.1166 480.691 81.0208 480.435 80.8292C480.18 80.6057 480.052 80.3023 480.052 79.9192C480.052 79.5679 480.18 79.2965 480.435 79.1049C480.691 78.8814 481.026 78.7696 481.441 78.7696H484.986V72.7824C484.986 72.2715 485.113 71.9043 485.369 71.6807C485.624 71.4253 485.992 71.2976 486.471 71.2976C486.918 71.2976 487.269 71.4253 487.524 71.6807C487.78 71.9043 487.908 72.2715 487.908 72.7824V78.7696H494.374C494.821 78.7696 495.156 78.8814 495.38 79.1049C495.603 79.2965 495.715 79.5679 495.715 79.9192C495.715 80.3023 495.603 80.6057 495.38 80.8292C495.156 81.0208 494.821 81.1166 494.374 81.1166H487.908V93.8574C487.908 95.8052 488.307 97.2901 489.105 98.3119C489.903 99.3337 491.228 99.8446 493.08 99.8446C493.719 99.8446 494.246 99.7807 494.661 99.653C495.108 99.4934 495.475 99.4135 495.763 99.4135C495.986 99.4135 496.178 99.5093 496.338 99.7009C496.529 99.8925 496.625 100.196 496.625 100.611C496.625 100.866 496.561 101.122 496.433 101.377C496.338 101.633 496.146 101.792 495.859 101.856C495.507 101.984 495.028 102.096 494.422 102.192C493.815 102.319 493.256 102.383 492.745 102.383ZM518.797 102.383C516.658 102.383 514.998 101.713 513.816 100.371C512.667 99.0303 512.092 97.1304 512.092 94.6716V69.4296C512.092 68.9186 512.219 68.5514 512.475 68.3279C512.73 68.0725 513.098 67.9447 513.577 67.9447C514.024 67.9447 514.375 68.0725 514.63 68.3279C514.886 68.5514 515.014 68.9186 515.014 69.4296V94.3364C515.014 96.1884 515.381 97.5774 516.115 98.5035C516.85 99.3976 517.919 99.8446 519.324 99.8446C519.644 99.8446 519.915 99.8286 520.139 99.7967C520.362 99.7648 520.586 99.7488 520.809 99.7488C521.097 99.7169 521.304 99.7807 521.432 99.9404C521.591 100.068 521.671 100.356 521.671 100.803C521.671 101.25 521.56 101.585 521.336 101.808C521.112 102.032 520.745 102.192 520.234 102.287C520.011 102.319 519.771 102.335 519.516 102.335C519.292 102.367 519.053 102.383 518.797 102.383ZM535.623 102.383C533.228 102.383 531.168 101.904 529.444 100.946C527.719 99.9883 526.394 98.6152 525.468 96.827C524.542 95.0389 524.079 92.9154 524.079 90.4567C524.079 88.0298 524.542 85.9223 525.468 84.1342C526.394 82.314 527.672 80.8931 529.3 79.8713C530.961 78.8494 532.861 78.3385 535 78.3385C536.565 78.3385 537.938 78.61 539.119 79.1528C540.333 79.6637 541.354 80.4141 542.185 81.404C543.047 82.3619 543.701 83.5434 544.148 84.9484C544.595 86.3215 544.819 87.8861 544.819 89.6424C544.819 90.0894 544.691 90.4247 544.436 90.6482C544.212 90.8718 543.893 90.9835 543.478 90.9835H526.187V88.8281H542.999L542.233 89.4508C542.233 87.5988 541.961 86.0341 541.418 84.7568C540.875 83.4476 540.061 82.4418 538.975 81.7393C537.922 81.0368 536.613 80.6855 535.048 80.6855C533.292 80.6855 531.807 81.1006 530.593 81.9309C529.38 82.7292 528.47 83.8468 527.863 85.2837C527.256 86.6887 526.953 88.3172 526.953 90.1693V90.4088C526.953 93.4742 527.704 95.8372 529.204 97.4976C530.705 99.1261 532.813 99.9404 535.527 99.9404C536.708 99.9404 537.842 99.7807 538.928 99.4614C540.045 99.1421 541.131 98.5993 542.185 97.8329C542.504 97.6094 542.807 97.4976 543.095 97.4976C543.414 97.4976 543.669 97.5774 543.861 97.7371C544.085 97.8968 544.228 98.1043 544.292 98.3598C544.388 98.5833 544.372 98.8388 544.244 99.1261C544.148 99.3816 543.941 99.6211 543.622 99.8446C542.6 100.675 541.37 101.313 539.933 101.761C538.496 102.176 537.06 102.383 535.623 102.383ZM560.259 102.383C557.991 102.383 556.044 101.888 554.415 100.898C552.786 99.8765 551.525 98.4556 550.631 96.6355C549.769 94.7834 549.338 92.644 549.338 90.2172C549.338 88.3651 549.577 86.7206 550.056 85.2837C550.567 83.8148 551.286 82.5695 552.212 81.5477C553.17 80.5259 554.319 79.7435 555.66 79.2007C557.033 78.6259 558.566 78.3385 560.259 78.3385C561.44 78.3385 562.653 78.5461 563.899 78.9612C565.144 79.3444 566.278 79.999 567.299 80.925C567.523 81.1166 567.667 81.3401 567.731 81.5956C567.794 81.851 567.778 82.1065 567.683 82.3619C567.587 82.5855 567.443 82.7771 567.252 82.9367C567.06 83.0644 566.82 83.1443 566.533 83.1762C566.278 83.1762 566.006 83.0485 565.719 82.793C564.825 82.0586 563.915 81.5636 562.989 81.3082C562.095 81.0208 561.216 80.8771 560.354 80.8771C559.045 80.8771 557.896 81.0847 556.906 81.4998C555.916 81.9149 555.07 82.5216 554.367 83.3199C553.697 84.1182 553.186 85.1081 552.834 86.2896C552.483 87.4391 552.307 88.7643 552.307 90.2651C552.307 93.2667 552.994 95.6296 554.367 97.3539C555.772 99.0463 557.768 99.8925 560.354 99.8925C561.216 99.8925 562.095 99.7648 562.989 99.5093C563.915 99.2219 564.825 98.711 565.719 97.9766C566.006 97.7211 566.278 97.6094 566.533 97.6413C566.82 97.6413 567.06 97.7211 567.252 97.8808C567.443 98.0085 567.571 98.2001 567.635 98.4556C567.731 98.6791 567.747 98.9186 567.683 99.174C567.619 99.4295 567.475 99.653 567.252 99.8446C566.262 100.771 565.144 101.425 563.899 101.808C562.653 102.192 561.44 102.383 560.259 102.383ZM581.524 102.383C579.8 102.383 578.363 102.064 577.214 101.425C576.064 100.787 575.202 99.8765 574.627 98.6951C574.052 97.4816 573.765 95.9968 573.765 94.2406V81.1166H570.22C569.805 81.1166 569.47 81.0208 569.215 80.8292C568.959 80.6057 568.831 80.3023 568.831 79.9192C568.831 79.5679 568.959 79.2965 569.215 79.1049C569.47 78.8814 569.805 78.7696 570.22 78.7696H573.765V72.7824C573.765 72.2715 573.893 71.9043 574.148 71.6807C574.404 71.4253 574.771 71.2976 575.25 71.2976C575.697 71.2976 576.048 71.4253 576.303 71.6807C576.559 71.9043 576.687 72.2715 576.687 72.7824V78.7696H583.153C583.6 78.7696 583.935 78.8814 584.159 79.1049C584.382 79.2965 584.494 79.5679 584.494 79.9192C584.494 80.3023 584.382 80.6057 584.159 80.8292C583.935 81.0208 583.6 81.1166 583.153 81.1166H576.687V93.8574C576.687 95.8052 577.086 97.2901 577.884 98.3119C578.682 99.3337 580.008 99.8446 581.86 99.8446C582.498 99.8446 583.025 99.7807 583.44 99.653C583.887 99.4934 584.255 99.4135 584.542 99.4135C584.765 99.4135 584.957 99.5093 585.117 99.7009C585.308 99.8925 585.404 100.196 585.404 100.611C585.404 100.866 585.34 101.122 585.212 101.377C585.117 101.633 584.925 101.792 584.638 101.856C584.286 101.984 583.807 102.096 583.201 102.192C582.594 102.319 582.035 102.383 581.524 102.383ZM596.993 102.383C595.141 102.383 593.593 102.048 592.347 101.377C591.134 100.707 590.224 99.7009 589.617 98.3598C589.01 97.0186 588.707 95.3582 588.707 93.3784V79.9671C588.707 79.4561 588.835 79.073 589.09 78.8175C589.346 78.5621 589.713 78.4343 590.192 78.4343C590.639 78.4343 590.99 78.5621 591.246 78.8175C591.501 79.073 591.629 79.4561 591.629 79.9671V93.2347C591.629 95.4699 592.092 97.1464 593.018 98.264C593.944 99.3497 595.397 99.8925 597.377 99.8925C599.548 99.8925 601.304 99.174 602.645 97.7371C603.986 96.2682 604.657 94.3523 604.657 91.9894V79.9671C604.657 79.4561 604.785 79.073 605.04 78.8175C605.296 78.5621 605.663 78.4343 606.142 78.4343C606.589 78.4343 606.94 78.5621 607.196 78.8175C607.451 79.073 607.579 79.4561 607.579 79.9671V100.803C607.579 101.792 607.116 102.287 606.19 102.287C605.743 102.287 605.391 102.16 605.136 101.904C604.881 101.649 604.753 101.282 604.753 100.803V96.0607L605.328 96.396C604.721 98.3438 603.667 99.8286 602.166 100.85C600.666 101.872 598.941 102.383 596.993 102.383ZM616.762 102.287C616.284 102.287 615.916 102.16 615.661 101.904C615.405 101.649 615.278 101.282 615.278 100.803V79.9671C615.278 79.4561 615.405 79.073 615.661 78.8175C615.916 78.5621 616.284 78.4343 616.762 78.4343C617.21 78.4343 617.545 78.5621 617.768 78.8175C618.024 79.073 618.152 79.4561 618.152 79.9671V84.2299H617.673C618.247 82.346 619.269 80.8931 620.738 79.8713C622.239 78.8494 624.027 78.3226 626.103 78.2906C626.486 78.2587 626.805 78.3385 627.06 78.5301C627.316 78.7217 627.444 79.0251 627.444 79.4402C627.476 79.8872 627.38 80.2385 627.156 80.4939C626.933 80.7174 626.566 80.8611 626.055 80.925L625.384 80.9729C623.117 81.1964 621.361 81.9468 620.115 83.2241C618.87 84.5014 618.247 86.2257 618.247 88.3971V100.803C618.247 101.282 618.12 101.649 617.864 101.904C617.641 102.16 617.273 102.287 616.762 102.287ZM641.475 102.383C639.08 102.383 637.02 101.904 635.296 100.946C633.572 99.9883 632.246 98.6152 631.32 96.827C630.394 95.0389 629.931 92.9154 629.931 90.4567C629.931 88.0298 630.394 85.9223 631.32 84.1342C632.246 82.314 633.524 80.8931 635.152 79.8713C636.813 78.8494 638.713 78.3385 640.852 78.3385C642.417 78.3385 643.79 78.61 644.971 79.1528C646.185 79.6637 647.206 80.4141 648.037 81.404C648.899 82.3619 649.553 83.5434 650 84.9484C650.448 86.3215 650.671 87.8861 650.671 89.6424C650.671 90.0894 650.543 90.4247 650.288 90.6482C650.064 90.8718 649.745 90.9835 649.33 90.9835H632.039V88.8281H648.851L648.085 89.4508C648.085 87.5988 647.813 86.0341 647.27 84.7568C646.727 83.4476 645.913 82.4418 644.828 81.7393C643.774 81.0368 642.465 80.6855 640.9 80.6855C639.144 80.6855 637.659 81.1006 636.445 81.9309C635.232 82.7292 634.322 83.8468 633.715 85.2837C633.109 86.6887 632.805 88.3172 632.805 90.1693V90.4088C632.805 93.4742 633.556 95.8372 635.056 97.4976C636.557 99.1261 638.665 99.9404 641.379 99.9404C642.56 99.9404 643.694 99.7807 644.78 99.4614C645.897 99.1421 646.983 98.5993 648.037 97.8329C648.356 97.6094 648.659 97.4976 648.947 97.4976C649.266 97.4976 649.522 97.5774 649.713 97.7371C649.937 97.8968 650.08 98.1043 650.144 98.3598C650.24 98.5833 650.224 98.8388 650.096 99.1261C650 99.3816 649.793 99.6211 649.474 99.8446C648.452 100.675 647.222 101.313 645.785 101.761C644.349 102.176 642.912 102.383 641.475 102.383ZM664.195 102.383C662.758 102.383 661.321 102.192 659.884 101.808C658.479 101.425 657.138 100.771 655.86 99.8446C655.605 99.6849 655.429 99.4934 655.334 99.2698C655.27 99.0144 655.254 98.7589 655.286 98.5035C655.35 98.248 655.461 98.0405 655.621 97.8808C655.813 97.6892 656.036 97.5774 656.292 97.5455C656.547 97.5136 656.818 97.5934 657.106 97.785C658.351 98.6152 659.565 99.19 660.746 99.5093C661.928 99.8286 663.109 99.9883 664.29 99.9883C666.238 99.9883 667.723 99.6211 668.745 98.8866C669.767 98.1522 670.278 97.1623 670.278 95.917C670.278 94.8952 669.942 94.1128 669.272 93.57C668.633 92.9952 667.579 92.5322 666.111 92.181L661.943 91.223C659.932 90.776 658.447 90.0575 657.489 89.0676C656.531 88.0458 656.052 86.7366 656.052 85.14C656.052 83.7669 656.403 82.5695 657.106 81.5477C657.84 80.5259 658.862 79.7435 660.171 79.2007C661.512 78.6259 663.045 78.3385 664.769 78.3385C666.174 78.3385 667.516 78.5461 668.793 78.9612C670.07 79.3763 671.188 80.015 672.146 80.8771C672.401 81.0687 672.561 81.2922 672.625 81.5477C672.72 81.8031 672.72 82.0586 672.625 82.314C672.561 82.5376 672.433 82.7292 672.241 82.8888C672.05 83.0485 671.826 83.1283 671.571 83.1283C671.315 83.1283 671.044 83.0325 670.757 82.8409C669.831 82.1384 668.857 81.6275 667.835 81.3082C666.813 80.9569 665.775 80.7813 664.722 80.7813C662.869 80.7813 661.433 81.1645 660.411 81.9309C659.421 82.6972 658.926 83.735 658.926 85.0442C658.926 86.0341 659.229 86.8324 659.836 87.4391C660.475 88.0458 661.464 88.5088 662.806 88.8281L666.973 89.7861C669.048 90.2651 670.597 90.9835 671.619 91.9415C672.641 92.8675 673.152 94.1288 673.152 95.7254C673.152 97.769 672.337 99.3976 670.709 100.611C669.112 101.792 666.941 102.383 664.195 102.383ZM700.333 102.383C698.609 102.383 697.172 102.064 696.022 101.425C694.873 100.787 694.011 99.8765 693.436 98.6951C692.861 97.4816 692.574 95.9968 692.574 94.2406V81.1166H689.029C688.614 81.1166 688.279 81.0208 688.023 80.8292C687.768 80.6057 687.64 80.3023 687.64 79.9192C687.64 79.5679 687.768 79.2965 688.023 79.1049C688.279 78.8814 688.614 78.7696 689.029 78.7696H692.574V72.7824C692.574 72.2715 692.701 71.9043 692.957 71.6807C693.212 71.4253 693.58 71.2976 694.059 71.2976C694.506 71.2976 694.857 71.4253 695.112 71.6807C695.368 71.9043 695.495 72.2715 695.495 72.7824V78.7696H701.962C702.409 78.7696 702.744 78.8814 702.967 79.1049C703.191 79.2965 703.303 79.5679 703.303 79.9192C703.303 80.3023 703.191 80.6057 702.967 80.8292C702.744 81.0208 702.409 81.1166 701.962 81.1166H695.495V93.8574C695.495 95.8052 695.895 97.2901 696.693 98.3119C697.491 99.3337 698.816 99.8446 700.668 99.8446C701.307 99.8446 701.834 99.7807 702.249 99.653C702.696 99.4934 703.063 99.4135 703.351 99.4135C703.574 99.4135 703.766 99.5093 703.925 99.7009C704.117 99.8925 704.213 100.196 704.213 100.611C704.213 100.866 704.149 101.122 704.021 101.377C703.925 101.633 703.734 101.792 703.446 101.856C703.095 101.984 702.616 102.096 702.01 102.192C701.403 102.319 700.844 102.383 700.333 102.383ZM716.622 102.383C714.451 102.383 712.567 101.888 710.97 100.898C709.374 99.9085 708.128 98.5194 707.234 96.7313C706.372 94.9431 705.941 92.8196 705.941 90.3609C705.941 88.5407 706.18 86.8963 706.659 85.4274C707.17 83.9585 707.889 82.6972 708.815 81.6435C709.773 80.5578 710.906 79.7435 712.216 79.2007C713.557 78.6259 715.026 78.3385 716.622 78.3385C718.825 78.3385 720.725 78.8335 722.322 79.8234C723.919 80.8132 725.148 82.2182 726.01 84.0384C726.904 85.8265 727.351 87.934 727.351 90.3609C727.351 92.2129 727.096 93.8734 726.585 95.3422C726.106 96.8111 725.387 98.0724 724.429 99.1261C723.503 100.18 722.386 100.994 721.077 101.569C719.767 102.112 718.283 102.383 716.622 102.383ZM716.622 99.9404C718.219 99.9404 719.592 99.5732 720.741 98.8388C721.923 98.0724 722.817 96.9707 723.424 95.5338C724.062 94.0969 724.382 92.3726 724.382 90.3609C724.382 87.3273 723.679 84.9803 722.274 83.3199C720.901 81.6594 719.017 80.8292 716.622 80.8292C715.057 80.8292 713.684 81.2124 712.503 81.9788C711.353 82.7132 710.459 83.7989 709.821 85.2358C709.214 86.6408 708.911 88.3492 708.911 90.3609C708.911 93.4263 709.613 95.7893 711.018 97.4497C712.423 99.1102 714.291 99.9404 716.622 99.9404ZM756.704 102.383C754.533 102.383 752.681 101.824 751.148 100.707C749.615 99.5891 748.578 98.0884 748.035 96.2044L748.562 95.917V100.803C748.562 101.282 748.434 101.649 748.178 101.904C747.923 102.16 747.572 102.287 747.125 102.287C746.646 102.287 746.278 102.16 746.023 101.904C745.768 101.649 745.64 101.282 745.64 100.803V69.4296C745.64 68.9186 745.768 68.5514 746.023 68.3279C746.278 68.0725 746.646 67.9447 747.125 67.9447C747.572 67.9447 747.923 68.0725 748.178 68.3279C748.434 68.5514 748.562 68.9186 748.562 69.4296V84.5173H748.035C748.578 82.6334 749.615 81.1326 751.148 80.015C752.681 78.8973 754.533 78.3385 756.704 78.3385C758.812 78.3385 760.632 78.8335 762.165 79.8234C763.697 80.8132 764.879 82.2023 765.709 83.9905C766.571 85.7786 767.002 87.9021 767.002 90.3609C767.002 92.8196 766.571 94.959 765.709 96.7791C764.879 98.5673 763.681 99.9564 762.117 100.946C760.584 101.904 758.78 102.383 756.704 102.383ZM756.273 99.9404C757.838 99.9404 759.195 99.5732 760.344 98.8388C761.526 98.0724 762.436 96.9707 763.075 95.5338C763.713 94.0969 764.033 92.3726 764.033 90.3609C764.033 87.3273 763.33 84.9803 761.925 83.3199C760.52 81.6594 758.636 80.8292 756.273 80.8292C754.708 80.8292 753.335 81.2124 752.154 81.9788C751.004 82.7132 750.11 83.7989 749.472 85.2358C748.833 86.6408 748.514 88.3492 748.514 90.3609C748.514 93.4263 749.216 95.7893 750.621 97.4497C752.026 99.1102 753.91 99.9404 756.273 99.9404ZM777.795 110.909C777.412 110.909 777.109 110.797 776.885 110.574C776.662 110.382 776.534 110.111 776.502 109.759C776.502 109.44 776.566 109.105 776.694 108.754L779.999 101.234V102.575L770.611 80.6376C770.451 80.2544 770.387 79.9032 770.419 79.5839C770.483 79.2326 770.627 78.9612 770.85 78.7696C771.106 78.5461 771.457 78.4343 771.904 78.4343C772.319 78.4343 772.622 78.5301 772.814 78.7217C773.037 78.9133 773.229 79.2167 773.389 79.6318L781.915 100.276H780.717L789.243 79.6318C789.434 79.1847 789.642 78.8814 789.866 78.7217C790.089 78.5301 790.408 78.4343 790.824 78.4343C791.239 78.4343 791.542 78.5461 791.734 78.7696C791.957 78.9612 792.085 79.2167 792.117 79.536C792.149 79.8553 792.085 80.2065 791.925 80.5897L779.424 109.759C779.232 110.206 779.009 110.51 778.753 110.669C778.53 110.829 778.21 110.909 777.795 110.909ZM806.372 102.383C804.648 102.383 803.211 102.064 802.061 101.425C800.912 100.787 800.05 99.8765 799.475 98.6951C798.9 97.4816 798.613 95.9968 798.613 94.2406V81.1166H795.068C794.653 81.1166 794.318 81.0208 794.063 80.8292C793.807 80.6057 793.679 80.3023 793.679 79.9192C793.679 79.5679 793.807 79.2965 794.063 79.1049C794.318 78.8814 794.653 78.7696 795.068 78.7696H798.613V72.7824C798.613 72.2715 798.741 71.9043 798.996 71.6807C799.251 71.4253 799.619 71.2976 800.098 71.2976C800.545 71.2976 800.896 71.4253 801.151 71.6807C801.407 71.9043 801.535 72.2715 801.535 72.7824V78.7696H808.001C808.448 78.7696 808.783 78.8814 809.007 79.1049C809.23 79.2965 809.342 79.5679 809.342 79.9192C809.342 80.3023 809.23 80.6057 809.007 80.8292C808.783 81.0208 808.448 81.1166 808.001 81.1166H801.535V93.8574C801.535 95.8052 801.934 97.2901 802.732 98.3119C803.53 99.3337 804.856 99.8446 806.708 99.8446C807.346 99.8446 807.873 99.7807 808.288 99.653C808.735 99.4934 809.102 99.4135 809.39 99.4135C809.613 99.4135 809.805 99.5093 809.965 99.7009C810.156 99.8925 810.252 100.196 810.252 100.611C810.252 100.866 810.188 101.122 810.06 101.377C809.965 101.633 809.773 101.792 809.486 101.856C809.134 101.984 808.655 102.096 808.049 102.192C807.442 102.319 806.883 102.383 806.372 102.383ZM823.523 102.383C821.129 102.383 819.069 101.904 817.345 100.946C815.62 99.9883 814.295 98.6152 813.369 96.827C812.443 95.0389 811.98 92.9154 811.98 90.4567C811.98 88.0298 812.443 85.9223 813.369 84.1342C814.295 82.314 815.572 80.8931 817.201 79.8713C818.861 78.8494 820.761 78.3385 822.901 78.3385C824.465 78.3385 825.838 78.61 827.02 79.1528C828.233 79.6637 829.255 80.4141 830.085 81.404C830.948 82.3619 831.602 83.5434 832.049 84.9484C832.496 86.3215 832.72 87.8861 832.72 89.6424C832.72 90.0894 832.592 90.4247 832.337 90.6482C832.113 90.8718 831.794 90.9835 831.379 90.9835H814.088V88.8281H830.9L830.133 89.4508C830.133 87.5988 829.862 86.0341 829.319 84.7568C828.776 83.4476 827.962 82.4418 826.876 81.7393C825.822 81.0368 824.513 80.6855 822.949 80.6855C821.192 80.6855 819.708 81.1006 818.494 81.9309C817.281 82.7292 816.371 83.8468 815.764 85.2837C815.157 86.6887 814.854 88.3172 814.854 90.1693V90.4088C814.854 93.4742 815.604 95.8372 817.105 97.4976C818.606 99.1261 820.713 99.9404 823.428 99.9404C824.609 99.9404 825.743 99.7807 826.828 99.4614C827.946 99.1421 829.032 98.5993 830.085 97.8329C830.405 97.6094 830.708 97.4976 830.995 97.4976C831.315 97.4976 831.57 97.5774 831.762 97.7371C831.985 97.8968 832.129 98.1043 832.193 98.3598C832.289 98.5833 832.273 98.8388 832.145 99.1261C832.049 99.3816 831.842 99.6211 831.522 99.8446C830.501 100.675 829.271 101.313 827.834 101.761C826.397 102.176 824.96 102.383 823.523 102.383ZM839.909 90.5045C839.557 90.5045 839.254 90.3928 838.998 90.1693C838.743 89.9138 838.615 89.6105 838.615 89.2592C838.615 88.908 838.743 88.6206 838.998 88.3971C839.254 88.1416 839.557 88.0139 839.909 88.0139H850.973C851.324 88.0139 851.612 88.1416 851.835 88.3971C852.091 88.6206 852.218 88.908 852.218 89.2592C852.218 89.6105 852.091 89.9138 851.835 90.1693C851.612 90.3928 851.324 90.5045 850.973 90.5045H839.909ZM866.871 102.383C865.434 102.383 863.997 102.192 862.56 101.808C861.155 101.425 859.814 100.771 858.537 99.8446C858.282 99.6849 858.106 99.4934 858.01 99.2698C857.946 99.0144 857.93 98.7589 857.962 98.5035C858.026 98.248 858.138 98.0405 858.298 97.8808C858.489 97.6892 858.713 97.5774 858.968 97.5455C859.224 97.5136 859.495 97.5934 859.782 97.785C861.028 98.6152 862.241 99.19 863.423 99.5093C864.604 99.8286 865.786 99.9883 866.967 99.9883C868.915 99.9883 870.4 99.6211 871.421 98.8866C872.443 98.1522 872.954 97.1623 872.954 95.917C872.954 94.8952 872.619 94.1128 871.948 93.57C871.31 92.9952 870.256 92.5322 868.787 92.181L864.62 91.223C862.608 90.776 861.123 90.0575 860.166 89.0676C859.208 88.0458 858.729 86.7366 858.729 85.14C858.729 83.7669 859.08 82.5695 859.782 81.5477C860.517 80.5259 861.539 79.7435 862.848 79.2007C864.189 78.6259 865.722 78.3385 867.446 78.3385C868.851 78.3385 870.192 78.5461 871.469 78.9612C872.747 79.3763 873.864 80.015 874.822 80.8771C875.078 81.0687 875.237 81.2922 875.301 81.5477C875.397 81.8031 875.397 82.0586 875.301 82.314C875.237 82.5376 875.11 82.7292 874.918 82.8888C874.726 83.0485 874.503 83.1283 874.247 83.1283C873.992 83.1283 873.721 83.0325 873.433 82.8409C872.507 82.1384 871.533 81.6275 870.511 81.3082C869.49 80.9569 868.452 80.7813 867.398 80.7813C865.546 80.7813 864.109 81.1645 863.087 81.9309C862.097 82.6972 861.602 83.735 861.602 85.0442C861.602 86.0341 861.906 86.8324 862.513 87.4391C863.151 88.0458 864.141 88.5088 865.482 88.8281L869.649 89.7861C871.725 90.2651 873.274 90.9835 874.295 91.9415C875.317 92.8675 875.828 94.1288 875.828 95.7254C875.828 97.769 875.014 99.3976 873.385 100.611C871.789 101.792 869.617 102.383 866.871 102.383ZM883.661 102.192C883.182 102.192 882.815 102.048 882.56 101.761C882.304 101.473 882.176 101.09 882.176 100.611V80.1107C882.176 79.5998 882.304 79.2167 882.56 78.9612C882.815 78.7057 883.182 78.578 883.661 78.578C884.108 78.578 884.46 78.7057 884.715 78.9612C884.97 79.2167 885.098 79.5998 885.098 80.1107V100.611C885.098 101.09 884.97 101.473 884.715 101.761C884.491 102.048 884.14 102.192 883.661 102.192ZM883.661 72.7824C882.991 72.7824 882.464 72.6068 882.081 72.2555C881.729 71.9043 881.554 71.4093 881.554 70.7707C881.554 70.1321 881.729 69.6531 882.081 69.3338C882.464 68.9825 882.991 68.8069 883.661 68.8069C884.332 68.8069 884.843 68.9825 885.194 69.3338C885.577 69.6531 885.769 70.1321 885.769 70.7707C885.769 71.4093 885.577 71.9043 885.194 72.2555C884.843 72.6068 884.332 72.7824 883.661 72.7824ZM892.842 102C892.523 102 892.252 101.936 892.028 101.808C891.836 101.649 891.693 101.457 891.597 101.234C891.533 100.978 891.533 100.707 891.597 100.419C891.693 100.1 891.868 99.7967 892.124 99.5093L906.158 80.3023V81.1166H892.651C892.236 81.1166 891.916 81.0208 891.693 80.8292C891.501 80.6057 891.405 80.3023 891.405 79.9192C891.405 79.5679 891.501 79.2965 891.693 79.1049C891.916 78.8814 892.236 78.7696 892.651 78.7696H907.595C907.978 78.7696 908.281 78.8494 908.505 79.0091C908.76 79.1368 908.92 79.3125 908.984 79.536C909.08 79.7595 909.096 80.015 909.032 80.3023C908.968 80.5897 908.824 80.8771 908.601 81.1645L894.375 100.515V99.653H908.505C909.335 99.653 909.75 100.036 909.75 100.803C909.75 101.186 909.638 101.489 909.415 101.713C909.191 101.904 908.888 102 908.505 102H892.842ZM924.417 102.383C922.022 102.383 919.963 101.904 918.238 100.946C916.514 99.9883 915.189 98.6152 914.263 96.827C913.337 95.0389 912.874 92.9154 912.874 90.4567C912.874 88.0298 913.337 85.9223 914.263 84.1342C915.189 82.314 916.466 80.8931 918.095 79.8713C919.755 78.8494 921.655 78.3385 923.795 78.3385C925.359 78.3385 926.732 78.61 927.914 79.1528C929.127 79.6637 930.149 80.4141 930.979 81.404C931.841 82.3619 932.496 83.5434 932.943 84.9484C933.39 86.3215 933.614 87.8861 933.614 89.6424C933.614 90.0894 933.486 90.4247 933.23 90.6482C933.007 90.8718 932.688 90.9835 932.273 90.9835H914.981V88.8281H931.794L931.027 89.4508C931.027 87.5988 930.756 86.0341 930.213 84.7568C929.67 83.4476 928.856 82.4418 927.77 81.7393C926.716 81.0368 925.407 80.6855 923.843 80.6855C922.086 80.6855 920.601 81.1006 919.388 81.9309C918.175 82.7292 917.265 83.8468 916.658 85.2837C916.051 86.6887 915.748 88.3172 915.748 90.1693V90.4088C915.748 93.4742 916.498 95.8372 917.999 97.4976C919.5 99.1261 921.607 99.9404 924.322 99.9404C925.503 99.9404 926.637 99.7807 927.722 99.4614C928.84 99.1421 929.926 98.5993 930.979 97.8329C931.299 97.6094 931.602 97.4976 931.889 97.4976C932.209 97.4976 932.464 97.5774 932.656 97.7371C932.879 97.8968 933.023 98.1043 933.087 98.3598C933.183 98.5833 933.167 98.8388 933.039 99.1261C932.943 99.3816 932.736 99.6211 932.416 99.8446C931.394 100.675 930.165 101.313 928.728 101.761C927.291 102.176 925.854 102.383 924.417 102.383ZM948.431 102.383C946.355 102.383 944.535 101.904 942.97 100.946C941.437 99.9564 940.24 98.5673 939.378 96.7791C938.548 94.959 938.132 92.8196 938.132 90.3609C938.132 87.9021 938.548 85.7786 939.378 83.9905C940.208 82.2023 941.39 80.8132 942.922 79.8234C944.487 78.8335 946.323 78.3385 948.431 78.3385C950.602 78.3385 952.454 78.8973 953.987 80.015C955.519 81.1326 956.541 82.6334 957.052 84.5173H956.525V69.4296C956.525 68.9186 956.653 68.5514 956.908 68.3279C957.164 68.0725 957.515 67.9447 957.962 67.9447C958.441 67.9447 958.808 68.0725 959.064 68.3279C959.319 68.5514 959.447 68.9186 959.447 69.4296V100.803C959.447 101.282 959.319 101.649 959.064 101.904C958.808 102.16 958.457 102.287 958.01 102.287C957.531 102.287 957.164 102.16 956.908 101.904C956.653 101.649 956.525 101.282 956.525 100.803V95.8691L957.052 96.2044C956.541 98.0884 955.519 99.5891 953.987 100.707C952.454 101.824 950.602 102.383 948.431 102.383ZM948.814 99.9404C950.41 99.9404 951.783 99.5732 952.933 98.8388C954.114 98.0724 955.008 96.9707 955.615 95.5338C956.254 94.0969 956.573 92.3726 956.573 90.3609C956.573 87.3273 955.871 84.9803 954.466 83.3199C953.093 81.6594 951.209 80.8292 948.814 80.8292C947.249 80.8292 945.876 81.2124 944.694 81.9788C943.545 82.7132 942.651 83.7989 942.012 85.2358C941.406 86.6408 941.102 88.3492 941.102 90.3609C941.102 93.4263 941.805 95.7893 943.21 97.4497C944.615 99.1102 946.483 99.9404 948.814 99.9404ZM968.844 106.311C968.557 106.662 968.27 106.854 967.982 106.886C967.695 106.949 967.439 106.902 967.216 106.742C967.024 106.582 966.912 106.359 966.88 106.071C966.88 105.784 967.024 105.449 967.312 105.065C967.727 104.491 968.03 103.884 968.222 103.245C968.413 102.607 968.509 102.016 968.509 101.473L968.701 102.144C967.998 102.144 967.423 101.936 966.976 101.521C966.561 101.106 966.354 100.579 966.354 99.9404C966.354 99.3018 966.545 98.7749 966.928 98.3598C967.312 97.9447 967.838 97.7371 968.509 97.7371C969.18 97.7371 969.706 97.9766 970.09 98.4556C970.505 98.9026 970.712 99.5891 970.712 100.515C970.712 101.09 970.648 101.713 970.521 102.383C970.425 103.086 970.233 103.772 969.946 104.443C969.659 105.113 969.291 105.736 968.844 106.311ZM999.772 102.383C997.377 102.383 995.318 101.904 993.593 100.946C991.869 99.9883 990.544 98.6152 989.618 96.827C988.692 95.0389 988.229 92.9154 988.229 90.4567C988.229 88.0298 988.692 85.9223 989.618 84.1342C990.544 82.314 991.821 80.8931 993.45 79.8713C995.11 78.8494 997.01 78.3385 999.149 78.3385C1000.71 78.3385 1002.09 78.61 1003.27 79.1528C1004.48 79.6637 1005.5 80.4141 1006.33 81.404C1007.2 82.3619 1007.85 83.5434 1008.3 84.9484C1008.74 86.3215 1008.97 87.8861 1008.97 89.6424C1008.97 90.0894 1008.84 90.4247 1008.59 90.6482C1008.36 90.8718 1008.04 90.9835 1007.63 90.9835H990.336V88.8281H1007.15L1006.38 89.4508C1006.38 87.5988 1006.11 86.0341 1005.57 84.7568C1005.02 83.4476 1004.21 82.4418 1003.12 81.7393C1002.07 81.0368 1000.76 80.6855 999.197 80.6855C997.441 80.6855 995.956 81.1006 994.743 81.9309C993.529 82.7292 992.619 83.8468 992.013 85.2837C991.406 86.6887 991.103 88.3172 991.103 90.1693V90.4088C991.103 93.4742 991.853 95.8372 993.354 97.4976C994.855 99.1261 996.962 99.9404 999.676 99.9404C1000.86 99.9404 1001.99 99.7807 1003.08 99.4614C1004.19 99.1421 1005.28 98.5993 1006.33 97.8329C1006.65 97.6094 1006.96 97.4976 1007.24 97.4976C1007.56 97.4976 1007.82 97.5774 1008.01 97.7371C1008.23 97.8968 1008.38 98.1043 1008.44 98.3598C1008.54 98.5833 1008.52 98.8388 1008.39 99.1261C1008.3 99.3816 1008.09 99.6211 1007.77 99.8446C1006.75 100.675 1005.52 101.313 1004.08 101.761C1002.65 102.176 1001.21 102.383 999.772 102.383ZM1022.11 102.383C1020.54 102.383 1019.14 102.08 1017.89 101.473C1016.68 100.866 1015.71 100.036 1014.97 98.9824C1014.27 97.9287 1013.92 96.7472 1013.92 95.438C1013.92 93.7137 1014.35 92.3566 1015.21 91.3667C1016.07 90.3768 1017.53 89.6903 1019.57 89.3071C1021.61 88.892 1024.42 88.6844 1028 88.6844H1030.06V90.8398H1028.05C1025.17 90.8398 1022.92 90.9676 1021.29 91.223C1019.7 91.4465 1018.58 91.8776 1017.94 92.5163C1017.3 93.1549 1016.98 94.049 1016.98 95.1985C1016.98 96.6355 1017.48 97.801 1018.47 98.6951C1019.46 99.5891 1020.8 100.036 1022.49 100.036C1023.87 100.036 1025.06 99.7169 1026.08 99.0782C1027.14 98.4077 1027.97 97.4976 1028.58 96.3481C1029.18 95.1985 1029.49 93.8893 1029.49 92.4205V86.9601C1029.49 84.8207 1029.05 83.272 1028.19 82.314C1027.33 81.3242 1025.96 80.8292 1024.07 80.8292C1022.86 80.8292 1021.68 80.9889 1020.53 81.3082C1019.41 81.6275 1018.21 82.1384 1016.94 82.8409C1016.58 83.0325 1016.27 83.0964 1015.98 83.0325C1015.72 82.9686 1015.51 82.8409 1015.36 82.6493C1015.23 82.4577 1015.13 82.2342 1015.07 81.9788C1015.04 81.6914 1015.08 81.42 1015.21 81.1645C1015.34 80.909 1015.56 80.7015 1015.88 80.5418C1017.22 79.8074 1018.58 79.2646 1019.95 78.9133C1021.36 78.5301 1022.72 78.3385 1024.02 78.3385C1025.91 78.3385 1027.46 78.6578 1028.67 79.2965C1029.92 79.9351 1030.83 80.8931 1031.4 82.1703C1032.01 83.4476 1032.31 85.0921 1032.31 87.1038V100.803C1032.31 101.282 1032.2 101.649 1031.98 101.904C1031.75 102.16 1031.42 102.287 1030.97 102.287C1030.52 102.287 1030.17 102.16 1029.92 101.904C1029.66 101.649 1029.53 101.282 1029.53 100.803V96.396H1030.01C1029.72 97.6413 1029.21 98.711 1028.48 99.6051C1027.74 100.499 1026.83 101.186 1025.75 101.665C1024.66 102.144 1023.45 102.383 1022.11 102.383ZM1047.52 102.383C1046.08 102.383 1044.64 102.192 1043.21 101.808C1041.8 101.425 1040.46 100.771 1039.18 99.8446C1038.93 99.6849 1038.75 99.4934 1038.66 99.2698C1038.59 99.0144 1038.58 98.7589 1038.61 98.5035C1038.67 98.248 1038.78 98.0405 1038.94 97.8808C1039.13 97.6892 1039.36 97.5774 1039.61 97.5455C1039.87 97.5136 1040.14 97.5934 1040.43 97.785C1041.67 98.6152 1042.89 99.19 1044.07 99.5093C1045.25 99.8286 1046.43 99.9883 1047.61 99.9883C1049.56 99.9883 1051.05 99.6211 1052.07 98.8866C1053.09 98.1522 1053.6 97.1623 1053.6 95.917C1053.6 94.8952 1053.26 94.1128 1052.59 93.57C1051.96 92.9952 1050.9 92.5322 1049.43 92.181L1045.27 91.223C1043.25 90.776 1041.77 90.0575 1040.81 89.0676C1039.85 88.0458 1039.37 86.7366 1039.37 85.14C1039.37 83.7669 1039.73 82.5695 1040.43 81.5477C1041.16 80.5259 1042.18 79.7435 1043.49 79.2007C1044.83 78.6259 1046.37 78.3385 1048.09 78.3385C1049.5 78.3385 1050.84 78.5461 1052.11 78.9612C1053.39 79.3763 1054.51 80.015 1055.47 80.8771C1055.72 81.0687 1055.88 81.2922 1055.95 81.5477C1056.04 81.8031 1056.04 82.0586 1055.95 82.314C1055.88 82.5376 1055.76 82.7292 1055.56 82.8888C1055.37 83.0485 1055.15 83.1283 1054.89 83.1283C1054.64 83.1283 1054.37 83.0325 1054.08 82.8409C1053.15 82.1384 1052.18 81.6275 1051.16 81.3082C1050.14 80.9569 1049.1 80.7813 1048.04 80.7813C1046.19 80.7813 1044.75 81.1645 1043.73 81.9309C1042.74 82.6972 1042.25 83.735 1042.25 85.0442C1042.25 86.0341 1042.55 86.8324 1043.16 87.4391C1043.8 88.0458 1044.79 88.5088 1046.13 88.8281L1050.29 89.7861C1052.37 90.2651 1053.92 90.9835 1054.94 91.9415C1055.96 92.8675 1056.47 94.1288 1056.47 95.7254C1056.47 97.769 1055.66 99.3976 1054.03 100.611C1052.43 101.792 1050.26 102.383 1047.52 102.383ZM1067.24 110.909C1066.86 110.909 1066.55 110.797 1066.33 110.574C1066.11 110.382 1065.98 110.111 1065.95 109.759C1065.95 109.44 1066.01 109.105 1066.14 108.754L1069.44 101.234V102.575L1060.06 80.6376C1059.9 80.2544 1059.83 79.9032 1059.86 79.5839C1059.93 79.2326 1060.07 78.9612 1060.29 78.7696C1060.55 78.5461 1060.9 78.4343 1061.35 78.4343C1061.76 78.4343 1062.07 78.5301 1062.26 78.7217C1062.48 78.9133 1062.67 79.2167 1062.83 79.6318L1071.36 100.276H1070.16L1078.69 79.6318C1078.88 79.1847 1079.09 78.8814 1079.31 78.7217C1079.53 78.5301 1079.85 78.4343 1080.27 78.4343C1080.68 78.4343 1080.99 78.5461 1081.18 78.7696C1081.4 78.9612 1081.53 79.2167 1081.56 79.536C1081.59 79.8553 1081.53 80.2065 1081.37 80.5897L1068.87 109.759C1068.68 110.206 1068.45 110.51 1068.2 110.669C1067.97 110.829 1067.65 110.909 1067.24 110.909ZM1107.56 102.383C1105.83 102.383 1104.4 102.064 1103.25 101.425C1102.1 100.787 1101.23 99.8765 1100.66 98.6951C1100.09 97.4816 1099.8 95.9968 1099.8 94.2406V81.1166H1096.25C1095.84 81.1166 1095.5 81.0208 1095.25 80.8292C1094.99 80.6057 1094.86 80.3023 1094.86 79.9192C1094.86 79.5679 1094.99 79.2965 1095.25 79.1049C1095.5 78.8814 1095.84 78.7696 1096.25 78.7696H1099.8V72.7824C1099.8 72.2715 1099.93 71.9043 1100.18 71.6807C1100.44 71.4253 1100.8 71.2976 1101.28 71.2976C1101.73 71.2976 1102.08 71.4253 1102.34 71.6807C1102.59 71.9043 1102.72 72.2715 1102.72 72.7824V78.7696H1109.19C1109.63 78.7696 1109.97 78.8814 1110.19 79.1049C1110.42 79.2965 1110.53 79.5679 1110.53 79.9192C1110.53 80.3023 1110.42 80.6057 1110.19 80.8292C1109.97 81.0208 1109.63 81.1166 1109.19 81.1166H1102.72V93.8574C1102.72 95.8052 1103.12 97.2901 1103.92 98.3119C1104.72 99.3337 1106.04 99.8446 1107.89 99.8446C1108.53 99.8446 1109.06 99.7807 1109.47 99.653C1109.92 99.4934 1110.29 99.4135 1110.57 99.4135C1110.8 99.4135 1110.99 99.5093 1111.15 99.7009C1111.34 99.8925 1111.44 100.196 1111.44 100.611C1111.44 100.866 1111.37 101.122 1111.25 101.377C1111.15 101.633 1110.96 101.792 1110.67 101.856C1110.32 101.984 1109.84 102.096 1109.23 102.192C1108.63 102.319 1108.07 102.383 1107.56 102.383ZM1123.85 102.383C1121.67 102.383 1119.79 101.888 1118.19 100.898C1116.6 99.9085 1115.35 98.5194 1114.46 96.7313C1113.6 94.9431 1113.16 92.8196 1113.16 90.3609C1113.16 88.5407 1113.4 86.8963 1113.88 85.4274C1114.39 83.9585 1115.11 82.6972 1116.04 81.6435C1117 80.5578 1118.13 79.7435 1119.44 79.2007C1120.78 78.6259 1122.25 78.3385 1123.85 78.3385C1126.05 78.3385 1127.95 78.8335 1129.55 79.8234C1131.14 80.8132 1132.37 82.2182 1133.23 84.0384C1134.13 85.8265 1134.58 87.934 1134.58 90.3609C1134.58 92.2129 1134.32 93.8734 1133.81 95.3422C1133.33 96.8111 1132.61 98.0724 1131.65 99.1261C1130.73 100.18 1129.61 100.994 1128.3 101.569C1126.99 102.112 1125.51 102.383 1123.85 102.383ZM1123.85 99.9404C1125.44 99.9404 1126.82 99.5732 1127.97 98.8388C1129.15 98.0724 1130.04 96.9707 1130.65 95.5338C1131.29 94.0969 1131.61 92.3726 1131.61 90.3609C1131.61 87.3273 1130.9 84.9803 1129.5 83.3199C1128.13 81.6594 1126.24 80.8292 1123.85 80.8292C1122.28 80.8292 1120.91 81.2124 1119.73 81.9788C1118.58 82.7132 1117.68 83.7989 1117.04 85.2358C1116.44 86.6408 1116.13 88.3492 1116.13 90.3609C1116.13 93.4263 1116.84 95.7893 1118.24 97.4497C1119.65 99.1102 1121.52 99.9404 1123.85 99.9404ZM1154.35 102.287C1153.87 102.287 1153.5 102.16 1153.25 101.904C1152.99 101.649 1152.86 101.282 1152.86 100.803V79.9671C1152.86 79.4561 1152.99 79.073 1153.25 78.8175C1153.5 78.5621 1153.87 78.4343 1154.35 78.4343C1154.8 78.4343 1155.13 78.5621 1155.35 78.8175C1155.61 79.073 1155.74 79.4561 1155.74 79.9671V84.2299H1155.26C1155.83 82.346 1156.86 80.8931 1158.32 79.8713C1159.83 78.8494 1161.61 78.3226 1163.69 78.2906C1164.07 78.2587 1164.39 78.3385 1164.65 78.5301C1164.9 78.7217 1165.03 79.0251 1165.03 79.4402C1165.06 79.8872 1164.97 80.2385 1164.74 80.4939C1164.52 80.7174 1164.15 80.8611 1163.64 80.925L1162.97 80.9729C1160.7 81.1964 1158.95 81.9468 1157.7 83.2241C1156.46 84.5014 1155.83 86.2257 1155.83 88.3971V100.803C1155.83 101.282 1155.71 101.649 1155.45 101.904C1155.23 102.16 1154.86 102.287 1154.35 102.287ZM1179.06 102.383C1176.67 102.383 1174.61 101.904 1172.88 100.946C1171.16 99.9883 1169.83 98.6152 1168.91 96.827C1167.98 95.0389 1167.52 92.9154 1167.52 90.4567C1167.52 88.0298 1167.98 85.9223 1168.91 84.1342C1169.83 82.314 1171.11 80.8931 1172.74 79.8713C1174.4 78.8494 1176.3 78.3385 1178.44 78.3385C1180 78.3385 1181.38 78.61 1182.56 79.1528C1183.77 79.6637 1184.79 80.4141 1185.62 81.404C1186.49 82.3619 1187.14 83.5434 1187.59 84.9484C1188.03 86.3215 1188.26 87.8861 1188.26 89.6424C1188.26 90.0894 1188.13 90.4247 1187.87 90.6482C1187.65 90.8718 1187.33 90.9835 1186.92 90.9835H1169.63V88.8281H1186.44L1185.67 89.4508C1185.67 87.5988 1185.4 86.0341 1184.86 84.7568C1184.31 83.4476 1183.5 82.4418 1182.41 81.7393C1181.36 81.0368 1180.05 80.6855 1178.49 80.6855C1176.73 80.6855 1175.25 81.1006 1174.03 81.9309C1172.82 82.7292 1171.91 83.8468 1171.3 85.2837C1170.69 86.6887 1170.39 88.3172 1170.39 90.1693V90.4088C1170.39 93.4742 1171.14 95.8372 1172.64 97.4976C1174.14 99.1261 1176.25 99.9404 1178.97 99.9404C1180.15 99.9404 1181.28 99.7807 1182.37 99.4614C1183.48 99.1421 1184.57 98.5993 1185.62 97.8329C1185.94 97.6094 1186.25 97.4976 1186.53 97.4976C1186.85 97.4976 1187.11 97.5774 1187.3 97.7371C1187.52 97.8968 1187.67 98.1043 1187.73 98.3598C1187.83 98.5833 1187.81 98.8388 1187.68 99.1261C1187.59 99.3816 1187.38 99.6211 1187.06 99.8446C1186.04 100.675 1184.81 101.313 1183.37 101.761C1181.93 102.176 1180.5 102.383 1179.06 102.383ZM1201.4 102.383C1199.83 102.383 1198.43 102.08 1197.18 101.473C1195.97 100.866 1195 100.036 1194.26 98.9824C1193.56 97.9287 1193.21 96.7472 1193.21 95.438C1193.21 93.7137 1193.64 92.3566 1194.5 91.3667C1195.36 90.3768 1196.82 89.6903 1198.86 89.3071C1200.9 88.892 1203.71 88.6844 1207.29 88.6844H1209.35V90.8398H1207.34C1204.46 90.8398 1202.21 90.9676 1200.58 91.223C1198.99 91.4465 1197.87 91.8776 1197.23 92.5163C1196.59 93.1549 1196.27 94.049 1196.27 95.1985C1196.27 96.6355 1196.77 97.801 1197.76 98.6951C1198.75 99.5891 1200.09 100.036 1201.78 100.036C1203.15 100.036 1204.35 99.7169 1205.37 99.0782C1206.43 98.4077 1207.26 97.4976 1207.86 96.3481C1208.47 95.1985 1208.77 93.8893 1208.77 92.4205V86.9601C1208.77 84.8207 1208.34 83.272 1207.48 82.314C1206.62 81.3242 1205.25 80.8292 1203.36 80.8292C1202.15 80.8292 1200.97 80.9889 1199.82 81.3082C1198.7 81.6275 1197.5 82.1384 1196.22 82.8409C1195.87 83.0325 1195.55 83.0964 1195.27 83.0325C1195.01 82.9686 1194.8 82.8409 1194.64 82.6493C1194.52 82.4577 1194.42 82.2342 1194.36 81.9788C1194.32 81.6914 1194.37 81.42 1194.5 81.1645C1194.63 80.909 1194.85 80.7015 1195.17 80.5418C1196.51 79.8074 1197.87 79.2646 1199.24 78.9133C1200.65 78.5301 1202 78.3385 1203.31 78.3385C1205.2 78.3385 1206.75 78.6578 1207.96 79.2965C1209.21 79.9351 1210.12 80.8931 1210.69 82.1703C1211.3 83.4476 1211.6 85.0921 1211.6 87.1038V100.803C1211.6 101.282 1211.49 101.649 1211.26 101.904C1211.04 102.16 1210.71 102.287 1210.26 102.287C1209.81 102.287 1209.46 102.16 1209.21 101.904C1208.95 101.649 1208.82 101.282 1208.82 100.803V96.396H1209.3C1209.01 97.6413 1208.5 98.711 1207.77 99.6051C1207.03 100.499 1206.12 101.186 1205.04 101.665C1203.95 102.144 1202.74 102.383 1201.4 102.383ZM1228.1 102.383C1226.02 102.383 1224.2 101.904 1222.64 100.946C1221.11 99.9564 1219.91 98.5673 1219.05 96.7791C1218.22 94.959 1217.8 92.8196 1217.8 90.3609C1217.8 87.9021 1218.22 85.7786 1219.05 83.9905C1219.88 82.2023 1221.06 80.8132 1222.59 79.8234C1224.16 78.8335 1225.99 78.3385 1228.1 78.3385C1230.27 78.3385 1232.12 78.8973 1233.66 80.015C1235.19 81.1326 1236.21 82.6334 1236.72 84.5173H1236.19V69.4296C1236.19 68.9186 1236.32 68.5514 1236.58 68.3279C1236.83 68.0725 1237.18 67.9447 1237.63 67.9447C1238.11 67.9447 1238.48 68.0725 1238.73 68.3279C1238.99 68.5514 1239.12 68.9186 1239.12 69.4296V100.803C1239.12 101.282 1238.99 101.649 1238.73 101.904C1238.48 102.16 1238.13 102.287 1237.68 102.287C1237.2 102.287 1236.83 102.16 1236.58 101.904C1236.32 101.649 1236.19 101.282 1236.19 100.803V95.8691L1236.72 96.2044C1236.21 98.0884 1235.19 99.5891 1233.66 100.707C1232.12 101.824 1230.27 102.383 1228.1 102.383ZM1228.48 99.9404C1230.08 99.9404 1231.45 99.5732 1232.6 98.8388C1233.78 98.0724 1234.68 96.9707 1235.28 95.5338C1235.92 94.0969 1236.24 92.3726 1236.24 90.3609C1236.24 87.3273 1235.54 84.9803 1234.13 83.3199C1232.76 81.6594 1230.88 80.8292 1228.48 80.8292C1226.92 80.8292 1225.54 81.2124 1224.36 81.9788C1223.21 82.7132 1222.32 83.7989 1221.68 85.2358C1221.07 86.6408 1220.77 88.3492 1220.77 90.3609C1220.77 93.4263 1221.47 95.7893 1222.88 97.4497C1224.28 99.1102 1226.15 99.9404 1228.48 99.9404ZM335.317 167.287C334.838 167.287 334.47 167.16 334.215 166.904C333.96 166.649 333.832 166.282 333.832 165.803V144.967C333.832 144.456 333.96 144.073 334.215 143.818C334.47 143.562 334.838 143.434 335.317 143.434C335.764 143.434 336.099 143.562 336.322 143.818C336.578 144.073 336.706 144.456 336.706 144.967V149.469L336.179 149.182C336.817 147.266 337.903 145.813 339.436 144.823C341.001 143.833 342.789 143.339 344.8 143.339C346.652 143.339 348.185 143.674 349.399 144.344C350.644 144.983 351.57 145.973 352.177 147.314C352.783 148.655 353.087 150.332 353.087 152.343V165.803C353.087 166.282 352.959 166.649 352.704 166.904C352.448 167.16 352.097 167.287 351.65 167.287C351.171 167.287 350.804 167.16 350.548 166.904C350.293 166.649 350.165 166.282 350.165 165.803V152.583C350.165 150.252 349.702 148.559 348.776 147.506C347.85 146.42 346.381 145.877 344.369 145.877C342.07 145.877 340.218 146.596 338.813 148.033C337.44 149.438 336.754 151.337 336.754 153.732V165.803C336.754 166.792 336.275 167.287 335.317 167.287ZM369.878 167.383C367.707 167.383 365.823 166.888 364.226 165.898C362.63 164.908 361.384 163.519 360.49 161.731C359.628 159.943 359.197 157.82 359.197 155.361C359.197 153.541 359.437 151.896 359.915 150.427C360.426 148.959 361.145 147.697 362.071 146.643C363.029 145.558 364.162 144.744 365.472 144.201C366.813 143.626 368.282 143.339 369.878 143.339C372.082 143.339 373.981 143.833 375.578 144.823C377.175 145.813 378.404 147.218 379.266 149.038C380.16 150.827 380.607 152.934 380.607 155.361C380.607 157.213 380.352 158.873 379.841 160.342C379.362 161.811 378.643 163.072 377.686 164.126C376.76 165.18 375.642 165.994 374.333 166.569C373.023 167.112 371.539 167.383 369.878 167.383ZM369.878 164.94C371.475 164.94 372.848 164.573 373.997 163.839C375.179 163.072 376.073 161.971 376.68 160.534C377.318 159.097 377.638 157.373 377.638 155.361C377.638 152.327 376.935 149.98 375.53 148.32C374.157 146.659 372.273 145.829 369.878 145.829C368.314 145.829 366.94 146.212 365.759 146.979C364.609 147.713 363.715 148.799 363.077 150.236C362.47 151.641 362.167 153.349 362.167 155.361C362.167 158.426 362.869 160.789 364.274 162.45C365.679 164.11 367.547 164.94 369.878 164.94ZM395.359 167.383C393.635 167.383 392.198 167.064 391.049 166.425C389.899 165.787 389.037 164.877 388.462 163.695C387.887 162.482 387.6 160.997 387.6 159.241V146.117H384.056C383.64 146.117 383.305 146.021 383.05 145.829C382.794 145.606 382.667 145.302 382.667 144.919C382.667 144.568 382.794 144.296 383.05 144.105C383.305 143.881 383.64 143.77 384.056 143.77H387.6V137.782C387.6 137.271 387.728 136.904 387.983 136.681C388.239 136.425 388.606 136.298 389.085 136.298C389.532 136.298 389.883 136.425 390.139 136.681C390.394 136.904 390.522 137.271 390.522 137.782V143.77H396.988C397.435 143.77 397.77 143.881 397.994 144.105C398.217 144.296 398.329 144.568 398.329 144.919C398.329 145.302 398.217 145.606 397.994 145.829C397.77 146.021 397.435 146.117 396.988 146.117H390.522V158.857C390.522 160.805 390.921 162.29 391.719 163.312C392.517 164.334 393.843 164.845 395.695 164.845C396.333 164.845 396.86 164.781 397.275 164.653C397.722 164.493 398.09 164.414 398.377 164.414C398.6 164.414 398.792 164.509 398.952 164.701C399.143 164.893 399.239 165.196 399.239 165.611C399.239 165.866 399.175 166.122 399.048 166.377C398.952 166.633 398.76 166.792 398.473 166.856C398.122 166.984 397.643 167.096 397.036 167.192C396.429 167.319 395.87 167.383 395.359 167.383ZM412.511 167.383C410.116 167.383 408.056 166.904 406.332 165.946C404.607 164.988 403.282 163.615 402.356 161.827C401.43 160.039 400.967 157.915 400.967 155.457C400.967 153.03 401.43 150.922 402.356 149.134C403.282 147.314 404.56 145.893 406.188 144.871C407.848 143.849 409.748 143.339 411.888 143.339C413.453 143.339 414.826 143.61 416.007 144.153C417.22 144.664 418.242 145.414 419.073 146.404C419.935 147.362 420.589 148.543 421.036 149.948C421.483 151.321 421.707 152.886 421.707 154.642C421.707 155.089 421.579 155.425 421.324 155.648C421.1 155.872 420.781 155.984 420.366 155.984H403.075V153.828H419.887L419.12 154.451C419.12 152.599 418.849 151.034 418.306 149.757C417.763 148.448 416.949 147.442 415.863 146.739C414.81 146.037 413.5 145.686 411.936 145.686C410.18 145.686 408.695 146.101 407.481 146.931C406.268 147.729 405.358 148.847 404.751 150.284C404.144 151.689 403.841 153.317 403.841 155.169V155.409C403.841 158.474 404.591 160.837 406.092 162.498C407.593 164.126 409.701 164.94 412.415 164.94C413.596 164.94 414.73 164.781 415.815 164.461C416.933 164.142 418.019 163.599 419.073 162.833C419.392 162.609 419.695 162.498 419.983 162.498C420.302 162.498 420.557 162.577 420.749 162.737C420.972 162.897 421.116 163.104 421.18 163.36C421.276 163.583 421.26 163.839 421.132 164.126C421.036 164.382 420.829 164.621 420.509 164.845C419.488 165.675 418.258 166.313 416.821 166.761C415.384 167.176 413.947 167.383 412.511 167.383ZM435.231 167.383C433.794 167.383 432.357 167.192 430.92 166.808C429.515 166.425 428.174 165.771 426.896 164.845C426.641 164.685 426.465 164.493 426.369 164.27C426.306 164.014 426.29 163.759 426.322 163.503C426.385 163.248 426.497 163.04 426.657 162.881C426.848 162.689 427.072 162.577 427.327 162.546C427.583 162.514 427.854 162.593 428.142 162.785C429.387 163.615 430.6 164.19 431.782 164.509C432.963 164.829 434.145 164.988 435.326 164.988C437.274 164.988 438.759 164.621 439.781 163.887C440.803 163.152 441.314 162.162 441.314 160.917C441.314 159.895 440.978 159.113 440.308 158.57C439.669 157.995 438.615 157.532 437.146 157.181L432.979 156.223C430.968 155.776 429.483 155.058 428.525 154.068C427.567 153.046 427.088 151.737 427.088 150.14C427.088 148.767 427.439 147.569 428.142 146.548C428.876 145.526 429.898 144.744 431.207 144.201C432.548 143.626 434.081 143.339 435.805 143.339C437.21 143.339 438.551 143.546 439.829 143.961C441.106 144.376 442.224 145.015 443.182 145.877C443.437 146.069 443.597 146.292 443.661 146.548C443.756 146.803 443.756 147.059 443.661 147.314C443.597 147.538 443.469 147.729 443.277 147.889C443.086 148.048 442.862 148.128 442.607 148.128C442.351 148.128 442.08 148.033 441.793 147.841C440.866 147.138 439.893 146.628 438.871 146.308C437.849 145.957 436.811 145.781 435.757 145.781C433.905 145.781 432.468 146.164 431.447 146.931C430.457 147.697 429.962 148.735 429.962 150.044C429.962 151.034 430.265 151.832 430.872 152.439C431.51 153.046 432.5 153.509 433.841 153.828L438.009 154.786C440.084 155.265 441.633 155.984 442.655 156.941C443.676 157.868 444.187 159.129 444.187 160.725C444.187 162.769 443.373 164.398 441.745 165.611C440.148 166.792 437.977 167.383 435.231 167.383ZM451.739 167.144C451.1 167.144 450.573 166.936 450.158 166.521C449.743 166.106 449.535 165.579 449.535 164.94C449.535 164.302 449.743 163.775 450.158 163.36C450.573 162.945 451.1 162.737 451.739 162.737C452.409 162.737 452.936 162.945 453.319 163.36C453.735 163.775 453.942 164.302 453.942 164.94C453.942 165.579 453.735 166.106 453.319 166.521C452.936 166.936 452.409 167.144 451.739 167.144Z" fill="white"/>
</svg>
