<svg width="200" height="50" viewBox="0 0 235 69" fill="none" xmlns="http://www.w3.org/2000/svg">
<path d="M58.2719 52.3405C55.8219 52.3405 53.977 51.6468 52.7372 50.2594C51.4975 48.8425 50.8776 46.7762 50.8776 44.0605V23.1172C50.8776 22.2021 51.1137 21.5084 51.586 21.0361C52.0583 20.5638 52.7372 20.3277 53.6228 20.3277C54.5083 20.3277 55.1873 20.5638 55.6596 21.0361C56.1614 21.5084 56.4123 22.2021 56.4123 23.1172V43.7949C56.4123 45.1527 56.6927 46.1564 57.2536 46.8058C57.8439 47.4552 58.6704 47.7799 59.7331 47.7799C59.9693 47.7799 60.1906 47.7799 60.3973 47.7799C60.6039 47.7504 60.8105 47.7208 61.0172 47.6913C61.4304 47.6323 61.7109 47.7504 61.8584 48.0455C62.006 48.3112 62.0798 48.8721 62.0798 49.7281C62.0798 50.4661 61.9322 51.0417 61.6371 51.4549C61.3419 51.8682 60.8548 52.1191 60.1759 52.2076C59.8807 52.2372 59.5708 52.2667 59.2461 52.2962C58.9214 52.3257 58.5966 52.3405 58.2719 52.3405ZM67.7623 52.2076C66.8767 52.2076 66.1978 51.942 65.7255 51.4106C65.2532 50.8793 65.017 50.1414 65.017 49.1968V32.9468C65.017 31.9727 65.2532 31.2348 65.7255 30.7329C66.1978 30.2016 66.8767 29.9359 67.7623 29.9359C68.6478 29.9359 69.3267 30.2016 69.799 30.7329C70.3008 31.2348 70.5518 31.9727 70.5518 32.9468V49.1968C70.5518 50.1414 70.3156 50.8793 69.8433 51.4106C69.371 51.942 68.6773 52.2076 67.7623 52.2076ZM67.7623 25.8181C66.7291 25.8181 65.9173 25.5672 65.327 25.0654C64.7661 24.5341 64.4857 23.8109 64.4857 22.8958C64.4857 21.9512 64.7661 21.228 65.327 20.7262C65.9173 20.2244 66.7291 19.9735 67.7623 19.9735C68.8249 19.9735 69.6367 20.2244 70.1975 20.7262C70.7584 21.228 71.0388 21.9512 71.0388 22.8958C71.0388 23.8109 70.7584 24.5341 70.1975 25.0654C69.6367 25.5672 68.8249 25.8181 67.7623 25.8181ZM84.2284 52.3405C82.9591 52.3405 81.616 52.2076 80.1991 51.942C78.7822 51.6763 77.5129 51.2188 76.3912 50.5694C75.9189 50.2742 75.5795 49.9347 75.3728 49.551C75.1957 49.1377 75.1219 48.7392 75.1514 48.3555C75.2105 47.9422 75.3581 47.588 75.5942 47.2928C75.8599 46.9976 76.1846 46.8058 76.5683 46.7172C76.9816 46.6287 77.4244 46.7025 77.8967 46.9386C79.0774 47.4995 80.1844 47.8979 81.2175 48.1341C82.2506 48.3407 83.269 48.444 84.2727 48.444C85.6895 48.444 86.7375 48.2079 87.4164 47.7356C88.1248 47.2338 88.479 46.5844 88.479 45.7874C88.479 45.1085 88.2429 44.5919 87.7706 44.2377C87.3278 43.8539 86.6489 43.5735 85.7338 43.3964L81.3061 42.5551C79.4759 42.2009 78.0738 41.5367 77.0997 40.5626C76.1551 39.559 75.6828 38.2749 75.6828 36.7104C75.6828 35.2936 76.0665 34.0685 76.834 33.0354C77.631 32.0022 78.7232 31.2052 80.1106 30.6444C81.4979 30.0835 83.0919 29.8031 84.8925 29.8031C86.1914 29.8031 87.4016 29.9507 88.5233 30.2459C89.6745 30.5116 90.7815 30.9396 91.8442 31.5299C92.2869 31.7661 92.5821 32.076 92.7297 32.4598C92.9068 32.8435 92.9511 33.242 92.8625 33.6553C92.774 34.039 92.5969 34.3932 92.3312 34.7179C92.0655 35.0131 91.7261 35.205 91.3128 35.2936C90.9291 35.3526 90.4863 35.264 89.9845 35.0279C89.0694 34.5556 88.1839 34.2161 87.3278 34.0095C86.5013 33.8029 85.7043 33.6996 84.9368 33.6996C83.4904 33.6996 82.413 33.9505 81.7046 34.4523C81.0256 34.9541 80.6862 35.6183 80.6862 36.4448C80.6862 37.0647 80.8928 37.5812 81.3061 37.9945C81.7193 38.4078 82.354 38.6882 83.21 38.8358L87.6378 39.677C89.5565 40.0313 91.0029 40.6807 91.977 41.6253C92.9806 42.5699 93.4824 43.8392 93.4824 45.4332C93.4824 47.588 92.6412 49.2853 90.9586 50.5251C89.276 51.7354 87.0326 52.3405 84.2284 52.3405ZM105.848 52.3405C104.579 52.3405 103.236 52.2076 101.819 51.942C100.402 51.6763 99.1329 51.2188 98.0112 50.5694C97.5389 50.2742 97.1995 49.9347 96.9928 49.551C96.8157 49.1377 96.7419 48.7392 96.7714 48.3555C96.8305 47.9422 96.9781 47.588 97.2142 47.2928C97.4799 46.9976 97.8046 46.8058 98.1883 46.7172C98.6016 46.6287 99.0444 46.7025 99.5167 46.9386C100.697 47.4995 101.804 47.8979 102.837 48.1341C103.871 48.3407 104.889 48.444 105.893 48.444C107.31 48.444 108.357 48.2079 109.036 47.7356C109.745 47.2338 110.099 46.5844 110.099 45.7874C110.099 45.1085 109.863 44.5919 109.391 44.2377C108.948 43.8539 108.269 43.5735 107.354 43.3964L102.926 42.5551C101.096 42.2009 99.6938 41.5367 98.7197 40.5626C97.7751 39.559 97.3028 38.2749 97.3028 36.7104C97.3028 35.2936 97.6865 34.0685 98.454 33.0354C99.251 32.0022 100.343 31.2052 101.731 30.6444C103.118 30.0835 104.712 29.8031 106.513 29.8031C107.811 29.8031 109.022 29.9507 110.143 30.2459C111.295 30.5116 112.401 30.9396 113.464 31.5299C113.907 31.7661 114.202 32.076 114.35 32.4598C114.527 32.8435 114.571 33.242 114.483 33.6553C114.394 34.039 114.217 34.3932 113.951 34.7179C113.686 35.0131 113.346 35.205 112.933 35.2936C112.549 35.3526 112.106 35.264 111.604 35.0279C110.689 34.5556 109.804 34.2161 108.948 34.0095C108.121 33.8029 107.324 33.6996 106.557 33.6996C105.11 33.6996 104.033 33.9505 103.325 34.4523C102.646 34.9541 102.306 35.6183 102.306 36.4448C102.306 37.0647 102.513 37.5812 102.926 37.9945C103.339 38.4078 103.974 38.6882 104.83 38.8358L109.258 39.677C111.176 40.0313 112.623 40.6807 113.597 41.6253C114.601 42.5699 115.102 43.8392 115.102 45.4332C115.102 47.588 114.261 49.2853 112.579 50.5251C110.896 51.7354 108.653 52.3405 105.848 52.3405ZM130.214 52.3405C127.764 52.3405 125.653 51.8829 123.882 50.9679C122.111 50.0528 120.738 48.754 119.764 47.0714C118.819 45.3889 118.347 43.3964 118.347 41.0939C118.347 38.8505 118.805 36.8876 119.72 35.205C120.664 33.5224 121.948 32.2089 123.572 31.2643C125.225 30.2902 127.099 29.8031 129.195 29.8031C130.73 29.8031 132.103 30.054 133.313 30.5558C134.553 31.0577 135.601 31.7809 136.457 32.7254C137.342 33.67 138.006 34.8213 138.449 36.1791C138.922 37.5074 139.158 39.0129 139.158 40.6954C139.158 41.2268 138.966 41.64 138.582 41.9352C138.228 42.2009 137.711 42.3337 137.032 42.3337H122.819V39.1457H135.261L134.553 39.8099C134.553 38.452 134.346 37.3156 133.933 36.4005C133.549 35.4854 132.974 34.7917 132.206 34.3194C131.468 33.8176 130.538 33.5667 129.417 33.5667C128.177 33.5667 127.114 33.8619 126.229 34.4523C125.373 35.0131 124.708 35.8249 124.236 36.8876C123.793 37.9207 123.572 39.1605 123.572 40.6069V40.9168C123.572 43.3373 124.133 45.1527 125.254 46.363C126.406 47.5437 128.088 48.1341 130.302 48.1341C131.07 48.1341 131.926 48.0455 132.87 47.8684C133.844 47.6618 134.759 47.3223 135.615 46.85C136.235 46.4958 136.781 46.3482 137.254 46.4073C137.726 46.4368 138.095 46.5991 138.361 46.8943C138.656 47.1895 138.833 47.5585 138.892 48.0013C138.951 48.4145 138.862 48.8425 138.626 49.2853C138.42 49.7281 138.051 50.1118 137.519 50.4365C136.486 51.0859 135.291 51.573 133.933 51.8977C132.605 52.1929 131.365 52.3405 130.214 52.3405ZM146.286 52.2519C145.4 52.2519 144.722 52.0158 144.249 51.5435C143.777 51.0417 143.541 50.3332 143.541 49.4182V32.6812C143.541 31.7661 143.777 31.0724 144.249 30.6001C144.722 30.1278 145.386 29.8917 146.242 29.8917C147.098 29.8917 147.762 30.1278 148.234 30.6001C148.707 31.0724 148.943 31.7661 148.943 32.6812V35.6921L148.456 34.5851C149.105 33.0206 150.109 31.8399 151.467 31.0429C152.854 30.2164 154.418 29.8031 156.16 29.8031C157.902 29.8031 159.333 30.1278 160.455 30.7772C161.577 31.4266 162.418 32.4155 162.979 33.7438C163.54 35.0426 163.82 36.6957 163.82 38.7029V49.4182C163.82 50.3332 163.584 51.0417 163.112 51.5435C162.639 52.0158 161.96 52.2519 161.075 52.2519C160.189 52.2519 159.496 52.0158 158.994 51.5435C158.521 51.0417 158.285 50.3332 158.285 49.4182V38.9686C158.285 37.2861 157.961 36.061 157.311 35.2936C156.691 34.5261 155.717 34.1423 154.389 34.1423C152.765 34.1423 151.467 34.6589 150.492 35.6921C149.548 36.6957 149.076 38.0388 149.076 39.7213V49.4182C149.076 51.3073 148.146 52.2519 146.286 52.2519ZM179.316 52.3405C177.072 52.3405 175.124 51.8829 173.471 50.9679C171.818 50.0528 170.534 48.754 169.619 47.0714C168.704 45.3594 168.246 43.3521 168.246 41.0497C168.246 39.3081 168.497 37.7583 168.999 36.4005C169.53 35.0131 170.283 33.8324 171.257 32.8583C172.231 31.8547 173.397 31.1019 174.755 30.6001C176.113 30.0688 177.633 29.8031 179.316 29.8031C181.559 29.8031 183.507 30.2607 185.16 31.1757C186.813 32.0908 188.097 33.3896 189.012 35.0722C189.927 36.7547 190.385 38.7472 190.385 41.0497C190.385 42.7913 190.119 44.3557 189.588 45.7431C189.086 47.1305 188.348 48.326 187.374 49.3296C186.4 50.3037 185.234 51.0564 183.876 51.5878C182.518 52.0896 180.998 52.3405 179.316 52.3405ZM179.316 48.1341C180.408 48.1341 181.367 47.8684 182.194 47.3371C183.02 46.8058 183.655 46.0235 184.098 44.9904C184.57 43.9277 184.806 42.6141 184.806 41.0497C184.806 38.6882 184.304 36.9318 183.301 35.7806C182.297 34.5999 180.969 34.0095 179.316 34.0095C178.223 34.0095 177.264 34.2752 176.437 34.8065C175.611 35.3083 174.962 36.0906 174.489 37.1532C174.046 38.1864 173.825 39.4852 173.825 41.0497C173.825 43.3816 174.327 45.1527 175.331 46.363C176.334 47.5437 177.662 48.1341 179.316 48.1341ZM204.655 52.3405C202.736 52.3405 201.128 52.0158 199.829 51.3664C198.56 50.717 197.615 49.7724 196.995 48.5326C196.375 47.2633 196.065 45.6988 196.065 43.8392V34.408H193.763C193.054 34.408 192.508 34.2309 192.125 33.8767C191.741 33.4929 191.549 32.9764 191.549 32.3269C191.549 31.648 191.741 31.1314 192.125 30.7772C192.508 30.423 193.054 30.2459 193.763 30.2459H196.065V26.2166C196.065 25.3015 196.301 24.6079 196.774 24.1356C197.276 23.6633 197.969 23.4271 198.855 23.4271C199.74 23.4271 200.419 23.6633 200.892 24.1356C201.364 24.6079 201.6 25.3015 201.6 26.2166V30.2459H206.293C207.002 30.2459 207.548 30.423 207.932 30.7772C208.315 31.1314 208.507 31.648 208.507 32.3269C208.507 32.9764 208.315 33.4929 207.932 33.8767C207.548 34.2309 207.002 34.408 206.293 34.408H201.6V43.5292C201.6 44.9461 201.91 46.0088 202.53 46.7172C203.15 47.4257 204.153 47.7799 205.541 47.7799C206.043 47.7799 206.485 47.7356 206.869 47.647C207.253 47.5585 207.592 47.4995 207.887 47.4699C208.242 47.4404 208.537 47.5585 208.773 47.8242C209.009 48.0603 209.127 48.5621 209.127 49.3296C209.127 49.92 209.024 50.4513 208.817 50.9236C208.64 51.3664 208.301 51.6763 207.799 51.8534C207.415 51.9715 206.913 52.0748 206.293 52.1634C205.674 52.2814 205.127 52.3405 204.655 52.3405ZM222.185 52.3405C219.735 52.3405 217.624 51.8829 215.853 50.9679C214.082 50.0528 212.71 48.754 211.735 47.0714C210.791 45.3889 210.319 43.3964 210.319 41.0939C210.319 38.8505 210.776 36.8876 211.691 35.205C212.636 33.5224 213.92 32.2089 215.543 31.2643C217.196 30.2902 219.071 29.8031 221.167 29.8031C222.702 29.8031 224.074 30.054 225.284 30.5558C226.524 31.0577 227.572 31.7809 228.428 32.7254C229.314 33.67 229.978 34.8213 230.421 36.1791C230.893 37.5074 231.129 39.0129 231.129 40.6954C231.129 41.2268 230.937 41.64 230.553 41.9352C230.199 42.2009 229.683 42.3337 229.004 42.3337H214.791V39.1457H227.233L226.524 39.8099C226.524 38.452 226.318 37.3156 225.904 36.4005C225.521 35.4854 224.945 34.7917 224.178 34.3194C223.44 33.8176 222.51 33.5667 221.388 33.5667C220.148 33.5667 219.086 33.8619 218.2 34.4523C217.344 35.0131 216.68 35.8249 216.208 36.8876C215.765 37.9207 215.543 39.1605 215.543 40.6069V40.9168C215.543 43.3373 216.104 45.1527 217.226 46.363C218.377 47.5437 220.06 48.1341 222.274 48.1341C223.041 48.1341 223.897 48.0455 224.842 47.8684C225.816 47.6618 226.731 47.3223 227.587 46.85C228.207 46.4958 228.753 46.3482 229.225 46.4073C229.697 46.4368 230.066 46.5991 230.332 46.8943C230.627 47.1895 230.804 47.5585 230.863 48.0013C230.922 48.4145 230.834 48.8425 230.598 49.2853C230.391 49.7281 230.022 50.1118 229.491 50.4365C228.458 51.0859 227.262 51.573 225.904 51.8977C224.576 52.1929 223.336 52.3405 222.185 52.3405Z" fill="#66BAA7"/>
<rect x="1.65525" y="-0.452592" width="54.9872" height="13.7653" rx="2.82867" transform="matrix(0.49637 -0.868111 0.869021 0.494775 7.14809 52.3591)" stroke="#66BAA7" stroke-width="2.42458"/>
<path d="M7.38653 64.0814L7.0103 49.9098L19.804 57.1938L7.38653 64.0814Z" fill="#66BAA7"/>
<path d="M10.1431 53.554L38.6405 3.71413" stroke="#66BAA7" stroke-width="1.61639"/>
<path d="M15.0669 56.3576L43.5644 6.51775" stroke="#66BAA7" stroke-width="1.61639"/>
</svg>
