<svg width="61" height="62" viewBox="0 0 61 62" fill="none" xmlns="http://www.w3.org/2000/svg">
<path d="M20.403 48.1227C20.403 48.3648 20.1202 48.5586 19.7635 48.5586C19.3577 48.5949 19.0748 48.4012 19.0748 48.1227C19.0748 47.8805 19.3577 47.6867 19.7143 47.6867C20.0833 47.6504 20.403 47.8441 20.403 48.1227ZM16.5782 47.5777C16.4921 47.8199 16.7381 48.0984 17.1071 48.1711C17.4268 48.2922 17.7958 48.1711 17.8696 47.9289C17.9433 47.6867 17.7097 47.4082 17.3407 47.2992C17.021 47.2145 16.6643 47.3355 16.5782 47.5777ZM22.0141 47.3719C21.6575 47.4566 21.4115 47.6867 21.4484 47.9652C21.4853 48.2074 21.805 48.3648 22.174 48.2801C22.5306 48.1953 22.7766 47.9652 22.7397 47.723C22.7028 47.493 22.3708 47.3355 22.0141 47.3719ZM30.1065 0.96875C13.0486 0.96875 0 13.7199 0 30.5156C0 43.9449 8.58427 55.4367 20.8458 59.4813C22.42 59.7598 22.9734 58.8031 22.9734 58.016C22.9734 57.2652 22.9365 53.1238 22.9365 50.5809C22.9365 50.5809 14.3276 52.3973 12.5198 46.9723C12.5198 46.9723 11.1177 43.4484 9.10081 42.5402C9.10081 42.5402 6.28448 40.6391 9.29758 40.6754C9.29758 40.6754 12.3599 40.9176 14.0448 43.7996C16.7381 48.4738 21.2516 47.1297 23.0103 46.3305C23.2931 44.393 24.0925 43.0488 24.978 42.2496C18.1032 41.4988 11.1669 40.518 11.1669 28.8687C11.1669 25.5387 12.1016 23.8676 14.0694 21.7363C13.7496 20.9492 12.7042 17.7039 14.3891 13.5141C16.9595 12.727 22.875 16.7836 22.875 16.7836C25.3347 16.1055 27.9788 15.7543 30.5984 15.7543C33.2179 15.7543 35.8621 16.1055 38.3218 16.7836C38.3218 16.7836 44.2373 12.7148 46.8077 13.5141C48.4925 17.716 47.4472 20.9492 47.1274 21.7363C49.0952 23.8797 50.3004 25.5508 50.3004 28.8687C50.3004 40.5543 43.0567 41.4867 36.1819 42.2496C37.3133 43.2062 38.2726 45.0227 38.2726 47.8684C38.2726 51.9492 38.2357 56.9988 38.2357 57.9918C38.2357 58.7789 38.8014 59.7355 40.3633 59.457C52.6617 55.4367 61 43.9449 61 30.5156C61 13.7199 47.1643 0.96875 30.1065 0.96875ZM11.954 42.734C11.7942 42.8551 11.831 43.1336 12.0401 43.3637C12.2369 43.5574 12.5198 43.6422 12.6796 43.4848C12.8395 43.3637 12.8026 43.0852 12.5935 42.8551C12.3968 42.6613 12.1139 42.5766 11.954 42.734ZM10.6258 41.7531C10.5397 41.9105 10.6627 42.1043 10.9087 42.2254C11.1054 42.3465 11.3514 42.3102 11.4375 42.1406C11.5236 41.9832 11.4006 41.7895 11.1546 41.6684C10.9087 41.5957 10.7119 41.632 10.6258 41.7531ZM14.6105 46.0641C14.4137 46.2215 14.4875 46.5848 14.7704 46.8148C15.0532 47.0934 15.4099 47.1297 15.5698 46.9359C15.7296 46.7785 15.6558 46.4152 15.4099 46.1852C15.1393 45.9066 14.7704 45.8703 14.6105 46.0641ZM13.2085 44.284C13.0117 44.4051 13.0117 44.7199 13.2085 44.9984C13.4052 45.277 13.7373 45.398 13.8972 45.277C14.094 45.1195 14.094 44.8047 13.8972 44.5262C13.725 44.2477 13.4052 44.1266 13.2085 44.284Z" fill="black"/>
</svg>
