<svg width="59" height="67" viewBox="0 0 59 67" fill="none" xmlns="http://www.w3.org/2000/svg">
<g clip-path="url(#clip0_233_121)">
<path d="M54.4375 4.1875H4.17441C1.87129 4.1875 0 6.08496 0 8.41426V58.5857C0 60.915 1.87129 62.8125 4.17441 62.8125H54.4375C56.7406 62.8125 58.625 60.915 58.625 58.5857V8.41426C58.625 6.08496 56.7406 4.1875 54.4375 4.1875ZM17.7184 54.4375H9.0293V26.4598H17.7314V54.4375H17.7184ZM13.3738 22.6387C10.5865 22.6387 8.33574 20.3748 8.33574 17.6006C8.33574 14.8264 10.5865 12.5625 13.3738 12.5625C16.148 12.5625 18.4119 14.8264 18.4119 17.6006C18.4119 20.3879 16.1611 22.6387 13.3738 22.6387V22.6387ZM50.2893 54.4375H41.6002V40.8281C41.6002 37.5828 41.5348 33.4084 37.0855 33.4084C32.5578 33.4084 31.8643 36.9416 31.8643 40.5926V54.4375H23.1752V26.4598H31.5109V30.2809H31.6287C32.7934 28.0824 35.633 25.7662 39.8598 25.7662C48.6535 25.7662 50.2893 31.5633 50.2893 39.1008V54.4375V54.4375Z" fill="black"/>
</g>
<defs>
<clipPath id="clip0_233_121">
<rect width="58.625" height="67" fill="white"/>
</clipPath>
</defs>
</svg>
