<svg width="58" height="58" viewBox="0 0 58 58" fill="none" xmlns="http://www.w3.org/2000/svg">
<path d="M52.5625 7.25C55.5645 7.25 58 9.68441 58 12.6875C58 14.398 57.1957 16.0066 55.825 17.0375L31.175 35.525C29.8836 36.4879 28.1164 36.4879 26.825 35.525L2.175 17.0375C0.80577 16.0066 0 14.398 0 12.6875C0 9.68441 2.43441 7.25 5.4375 7.25H52.5625ZM24.65 38.425C27.2328 40.3621 30.7672 40.3621 33.35 38.425L58 19.9375V43.5C58 47.4988 54.7488 50.75 50.75 50.75H7.25C3.24551 50.75 0 47.4988 0 43.5V19.9375L24.65 38.425Z" fill="black"/>
</svg>
