<svg width="68" height="109" viewBox="0 0 68 109" fill="none" xmlns="http://www.w3.org/2000/svg">
<path d="M13.6001 20.4C13.6001 14.9896 15.7494 9.80076 19.5751 5.97502C23.4009 2.14928 28.5897 0 34.0001 0C39.4105 0 44.5993 2.14928 48.4251 5.97502C52.2508 9.80076 54.4001 14.9896 54.4001 20.4V54.4C54.4001 59.8104 52.2508 64.9992 48.4251 68.825C44.5993 72.6507 39.4105 74.8 34.0001 74.8C28.5897 74.8 23.4009 72.6507 19.5751 68.825C15.7494 64.9992 13.6001 59.8104 13.6001 54.4V20.4Z" fill="#66BAA7"/>
<path d="M3.4 44.2002C4.30174 44.2002 5.16654 44.5584 5.80416 45.196C6.44179 45.8337 6.8 46.6985 6.8 47.6002V54.4002C6.8 61.6141 9.66571 68.5325 14.7667 73.6335C19.8677 78.7345 26.7861 81.6002 34 81.6002C41.2139 81.6002 48.1323 78.7345 53.2333 73.6335C58.3343 68.5325 61.2 61.6141 61.2 54.4002V47.6002C61.2 46.6985 61.5582 45.8337 62.1958 45.196C62.8335 44.5584 63.6983 44.2002 64.6 44.2002C65.5017 44.2002 66.3665 44.5584 67.0042 45.196C67.6418 45.8337 68 46.6985 68 47.6002V54.4002C68.0001 62.829 64.8694 70.9574 59.2152 77.2084C53.5611 83.4594 45.7865 87.3873 37.4 88.2302V102H57.8C58.7017 102 59.5665 102.358 60.2042 102.996C60.8418 103.634 61.2 104.498 61.2 105.4C61.2 106.302 60.8418 107.167 60.2042 107.804C59.5665 108.442 58.7017 108.8 57.8 108.8H10.2C9.29826 108.8 8.43346 108.442 7.79584 107.804C7.15821 107.167 6.8 106.302 6.8 105.4C6.8 104.498 7.15821 103.634 7.79584 102.996C8.43346 102.358 9.29826 102 10.2 102H30.6V88.2302C22.2135 87.3873 14.439 83.4594 8.78478 77.2084C3.13061 70.9574 -0.000105887 62.829 2.68604e-09 54.4002V47.6002C2.68604e-09 46.6985 0.358214 45.8337 0.995838 45.196C1.63346 44.5584 2.49826 44.2002 3.4 44.2002Z" fill="#66BAA7"/>
</svg>
